<?xml version="1.0" encoding="utf-8"?>
<xmeml version="5">
  <sequence id="video">
    <name>[일룸] 일룸모델 공유의 인터뷰영상</name>
    <duration>3801.3</duration>
    <rate>
      <timebase>30</timebase>
      <ntsc>false</ntsc>
    </rate>
    <media>
      <video>
        <format>
          <samplecharacteristics>
            <width>1280</width>
            <height>720</height>
            <anamorphic>false</anamorphic>
            <pixelaspectratio>square</pixelaspectratio>
            <fielddominance>none</fielddominance>
          </samplecharacteristics>
        </format>
        <track>
          <clipitem>
            <name>[일룸] 일룸모델 공유의 인터뷰영상.mp4</name>
            <enabled>true</enabled>
            <rate>
              <timebase>30</timebase>
              <ntsc>false</ntsc>
            </rate>
            <in>0</in>
            <out>191.70000000000002</out>
            <start>0</start>
            <end>191.70000000000002</end>
            <file id="[일룸] 일룸모델 공유의 인터뷰영상.mp4">
              <name>[일룸] 일룸모델 공유의 인터뷰영상.mp4</name>
              <pathurl>C:\taehee\보따리\2021영상\data\movie\[일룸] 일룸모델 공유의 인터뷰영상.mp4</pathurl>
              <media>
                <video>
                  <samplecharacteristics>
                    <width>1280</width>
                    <height>720</height>
                    <anamorphic>true</anamorphic>
                    <pixelaspectratio>square</pixelaspectratio>
                    <fielddominance>none</fielddominance>
                  </samplecharacteristics>
                </video>
                <audio>
                  <in>0</in>
                  <out>3801.3</out>
                  <channelcount>2</channelcount>
                  <duration>3801.3</duration>
                </audio>
              </media>
            </file>
            <link>
              <mediatype>video</mediatype>
              <trackindex>1</trackindex>
              <clipindex>1</clipindex>
            </link>
            <link>
              <mediatype>audio</mediatype>
              <trackindex>1</trackindex>
              <clipindex>1</clipindex>
              <groupindex>1</groupindex>
            </link>
            <link>
              <mediatype>audio</mediatype>
              <trackindex>2</trackindex>
              <clipindex>1</clipindex>
              <groupindex>1</groupindex>
            </link>
          </clipitem>
          <clipitem>
            <name>[일룸] 일룸모델 공유의 인터뷰영상.mp4</name>
            <enabled>true</enabled>
            <rate>
              <timebase>30</timebase>
              <ntsc>false</ntsc>
            </rate>
            <in>191.7</in>
            <out>401.4</out>
            <start>191.70000000000002</start>
            <end>401.4</end>
            <file id="[일룸] 일룸모델 공유의 인터뷰영상.mp4">
              <name>[일룸] 일룸모델 공유의 인터뷰영상.mp4</name>
              <pathurl>C:\taehee\보따리\2021영상\data\movie\[일룸] 일룸모델 공유의 인터뷰영상.mp4</pathurl>
              <media>
                <video>
                  <samplecharacteristics>
                    <width>1280</width>
                    <height>720</height>
                    <anamorphic>true</anamorphic>
                    <pixelaspectratio>square</pixelaspectratio>
                    <fielddominance>none</fielddominance>
                  </samplecharacteristics>
                </video>
                <audio>
                  <in>0</in>
                  <out>3801.3</out>
                  <channelcount>2</channelcount>
                  <duration>3801.3</duration>
                </audio>
              </media>
            </file>
            <link>
              <mediatype>video</mediatype>
              <trackindex>1</trackindex>
              <clipindex>2</clipindex>
            </link>
            <link>
              <mediatype>audio</mediatype>
              <trackindex>1</trackindex>
              <clipindex>2</clipindex>
              <groupindex>2</groupindex>
            </link>
            <link>
              <mediatype>audio</mediatype>
              <trackindex>2</trackindex>
              <clipindex>2</clipindex>
              <groupindex>2</groupindex>
            </link>
          </clipitem>
          <clipitem>
            <name>[일룸] 일룸모델 공유의 인터뷰영상.mp4</name>
            <enabled>true</enabled>
            <rate>
              <timebase>30</timebase>
              <ntsc>false</ntsc>
            </rate>
            <in>401.40000000000003</in>
            <out>452.4</out>
            <start>401.4</start>
            <end>452.4</end>
            <file id="[일룸] 일룸모델 공유의 인터뷰영상.mp4">
              <name>[일룸] 일룸모델 공유의 인터뷰영상.mp4</name>
              <pathurl>C:\taehee\보따리\2021영상\data\movie\[일룸] 일룸모델 공유의 인터뷰영상.mp4</pathurl>
              <media>
                <video>
                  <samplecharacteristics>
                    <width>1280</width>
                    <height>720</height>
                    <anamorphic>true</anamorphic>
                    <pixelaspectratio>square</pixelaspectratio>
                    <fielddominance>none</fielddominance>
                  </samplecharacteristics>
                </video>
                <audio>
                  <in>0</in>
                  <out>3801.3</out>
                  <channelcount>2</channelcount>
                  <duration>3801.3</duration>
                </audio>
              </media>
            </file>
            <link>
              <mediatype>video</mediatype>
              <trackindex>1</trackindex>
              <clipindex>3</clipindex>
            </link>
            <link>
              <mediatype>audio</mediatype>
              <trackindex>1</trackindex>
              <clipindex>3</clipindex>
              <groupindex>3</groupindex>
            </link>
            <link>
              <mediatype>audio</mediatype>
              <trackindex>2</trackindex>
              <clipindex>3</clipindex>
              <groupindex>3</groupindex>
            </link>
          </clipitem>
          <clipitem>
            <name>[일룸] 일룸모델 공유의 인터뷰영상.mp4</name>
            <enabled>true</enabled>
            <rate>
              <timebase>30</timebase>
              <ntsc>false</ntsc>
            </rate>
            <in>452.4</in>
            <out>564.3</out>
            <start>452.4</start>
            <end>564.2999999999998</end>
            <file id="[일룸] 일룸모델 공유의 인터뷰영상.mp4">
              <name>[일룸] 일룸모델 공유의 인터뷰영상.mp4</name>
              <pathurl>C:\taehee\보따리\2021영상\data\movie\[일룸] 일룸모델 공유의 인터뷰영상.mp4</pathurl>
              <media>
                <video>
                  <samplecharacteristics>
                    <width>1280</width>
                    <height>720</height>
                    <anamorphic>true</anamorphic>
                    <pixelaspectratio>square</pixelaspectratio>
                    <fielddominance>none</fielddominance>
                  </samplecharacteristics>
                </video>
                <audio>
                  <in>0</in>
                  <out>3801.3</out>
                  <channelcount>2</channelcount>
                  <duration>3801.3</duration>
                </audio>
              </media>
            </file>
            <link>
              <mediatype>video</mediatype>
              <trackindex>1</trackindex>
              <clipindex>4</clipindex>
            </link>
            <link>
              <mediatype>audio</mediatype>
              <trackindex>1</trackindex>
              <clipindex>4</clipindex>
              <groupindex>4</groupindex>
            </link>
            <link>
              <mediatype>audio</mediatype>
              <trackindex>2</trackindex>
              <clipindex>4</clipindex>
              <groupindex>4</groupindex>
            </link>
          </clipitem>
          <clipitem>
            <name>[일룸] 일룸모델 공유의 인터뷰영상.mp4</name>
            <enabled>true</enabled>
            <rate>
              <timebase>30</timebase>
              <ntsc>false</ntsc>
            </rate>
            <in>564.3</in>
            <out>733.2</out>
            <start>564.2999999999998</start>
            <end>733.1999999999999</end>
            <file id="[일룸] 일룸모델 공유의 인터뷰영상.mp4">
              <name>[일룸] 일룸모델 공유의 인터뷰영상.mp4</name>
              <pathurl>C:\taehee\보따리\2021영상\data\movie\[일룸] 일룸모델 공유의 인터뷰영상.mp4</pathurl>
              <media>
                <video>
                  <samplecharacteristics>
                    <width>1280</width>
                    <height>720</height>
                    <anamorphic>true</anamorphic>
                    <pixelaspectratio>square</pixelaspectratio>
                    <fielddominance>none</fielddominance>
                  </samplecharacteristics>
                </video>
                <audio>
                  <in>0</in>
                  <out>3801.3</out>
                  <channelcount>2</channelcount>
                  <duration>3801.3</duration>
                </audio>
              </media>
            </file>
            <link>
              <mediatype>video</mediatype>
              <trackindex>1</trackindex>
              <clipindex>5</clipindex>
            </link>
            <link>
              <mediatype>audio</mediatype>
              <trackindex>1</trackindex>
              <clipindex>5</clipindex>
              <groupindex>5</groupindex>
            </link>
            <link>
              <mediatype>audio</mediatype>
              <trackindex>2</trackindex>
              <clipindex>5</clipindex>
              <groupindex>5</groupindex>
            </link>
          </clipitem>
          <clipitem>
            <name>[일룸] 일룸모델 공유의 인터뷰영상.mp4</name>
            <enabled>true</enabled>
            <rate>
              <timebase>30</timebase>
              <ntsc>false</ntsc>
            </rate>
            <in>733.2</in>
            <out>811.4999999999999</out>
            <start>733.1999999999999</start>
            <end>811.4999999999998</end>
            <file id="[일룸] 일룸모델 공유의 인터뷰영상.mp4">
              <name>[일룸] 일룸모델 공유의 인터뷰영상.mp4</name>
              <pathurl>C:\taehee\보따리\2021영상\data\movie\[일룸] 일룸모델 공유의 인터뷰영상.mp4</pathurl>
              <media>
                <video>
                  <samplecharacteristics>
                    <width>1280</width>
                    <height>720</height>
                    <anamorphic>true</anamorphic>
                    <pixelaspectratio>square</pixelaspectratio>
                    <fielddominance>none</fielddominance>
                  </samplecharacteristics>
                </video>
                <audio>
                  <in>0</in>
                  <out>3801.3</out>
                  <channelcount>2</channelcount>
                  <duration>3801.3</duration>
                </audio>
              </media>
            </file>
            <link>
              <mediatype>video</mediatype>
              <trackindex>1</trackindex>
              <clipindex>6</clipindex>
            </link>
            <link>
              <mediatype>audio</mediatype>
              <trackindex>1</trackindex>
              <clipindex>6</clipindex>
              <groupindex>6</groupindex>
            </link>
            <link>
              <mediatype>audio</mediatype>
              <trackindex>2</trackindex>
              <clipindex>6</clipindex>
              <groupindex>6</groupindex>
            </link>
          </clipitem>
          <clipitem>
            <name>[일룸] 일룸모델 공유의 인터뷰영상.mp4</name>
            <enabled>true</enabled>
            <rate>
              <timebase>30</timebase>
              <ntsc>false</ntsc>
            </rate>
            <in>811.5</in>
            <out>940.2</out>
            <start>811.4999999999998</start>
            <end>940.1999999999998</end>
            <file id="[일룸] 일룸모델 공유의 인터뷰영상.mp4">
              <name>[일룸] 일룸모델 공유의 인터뷰영상.mp4</name>
              <pathurl>C:\taehee\보따리\2021영상\data\movie\[일룸] 일룸모델 공유의 인터뷰영상.mp4</pathurl>
              <media>
                <video>
                  <samplecharacteristics>
                    <width>1280</width>
                    <height>720</height>
                    <anamorphic>true</anamorphic>
                    <pixelaspectratio>square</pixelaspectratio>
                    <fielddominance>none</fielddominance>
                  </samplecharacteristics>
                </video>
                <audio>
                  <in>0</in>
                  <out>3801.3</out>
                  <channelcount>2</channelcount>
                  <duration>3801.3</duration>
                </audio>
              </media>
            </file>
            <link>
              <mediatype>video</mediatype>
              <trackindex>1</trackindex>
              <clipindex>7</clipindex>
            </link>
            <link>
              <mediatype>audio</mediatype>
              <trackindex>1</trackindex>
              <clipindex>7</clipindex>
              <groupindex>7</groupindex>
            </link>
            <link>
              <mediatype>audio</mediatype>
              <trackindex>2</trackindex>
              <clipindex>7</clipindex>
              <groupindex>7</groupindex>
            </link>
          </clipitem>
          <clipitem>
            <name>[일룸] 일룸모델 공유의 인터뷰영상.mp4</name>
            <enabled>true</enabled>
            <rate>
              <timebase>30</timebase>
              <ntsc>false</ntsc>
            </rate>
            <in>940.2</in>
            <out>996.3000000000001</out>
            <start>940.1999999999998</start>
            <end>996.2999999999998</end>
            <file id="[일룸] 일룸모델 공유의 인터뷰영상.mp4">
              <name>[일룸] 일룸모델 공유의 인터뷰영상.mp4</name>
              <pathurl>C:\taehee\보따리\2021영상\data\movie\[일룸] 일룸모델 공유의 인터뷰영상.mp4</pathurl>
              <media>
                <video>
                  <samplecharacteristics>
                    <width>1280</width>
                    <height>720</height>
                    <anamorphic>true</anamorphic>
                    <pixelaspectratio>square</pixelaspectratio>
                    <fielddominance>none</fielddominance>
                  </samplecharacteristics>
                </video>
                <audio>
                  <in>0</in>
                  <out>3801.3</out>
                  <channelcount>2</channelcount>
                  <duration>3801.3</duration>
                </audio>
              </media>
            </file>
            <link>
              <mediatype>video</mediatype>
              <trackindex>1</trackindex>
              <clipindex>8</clipindex>
            </link>
            <link>
              <mediatype>audio</mediatype>
              <trackindex>1</trackindex>
              <clipindex>8</clipindex>
              <groupindex>8</groupindex>
            </link>
            <link>
              <mediatype>audio</mediatype>
              <trackindex>2</trackindex>
              <clipindex>8</clipindex>
              <groupindex>8</groupindex>
            </link>
          </clipitem>
          <clipitem>
            <name>[일룸] 일룸모델 공유의 인터뷰영상.mp4</name>
            <enabled>true</enabled>
            <rate>
              <timebase>30</timebase>
              <ntsc>false</ntsc>
            </rate>
            <in>996.3000000000001</in>
            <out>1072.8</out>
            <start>996.2999999999998</start>
            <end>1072.7999999999997</end>
            <file id="[일룸] 일룸모델 공유의 인터뷰영상.mp4">
              <name>[일룸] 일룸모델 공유의 인터뷰영상.mp4</name>
              <pathurl>C:\taehee\보따리\2021영상\data\movie\[일룸] 일룸모델 공유의 인터뷰영상.mp4</pathurl>
              <media>
                <video>
                  <samplecharacteristics>
                    <width>1280</width>
                    <height>720</height>
                    <anamorphic>true</anamorphic>
                    <pixelaspectratio>square</pixelaspectratio>
                    <fielddominance>none</fielddominance>
                  </samplecharacteristics>
                </video>
                <audio>
                  <in>0</in>
                  <out>3801.3</out>
                  <channelcount>2</channelcount>
                  <duration>3801.3</duration>
                </audio>
              </media>
            </file>
            <link>
              <mediatype>video</mediatype>
              <trackindex>1</trackindex>
              <clipindex>9</clipindex>
            </link>
            <link>
              <mediatype>audio</mediatype>
              <trackindex>1</trackindex>
              <clipindex>9</clipindex>
              <groupindex>9</groupindex>
            </link>
            <link>
              <mediatype>audio</mediatype>
              <trackindex>2</trackindex>
              <clipindex>9</clipindex>
              <groupindex>9</groupindex>
            </link>
          </clipitem>
          <clipitem>
            <name>[일룸] 일룸모델 공유의 인터뷰영상.mp4</name>
            <enabled>true</enabled>
            <rate>
              <timebase>30</timebase>
              <ntsc>false</ntsc>
            </rate>
            <in>1072.8</in>
            <out>1250.7</out>
            <start>1072.7999999999997</start>
            <end>1250.6999999999998</end>
            <file id="[일룸] 일룸모델 공유의 인터뷰영상.mp4">
              <name>[일룸] 일룸모델 공유의 인터뷰영상.mp4</name>
              <pathurl>C:\taehee\보따리\2021영상\data\movie\[일룸] 일룸모델 공유의 인터뷰영상.mp4</pathurl>
              <media>
                <video>
                  <samplecharacteristics>
                    <width>1280</width>
                    <height>720</height>
                    <anamorphic>true</anamorphic>
                    <pixelaspectratio>square</pixelaspectratio>
                    <fielddominance>none</fielddominance>
                  </samplecharacteristics>
                </video>
                <audio>
                  <in>0</in>
                  <out>3801.3</out>
                  <channelcount>2</channelcount>
                  <duration>3801.3</duration>
                </audio>
              </media>
            </file>
            <link>
              <mediatype>video</mediatype>
              <trackindex>1</trackindex>
              <clipindex>10</clipindex>
            </link>
            <link>
              <mediatype>audio</mediatype>
              <trackindex>1</trackindex>
              <clipindex>10</clipindex>
              <groupindex>10</groupindex>
            </link>
            <link>
              <mediatype>audio</mediatype>
              <trackindex>2</trackindex>
              <clipindex>10</clipindex>
              <groupindex>10</groupindex>
            </link>
          </clipitem>
          <clipitem>
            <name>[일룸] 일룸모델 공유의 인터뷰영상.mp4</name>
            <enabled>true</enabled>
            <rate>
              <timebase>30</timebase>
              <ntsc>false</ntsc>
            </rate>
            <in>1250.6999999999998</in>
            <out>1308.9</out>
            <start>1250.6999999999998</start>
            <end>1308.9</end>
            <file id="[일룸] 일룸모델 공유의 인터뷰영상.mp4">
              <name>[일룸] 일룸모델 공유의 인터뷰영상.mp4</name>
              <pathurl>C:\taehee\보따리\2021영상\data\movie\[일룸] 일룸모델 공유의 인터뷰영상.mp4</pathurl>
              <media>
                <video>
                  <samplecharacteristics>
                    <width>1280</width>
                    <height>720</height>
                    <anamorphic>true</anamorphic>
                    <pixelaspectratio>square</pixelaspectratio>
                    <fielddominance>none</fielddominance>
                  </samplecharacteristics>
                </video>
                <audio>
                  <in>0</in>
                  <out>3801.3</out>
                  <channelcount>2</channelcount>
                  <duration>3801.3</duration>
                </audio>
              </media>
            </file>
            <link>
              <mediatype>video</mediatype>
              <trackindex>1</trackindex>
              <clipindex>11</clipindex>
            </link>
            <link>
              <mediatype>audio</mediatype>
              <trackindex>1</trackindex>
              <clipindex>11</clipindex>
              <groupindex>11</groupindex>
            </link>
            <link>
              <mediatype>audio</mediatype>
              <trackindex>2</trackindex>
              <clipindex>11</clipindex>
              <groupindex>11</groupindex>
            </link>
          </clipitem>
          <clipitem>
            <name>[일룸] 일룸모델 공유의 인터뷰영상.mp4</name>
            <enabled>true</enabled>
            <rate>
              <timebase>30</timebase>
              <ntsc>false</ntsc>
            </rate>
            <in>1308.9</in>
            <out>1472.3999999999999</out>
            <start>1308.9</start>
            <end>1472.3999999999999</end>
            <file id="[일룸] 일룸모델 공유의 인터뷰영상.mp4">
              <name>[일룸] 일룸모델 공유의 인터뷰영상.mp4</name>
              <pathurl>C:\taehee\보따리\2021영상\data\movie\[일룸] 일룸모델 공유의 인터뷰영상.mp4</pathurl>
              <media>
                <video>
                  <samplecharacteristics>
                    <width>1280</width>
                    <height>720</height>
                    <anamorphic>true</anamorphic>
                    <pixelaspectratio>square</pixelaspectratio>
                    <fielddominance>none</fielddominance>
                  </samplecharacteristics>
                </video>
                <audio>
                  <in>0</in>
                  <out>3801.3</out>
                  <channelcount>2</channelcount>
                  <duration>3801.3</duration>
                </audio>
              </media>
            </file>
            <link>
              <mediatype>video</mediatype>
              <trackindex>1</trackindex>
              <clipindex>12</clipindex>
            </link>
            <link>
              <mediatype>audio</mediatype>
              <trackindex>1</trackindex>
              <clipindex>12</clipindex>
              <groupindex>12</groupindex>
            </link>
            <link>
              <mediatype>audio</mediatype>
              <trackindex>2</trackindex>
              <clipindex>12</clipindex>
              <groupindex>12</groupindex>
            </link>
          </clipitem>
          <clipitem>
            <name>[일룸] 일룸모델 공유의 인터뷰영상.mp4</name>
            <enabled>true</enabled>
            <rate>
              <timebase>30</timebase>
              <ntsc>false</ntsc>
            </rate>
            <in>1472.3999999999999</in>
            <out>1562.1</out>
            <start>1472.3999999999999</start>
            <end>1562.1</end>
            <file id="[일룸] 일룸모델 공유의 인터뷰영상.mp4">
              <name>[일룸] 일룸모델 공유의 인터뷰영상.mp4</name>
              <pathurl>C:\taehee\보따리\2021영상\data\movie\[일룸] 일룸모델 공유의 인터뷰영상.mp4</pathurl>
              <media>
                <video>
                  <samplecharacteristics>
                    <width>1280</width>
                    <height>720</height>
                    <anamorphic>true</anamorphic>
                    <pixelaspectratio>square</pixelaspectratio>
                    <fielddominance>none</fielddominance>
                  </samplecharacteristics>
                </video>
                <audio>
                  <in>0</in>
                  <out>3801.3</out>
                  <channelcount>2</channelcount>
                  <duration>3801.3</duration>
                </audio>
              </media>
            </file>
            <link>
              <mediatype>video</mediatype>
              <trackindex>1</trackindex>
              <clipindex>13</clipindex>
            </link>
            <link>
              <mediatype>audio</mediatype>
              <trackindex>1</trackindex>
              <clipindex>13</clipindex>
              <groupindex>13</groupindex>
            </link>
            <link>
              <mediatype>audio</mediatype>
              <trackindex>2</trackindex>
              <clipindex>13</clipindex>
              <groupindex>13</groupindex>
            </link>
          </clipitem>
          <clipitem>
            <name>[일룸] 일룸모델 공유의 인터뷰영상.mp4</name>
            <enabled>true</enabled>
            <rate>
              <timebase>30</timebase>
              <ntsc>false</ntsc>
            </rate>
            <in>1562.1</in>
            <out>1629.6</out>
            <start>1562.1</start>
            <end>1629.6</end>
            <file id="[일룸] 일룸모델 공유의 인터뷰영상.mp4">
              <name>[일룸] 일룸모델 공유의 인터뷰영상.mp4</name>
              <pathurl>C:\taehee\보따리\2021영상\data\movie\[일룸] 일룸모델 공유의 인터뷰영상.mp4</pathurl>
              <media>
                <video>
                  <samplecharacteristics>
                    <width>1280</width>
                    <height>720</height>
                    <anamorphic>true</anamorphic>
                    <pixelaspectratio>square</pixelaspectratio>
                    <fielddominance>none</fielddominance>
                  </samplecharacteristics>
                </video>
                <audio>
                  <in>0</in>
                  <out>3801.3</out>
                  <channelcount>2</channelcount>
                  <duration>3801.3</duration>
                </audio>
              </media>
            </file>
            <link>
              <mediatype>video</mediatype>
              <trackindex>1</trackindex>
              <clipindex>14</clipindex>
            </link>
            <link>
              <mediatype>audio</mediatype>
              <trackindex>1</trackindex>
              <clipindex>14</clipindex>
              <groupindex>14</groupindex>
            </link>
            <link>
              <mediatype>audio</mediatype>
              <trackindex>2</trackindex>
              <clipindex>14</clipindex>
              <groupindex>14</groupindex>
            </link>
          </clipitem>
          <clipitem>
            <name>[일룸] 일룸모델 공유의 인터뷰영상.mp4</name>
            <enabled>true</enabled>
            <rate>
              <timebase>30</timebase>
              <ntsc>false</ntsc>
            </rate>
            <in>1629.6</in>
            <out>1686.6</out>
            <start>1629.6</start>
            <end>1686.6</end>
            <file id="[일룸] 일룸모델 공유의 인터뷰영상.mp4">
              <name>[일룸] 일룸모델 공유의 인터뷰영상.mp4</name>
              <pathurl>C:\taehee\보따리\2021영상\data\movie\[일룸] 일룸모델 공유의 인터뷰영상.mp4</pathurl>
              <media>
                <video>
                  <samplecharacteristics>
                    <width>1280</width>
                    <height>720</height>
                    <anamorphic>true</anamorphic>
                    <pixelaspectratio>square</pixelaspectratio>
                    <fielddominance>none</fielddominance>
                  </samplecharacteristics>
                </video>
                <audio>
                  <in>0</in>
                  <out>3801.3</out>
                  <channelcount>2</channelcount>
                  <duration>3801.3</duration>
                </audio>
              </media>
            </file>
            <link>
              <mediatype>video</mediatype>
              <trackindex>1</trackindex>
              <clipindex>15</clipindex>
            </link>
            <link>
              <mediatype>audio</mediatype>
              <trackindex>1</trackindex>
              <clipindex>15</clipindex>
              <groupindex>15</groupindex>
            </link>
            <link>
              <mediatype>audio</mediatype>
              <trackindex>2</trackindex>
              <clipindex>15</clipindex>
              <groupindex>15</groupindex>
            </link>
          </clipitem>
          <clipitem>
            <name>[일룸] 일룸모델 공유의 인터뷰영상.mp4</name>
            <enabled>true</enabled>
            <rate>
              <timebase>30</timebase>
              <ntsc>false</ntsc>
            </rate>
            <in>1686.6</in>
            <out>1817.1</out>
            <start>1686.6</start>
            <end>1817.1</end>
            <file id="[일룸] 일룸모델 공유의 인터뷰영상.mp4">
              <name>[일룸] 일룸모델 공유의 인터뷰영상.mp4</name>
              <pathurl>C:\taehee\보따리\2021영상\data\movie\[일룸] 일룸모델 공유의 인터뷰영상.mp4</pathurl>
              <media>
                <video>
                  <samplecharacteristics>
                    <width>1280</width>
                    <height>720</height>
                    <anamorphic>true</anamorphic>
                    <pixelaspectratio>square</pixelaspectratio>
                    <fielddominance>none</fielddominance>
                  </samplecharacteristics>
                </video>
                <audio>
                  <in>0</in>
                  <out>3801.3</out>
                  <channelcount>2</channelcount>
                  <duration>3801.3</duration>
                </audio>
              </media>
            </file>
            <link>
              <mediatype>video</mediatype>
              <trackindex>1</trackindex>
              <clipindex>16</clipindex>
            </link>
            <link>
              <mediatype>audio</mediatype>
              <trackindex>1</trackindex>
              <clipindex>16</clipindex>
              <groupindex>16</groupindex>
            </link>
            <link>
              <mediatype>audio</mediatype>
              <trackindex>2</trackindex>
              <clipindex>16</clipindex>
              <groupindex>16</groupindex>
            </link>
          </clipitem>
          <clipitem>
            <name>[일룸] 일룸모델 공유의 인터뷰영상.mp4</name>
            <enabled>true</enabled>
            <rate>
              <timebase>30</timebase>
              <ntsc>false</ntsc>
            </rate>
            <in>1817.1</in>
            <out>1888.1999999999998</out>
            <start>1817.1</start>
            <end>1888.1999999999998</end>
            <file id="[일룸] 일룸모델 공유의 인터뷰영상.mp4">
              <name>[일룸] 일룸모델 공유의 인터뷰영상.mp4</name>
              <pathurl>C:\taehee\보따리\2021영상\data\movie\[일룸] 일룸모델 공유의 인터뷰영상.mp4</pathurl>
              <media>
                <video>
                  <samplecharacteristics>
                    <width>1280</width>
                    <height>720</height>
                    <anamorphic>true</anamorphic>
                    <pixelaspectratio>square</pixelaspectratio>
                    <fielddominance>none</fielddominance>
                  </samplecharacteristics>
                </video>
                <audio>
                  <in>0</in>
                  <out>3801.3</out>
                  <channelcount>2</channelcount>
                  <duration>3801.3</duration>
                </audio>
              </media>
            </file>
            <link>
              <mediatype>video</mediatype>
              <trackindex>1</trackindex>
              <clipindex>17</clipindex>
            </link>
            <link>
              <mediatype>audio</mediatype>
              <trackindex>1</trackindex>
              <clipindex>17</clipindex>
              <groupindex>17</groupindex>
            </link>
            <link>
              <mediatype>audio</mediatype>
              <trackindex>2</trackindex>
              <clipindex>17</clipindex>
              <groupindex>17</groupindex>
            </link>
          </clipitem>
          <clipitem>
            <name>[일룸] 일룸모델 공유의 인터뷰영상.mp4</name>
            <enabled>true</enabled>
            <rate>
              <timebase>30</timebase>
              <ntsc>false</ntsc>
            </rate>
            <in>1888.1999999999998</in>
            <out>1962.0000000000002</out>
            <start>1888.1999999999998</start>
            <end>1962.0000000000002</end>
            <file id="[일룸] 일룸모델 공유의 인터뷰영상.mp4">
              <name>[일룸] 일룸모델 공유의 인터뷰영상.mp4</name>
              <pathurl>C:\taehee\보따리\2021영상\data\movie\[일룸] 일룸모델 공유의 인터뷰영상.mp4</pathurl>
              <media>
                <video>
                  <samplecharacteristics>
                    <width>1280</width>
                    <height>720</height>
                    <anamorphic>true</anamorphic>
                    <pixelaspectratio>square</pixelaspectratio>
                    <fielddominance>none</fielddominance>
                  </samplecharacteristics>
                </video>
                <audio>
                  <in>0</in>
                  <out>3801.3</out>
                  <channelcount>2</channelcount>
                  <duration>3801.3</duration>
                </audio>
              </media>
            </file>
            <link>
              <mediatype>video</mediatype>
              <trackindex>1</trackindex>
              <clipindex>18</clipindex>
            </link>
            <link>
              <mediatype>audio</mediatype>
              <trackindex>1</trackindex>
              <clipindex>18</clipindex>
              <groupindex>18</groupindex>
            </link>
            <link>
              <mediatype>audio</mediatype>
              <trackindex>2</trackindex>
              <clipindex>18</clipindex>
              <groupindex>18</groupindex>
            </link>
          </clipitem>
          <clipitem>
            <name>[일룸] 일룸모델 공유의 인터뷰영상.mp4</name>
            <enabled>true</enabled>
            <rate>
              <timebase>30</timebase>
              <ntsc>false</ntsc>
            </rate>
            <in>1962.0000000000002</in>
            <out>2074.5</out>
            <start>1962.0000000000002</start>
            <end>2074.5</end>
            <file id="[일룸] 일룸모델 공유의 인터뷰영상.mp4">
              <name>[일룸] 일룸모델 공유의 인터뷰영상.mp4</name>
              <pathurl>C:\taehee\보따리\2021영상\data\movie\[일룸] 일룸모델 공유의 인터뷰영상.mp4</pathurl>
              <media>
                <video>
                  <samplecharacteristics>
                    <width>1280</width>
                    <height>720</height>
                    <anamorphic>true</anamorphic>
                    <pixelaspectratio>square</pixelaspectratio>
                    <fielddominance>none</fielddominance>
                  </samplecharacteristics>
                </video>
                <audio>
                  <in>0</in>
                  <out>3801.3</out>
                  <channelcount>2</channelcount>
                  <duration>3801.3</duration>
                </audio>
              </media>
            </file>
            <link>
              <mediatype>video</mediatype>
              <trackindex>1</trackindex>
              <clipindex>19</clipindex>
            </link>
            <link>
              <mediatype>audio</mediatype>
              <trackindex>1</trackindex>
              <clipindex>19</clipindex>
              <groupindex>19</groupindex>
            </link>
            <link>
              <mediatype>audio</mediatype>
              <trackindex>2</trackindex>
              <clipindex>19</clipindex>
              <groupindex>19</groupindex>
            </link>
          </clipitem>
          <clipitem>
            <name>[일룸] 일룸모델 공유의 인터뷰영상.mp4</name>
            <enabled>true</enabled>
            <rate>
              <timebase>30</timebase>
              <ntsc>false</ntsc>
            </rate>
            <in>2074.5</in>
            <out>2196.8999999999996</out>
            <start>2074.5</start>
            <end>2196.8999999999996</end>
            <file id="[일룸] 일룸모델 공유의 인터뷰영상.mp4">
              <name>[일룸] 일룸모델 공유의 인터뷰영상.mp4</name>
              <pathurl>C:\taehee\보따리\2021영상\data\movie\[일룸] 일룸모델 공유의 인터뷰영상.mp4</pathurl>
              <media>
                <video>
                  <samplecharacteristics>
                    <width>1280</width>
                    <height>720</height>
                    <anamorphic>true</anamorphic>
                    <pixelaspectratio>square</pixelaspectratio>
                    <fielddominance>none</fielddominance>
                  </samplecharacteristics>
                </video>
                <audio>
                  <in>0</in>
                  <out>3801.3</out>
                  <channelcount>2</channelcount>
                  <duration>3801.3</duration>
                </audio>
              </media>
            </file>
            <link>
              <mediatype>video</mediatype>
              <trackindex>1</trackindex>
              <clipindex>20</clipindex>
            </link>
            <link>
              <mediatype>audio</mediatype>
              <trackindex>1</trackindex>
              <clipindex>20</clipindex>
              <groupindex>20</groupindex>
            </link>
            <link>
              <mediatype>audio</mediatype>
              <trackindex>2</trackindex>
              <clipindex>20</clipindex>
              <groupindex>20</groupindex>
            </link>
          </clipitem>
          <clipitem>
            <name>[일룸] 일룸모델 공유의 인터뷰영상.mp4</name>
            <enabled>true</enabled>
            <rate>
              <timebase>30</timebase>
              <ntsc>false</ntsc>
            </rate>
            <in>2196.9</in>
            <out>2496.8999999999996</out>
            <start>2196.8999999999996</start>
            <end>2496.899999999999</end>
            <file id="[일룸] 일룸모델 공유의 인터뷰영상.mp4">
              <name>[일룸] 일룸모델 공유의 인터뷰영상.mp4</name>
              <pathurl>C:\taehee\보따리\2021영상\data\movie\[일룸] 일룸모델 공유의 인터뷰영상.mp4</pathurl>
              <media>
                <video>
                  <samplecharacteristics>
                    <width>1280</width>
                    <height>720</height>
                    <anamorphic>true</anamorphic>
                    <pixelaspectratio>square</pixelaspectratio>
                    <fielddominance>none</fielddominance>
                  </samplecharacteristics>
                </video>
                <audio>
                  <in>0</in>
                  <out>3801.3</out>
                  <channelcount>2</channelcount>
                  <duration>3801.3</duration>
                </audio>
              </media>
            </file>
            <link>
              <mediatype>video</mediatype>
              <trackindex>1</trackindex>
              <clipindex>21</clipindex>
            </link>
            <link>
              <mediatype>audio</mediatype>
              <trackindex>1</trackindex>
              <clipindex>21</clipindex>
              <groupindex>21</groupindex>
            </link>
            <link>
              <mediatype>audio</mediatype>
              <trackindex>2</trackindex>
              <clipindex>21</clipindex>
              <groupindex>21</groupindex>
            </link>
          </clipitem>
          <clipitem>
            <name>[일룸] 일룸모델 공유의 인터뷰영상.mp4</name>
            <enabled>true</enabled>
            <rate>
              <timebase>30</timebase>
              <ntsc>false</ntsc>
            </rate>
            <in>2496.9</in>
            <out>2613</out>
            <start>2496.899999999999</start>
            <end>2612.999999999999</end>
            <file id="[일룸] 일룸모델 공유의 인터뷰영상.mp4">
              <name>[일룸] 일룸모델 공유의 인터뷰영상.mp4</name>
              <pathurl>C:\taehee\보따리\2021영상\data\movie\[일룸] 일룸모델 공유의 인터뷰영상.mp4</pathurl>
              <media>
                <video>
                  <samplecharacteristics>
                    <width>1280</width>
                    <height>720</height>
                    <anamorphic>true</anamorphic>
                    <pixelaspectratio>square</pixelaspectratio>
                    <fielddominance>none</fielddominance>
                  </samplecharacteristics>
                </video>
                <audio>
                  <in>0</in>
                  <out>3801.3</out>
                  <channelcount>2</channelcount>
                  <duration>3801.3</duration>
                </audio>
              </media>
            </file>
            <link>
              <mediatype>video</mediatype>
              <trackindex>1</trackindex>
              <clipindex>22</clipindex>
            </link>
            <link>
              <mediatype>audio</mediatype>
              <trackindex>1</trackindex>
              <clipindex>22</clipindex>
              <groupindex>22</groupindex>
            </link>
            <link>
              <mediatype>audio</mediatype>
              <trackindex>2</trackindex>
              <clipindex>22</clipindex>
              <groupindex>22</groupindex>
            </link>
          </clipitem>
          <clipitem>
            <name>[일룸] 일룸모델 공유의 인터뷰영상.mp4</name>
            <enabled>true</enabled>
            <rate>
              <timebase>30</timebase>
              <ntsc>false</ntsc>
            </rate>
            <in>2613</in>
            <out>2697.8999999999996</out>
            <start>2612.999999999999</start>
            <end>2697.8999999999987</end>
            <file id="[일룸] 일룸모델 공유의 인터뷰영상.mp4">
              <name>[일룸] 일룸모델 공유의 인터뷰영상.mp4</name>
              <pathurl>C:\taehee\보따리\2021영상\data\movie\[일룸] 일룸모델 공유의 인터뷰영상.mp4</pathurl>
              <media>
                <video>
                  <samplecharacteristics>
                    <width>1280</width>
                    <height>720</height>
                    <anamorphic>true</anamorphic>
                    <pixelaspectratio>square</pixelaspectratio>
                    <fielddominance>none</fielddominance>
                  </samplecharacteristics>
                </video>
                <audio>
                  <in>0</in>
                  <out>3801.3</out>
                  <channelcount>2</channelcount>
                  <duration>3801.3</duration>
                </audio>
              </media>
            </file>
            <link>
              <mediatype>video</mediatype>
              <trackindex>1</trackindex>
              <clipindex>23</clipindex>
            </link>
            <link>
              <mediatype>audio</mediatype>
              <trackindex>1</trackindex>
              <clipindex>23</clipindex>
              <groupindex>23</groupindex>
            </link>
            <link>
              <mediatype>audio</mediatype>
              <trackindex>2</trackindex>
              <clipindex>23</clipindex>
              <groupindex>23</groupindex>
            </link>
          </clipitem>
          <clipitem>
            <name>[일룸] 일룸모델 공유의 인터뷰영상.mp4</name>
            <enabled>true</enabled>
            <rate>
              <timebase>30</timebase>
              <ntsc>false</ntsc>
            </rate>
            <in>2697.9</in>
            <out>2790</out>
            <start>2697.8999999999987</start>
            <end>2789.9999999999986</end>
            <file id="[일룸] 일룸모델 공유의 인터뷰영상.mp4">
              <name>[일룸] 일룸모델 공유의 인터뷰영상.mp4</name>
              <pathurl>C:\taehee\보따리\2021영상\data\movie\[일룸] 일룸모델 공유의 인터뷰영상.mp4</pathurl>
              <media>
                <video>
                  <samplecharacteristics>
                    <width>1280</width>
                    <height>720</height>
                    <anamorphic>true</anamorphic>
                    <pixelaspectratio>square</pixelaspectratio>
                    <fielddominance>none</fielddominance>
                  </samplecharacteristics>
                </video>
                <audio>
                  <in>0</in>
                  <out>3801.3</out>
                  <channelcount>2</channelcount>
                  <duration>3801.3</duration>
                </audio>
              </media>
            </file>
            <link>
              <mediatype>video</mediatype>
              <trackindex>1</trackindex>
              <clipindex>24</clipindex>
            </link>
            <link>
              <mediatype>audio</mediatype>
              <trackindex>1</trackindex>
              <clipindex>24</clipindex>
              <groupindex>24</groupindex>
            </link>
            <link>
              <mediatype>audio</mediatype>
              <trackindex>2</trackindex>
              <clipindex>24</clipindex>
              <groupindex>24</groupindex>
            </link>
          </clipitem>
          <clipitem>
            <name>[일룸] 일룸모델 공유의 인터뷰영상.mp4</name>
            <enabled>true</enabled>
            <rate>
              <timebase>30</timebase>
              <ntsc>false</ntsc>
            </rate>
            <in>2790</in>
            <out>3024.9</out>
            <start>2789.9999999999986</start>
            <end>3024.8999999999987</end>
            <file id="[일룸] 일룸모델 공유의 인터뷰영상.mp4">
              <name>[일룸] 일룸모델 공유의 인터뷰영상.mp4</name>
              <pathurl>C:\taehee\보따리\2021영상\data\movie\[일룸] 일룸모델 공유의 인터뷰영상.mp4</pathurl>
              <media>
                <video>
                  <samplecharacteristics>
                    <width>1280</width>
                    <height>720</height>
                    <anamorphic>true</anamorphic>
                    <pixelaspectratio>square</pixelaspectratio>
                    <fielddominance>none</fielddominance>
                  </samplecharacteristics>
                </video>
                <audio>
                  <in>0</in>
                  <out>3801.3</out>
                  <channelcount>2</channelcount>
                  <duration>3801.3</duration>
                </audio>
              </media>
            </file>
            <link>
              <mediatype>video</mediatype>
              <trackindex>1</trackindex>
              <clipindex>25</clipindex>
            </link>
            <link>
              <mediatype>audio</mediatype>
              <trackindex>1</trackindex>
              <clipindex>25</clipindex>
              <groupindex>25</groupindex>
            </link>
            <link>
              <mediatype>audio</mediatype>
              <trackindex>2</trackindex>
              <clipindex>25</clipindex>
              <groupindex>25</groupindex>
            </link>
          </clipitem>
          <clipitem>
            <name>[일룸] 일룸모델 공유의 인터뷰영상.mp4</name>
            <enabled>true</enabled>
            <rate>
              <timebase>30</timebase>
              <ntsc>false</ntsc>
            </rate>
            <in>3024.9</in>
            <out>3122.4</out>
            <start>3024.8999999999987</start>
            <end>3122.3999999999987</end>
            <file id="[일룸] 일룸모델 공유의 인터뷰영상.mp4">
              <name>[일룸] 일룸모델 공유의 인터뷰영상.mp4</name>
              <pathurl>C:\taehee\보따리\2021영상\data\movie\[일룸] 일룸모델 공유의 인터뷰영상.mp4</pathurl>
              <media>
                <video>
                  <samplecharacteristics>
                    <width>1280</width>
                    <height>720</height>
                    <anamorphic>true</anamorphic>
                    <pixelaspectratio>square</pixelaspectratio>
                    <fielddominance>none</fielddominance>
                  </samplecharacteristics>
                </video>
                <audio>
                  <in>0</in>
                  <out>3801.3</out>
                  <channelcount>2</channelcount>
                  <duration>3801.3</duration>
                </audio>
              </media>
            </file>
            <link>
              <mediatype>video</mediatype>
              <trackindex>1</trackindex>
              <clipindex>26</clipindex>
            </link>
            <link>
              <mediatype>audio</mediatype>
              <trackindex>1</trackindex>
              <clipindex>26</clipindex>
              <groupindex>26</groupindex>
            </link>
            <link>
              <mediatype>audio</mediatype>
              <trackindex>2</trackindex>
              <clipindex>26</clipindex>
              <groupindex>26</groupindex>
            </link>
          </clipitem>
          <clipitem>
            <name>[일룸] 일룸모델 공유의 인터뷰영상.mp4</name>
            <enabled>true</enabled>
            <rate>
              <timebase>30</timebase>
              <ntsc>false</ntsc>
            </rate>
            <in>3122.4</in>
            <out>3227.1</out>
            <start>3122.3999999999987</start>
            <end>3227.0999999999985</end>
            <file id="[일룸] 일룸모델 공유의 인터뷰영상.mp4">
              <name>[일룸] 일룸모델 공유의 인터뷰영상.mp4</name>
              <pathurl>C:\taehee\보따리\2021영상\data\movie\[일룸] 일룸모델 공유의 인터뷰영상.mp4</pathurl>
              <media>
                <video>
                  <samplecharacteristics>
                    <width>1280</width>
                    <height>720</height>
                    <anamorphic>true</anamorphic>
                    <pixelaspectratio>square</pixelaspectratio>
                    <fielddominance>none</fielddominance>
                  </samplecharacteristics>
                </video>
                <audio>
                  <in>0</in>
                  <out>3801.3</out>
                  <channelcount>2</channelcount>
                  <duration>3801.3</duration>
                </audio>
              </media>
            </file>
            <link>
              <mediatype>video</mediatype>
              <trackindex>1</trackindex>
              <clipindex>27</clipindex>
            </link>
            <link>
              <mediatype>audio</mediatype>
              <trackindex>1</trackindex>
              <clipindex>27</clipindex>
              <groupindex>27</groupindex>
            </link>
            <link>
              <mediatype>audio</mediatype>
              <trackindex>2</trackindex>
              <clipindex>27</clipindex>
              <groupindex>27</groupindex>
            </link>
          </clipitem>
          <clipitem>
            <name>[일룸] 일룸모델 공유의 인터뷰영상.mp4</name>
            <enabled>true</enabled>
            <rate>
              <timebase>30</timebase>
              <ntsc>false</ntsc>
            </rate>
            <in>3227.1</in>
            <out>3298.5</out>
            <start>3227.0999999999985</start>
            <end>3298.4999999999986</end>
            <file id="[일룸] 일룸모델 공유의 인터뷰영상.mp4">
              <name>[일룸] 일룸모델 공유의 인터뷰영상.mp4</name>
              <pathurl>C:\taehee\보따리\2021영상\data\movie\[일룸] 일룸모델 공유의 인터뷰영상.mp4</pathurl>
              <media>
                <video>
                  <samplecharacteristics>
                    <width>1280</width>
                    <height>720</height>
                    <anamorphic>true</anamorphic>
                    <pixelaspectratio>square</pixelaspectratio>
                    <fielddominance>none</fielddominance>
                  </samplecharacteristics>
                </video>
                <audio>
                  <in>0</in>
                  <out>3801.3</out>
                  <channelcount>2</channelcount>
                  <duration>3801.3</duration>
                </audio>
              </media>
            </file>
            <link>
              <mediatype>video</mediatype>
              <trackindex>1</trackindex>
              <clipindex>28</clipindex>
            </link>
            <link>
              <mediatype>audio</mediatype>
              <trackindex>1</trackindex>
              <clipindex>28</clipindex>
              <groupindex>28</groupindex>
            </link>
            <link>
              <mediatype>audio</mediatype>
              <trackindex>2</trackindex>
              <clipindex>28</clipindex>
              <groupindex>28</groupindex>
            </link>
          </clipitem>
          <clipitem>
            <name>[일룸] 일룸모델 공유의 인터뷰영상.mp4</name>
            <enabled>true</enabled>
            <rate>
              <timebase>30</timebase>
              <ntsc>false</ntsc>
            </rate>
            <in>3298.5</in>
            <out>3411.2999999999997</out>
            <start>3298.4999999999986</start>
            <end>3411.2999999999984</end>
            <file id="[일룸] 일룸모델 공유의 인터뷰영상.mp4">
              <name>[일룸] 일룸모델 공유의 인터뷰영상.mp4</name>
              <pathurl>C:\taehee\보따리\2021영상\data\movie\[일룸] 일룸모델 공유의 인터뷰영상.mp4</pathurl>
              <media>
                <video>
                  <samplecharacteristics>
                    <width>1280</width>
                    <height>720</height>
                    <anamorphic>true</anamorphic>
                    <pixelaspectratio>square</pixelaspectratio>
                    <fielddominance>none</fielddominance>
                  </samplecharacteristics>
                </video>
                <audio>
                  <in>0</in>
                  <out>3801.3</out>
                  <channelcount>2</channelcount>
                  <duration>3801.3</duration>
                </audio>
              </media>
            </file>
            <link>
              <mediatype>video</mediatype>
              <trackindex>1</trackindex>
              <clipindex>29</clipindex>
            </link>
            <link>
              <mediatype>audio</mediatype>
              <trackindex>1</trackindex>
              <clipindex>29</clipindex>
              <groupindex>29</groupindex>
            </link>
            <link>
              <mediatype>audio</mediatype>
              <trackindex>2</trackindex>
              <clipindex>29</clipindex>
              <groupindex>29</groupindex>
            </link>
          </clipitem>
          <clipitem>
            <name>[일룸] 일룸모델 공유의 인터뷰영상.mp4</name>
            <enabled>true</enabled>
            <rate>
              <timebase>30</timebase>
              <ntsc>false</ntsc>
            </rate>
            <in>3411.2999999999997</in>
            <out>3455.3999999999996</out>
            <start>3411.2999999999984</start>
            <end>3455.3999999999987</end>
            <file id="[일룸] 일룸모델 공유의 인터뷰영상.mp4">
              <name>[일룸] 일룸모델 공유의 인터뷰영상.mp4</name>
              <pathurl>C:\taehee\보따리\2021영상\data\movie\[일룸] 일룸모델 공유의 인터뷰영상.mp4</pathurl>
              <media>
                <video>
                  <samplecharacteristics>
                    <width>1280</width>
                    <height>720</height>
                    <anamorphic>true</anamorphic>
                    <pixelaspectratio>square</pixelaspectratio>
                    <fielddominance>none</fielddominance>
                  </samplecharacteristics>
                </video>
                <audio>
                  <in>0</in>
                  <out>3801.3</out>
                  <channelcount>2</channelcount>
                  <duration>3801.3</duration>
                </audio>
              </media>
            </file>
            <link>
              <mediatype>video</mediatype>
              <trackindex>1</trackindex>
              <clipindex>30</clipindex>
            </link>
            <link>
              <mediatype>audio</mediatype>
              <trackindex>1</trackindex>
              <clipindex>30</clipindex>
              <groupindex>30</groupindex>
            </link>
            <link>
              <mediatype>audio</mediatype>
              <trackindex>2</trackindex>
              <clipindex>30</clipindex>
              <groupindex>30</groupindex>
            </link>
          </clipitem>
          <clipitem>
            <name>[일룸] 일룸모델 공유의 인터뷰영상.mp4</name>
            <enabled>true</enabled>
            <rate>
              <timebase>30</timebase>
              <ntsc>false</ntsc>
            </rate>
            <in>3455.4</in>
            <out>3801.2999999999997</out>
            <start>3455.3999999999987</start>
            <end>3801.299999999998</end>
            <file id="[일룸] 일룸모델 공유의 인터뷰영상.mp4">
              <name>[일룸] 일룸모델 공유의 인터뷰영상.mp4</name>
              <pathurl>C:\taehee\보따리\2021영상\data\movie\[일룸] 일룸모델 공유의 인터뷰영상.mp4</pathurl>
              <media>
                <video>
                  <samplecharacteristics>
                    <width>1280</width>
                    <height>720</height>
                    <anamorphic>true</anamorphic>
                    <pixelaspectratio>square</pixelaspectratio>
                    <fielddominance>none</fielddominance>
                  </samplecharacteristics>
                </video>
                <audio>
                  <in>0</in>
                  <out>3801.3</out>
                  <channelcount>2</channelcount>
                  <duration>3801.3</duration>
                </audio>
              </media>
            </file>
            <link>
              <mediatype>video</mediatype>
              <trackindex>1</trackindex>
              <clipindex>31</clipindex>
            </link>
            <link>
              <mediatype>audio</mediatype>
              <trackindex>1</trackindex>
              <clipindex>31</clipindex>
              <groupindex>31</groupindex>
            </link>
            <link>
              <mediatype>audio</mediatype>
              <trackindex>2</trackindex>
              <clipindex>31</clipindex>
              <groupindex>31</groupindex>
            </link>
          </clipitem>
        </track>
        <track>
          <generatoritem id="Outline Text1">
            <name>Outline Text</name>
            <duration>3801.3</duration>
            <rate>
              <timebase>30</timebase>
              <ntsc>false</ntsc>
            </rate>
            <start>0</start>
            <end>191.70000000000002</end>
            <in>0</in>
            <out>191.70000000000002</out>
            <enabled>true</enabled>
            <anamorphic>false</anamorphic>
            <alphatype>black</alphatype>
            <masterclipid>Outline Text1</masterclipid>
            <effect>
              <name>Outline Text</name>
              <effectid>Outline Text</effectid>
              <effectcategory>Text</effectcategory>
              <effecttype>generator</effecttype>
              <mediatype>video</mediatype>
              <parameter>
                <parameterid>part1</parameterid>
                <name>Text Settings</name>
                <value/>
              </parameter>
              <parameter>
                <parameterid>str</parameterid>
                <name>Text</name>
                <value>안녕하세요 일룸 모델 배우 공유 입니다</value>
              </parameter>
              <parameter>
                <parameterid>font</parameterid>
                <name>Font</name>
                <value>MalgunGothicBold</value>
              </parameter>
              <parameter>
                <parameterid>style</parameterid>
                <name>Style</name>
                <valuemin>1</valuemin>
                <valuemax>1</valuemax>
                <valuelist>
                  <valueentry>
                    <name>Regular</name>
                    <value>1</value>
                  </valueentry>
                </valuelist>
                <value>1</value>
              </parameter>
              <parameter>
                <parameterid>align</parameterid>
                <name>Alignment</name>
                <valuemin>1</valuemin>
                <valuemax>3</valuemax>
                <valuelist>
                  <valueentry>
                    <name>Left</name>
                    <value>1</value>
                  </valueentry>
                  <valueentry>
                    <name>Center</name>
                    <value>2</value>
                  </valueentry>
                  <valueentry>
                    <name>Right</name>
                    <value>3</value>
                  </valueentry>
                </valuelist>
                <value>2</value>
              </parameter>
              <parameter>
                <parameterid>size</parameterid>
                <name>Size</name>
                <valuemin>0</valuemin>
                <valuemax>200</valuemax>
                <value>24</value>
              </parameter>
              <parameter>
                <parameterid>track</parameterid>
                <name>Tracking</name>
                <valuemin>0</valuemin>
                <valuemax>100</valuemax>
                <value>1</value>
              </parameter>
              <parameter>
                <parameterid>lead</parameterid>
                <name>Leading</name>
                <valuemin>-100</valuemin>
                <valuemax>100</valuemax>
                <value>0</value>
              </parameter>
              <parameter>
                <parameterid>aspect</parameterid>
                <name>Aspect</name>
                <valuemin>0</valuemin>
                <valuemax>4</valuemax>
                <value>1</value>
              </parameter>
              <parameter>
                <parameterid>linewidth</parameterid>
                <name>Line Width</name>
                <valuemin>0</valuemin>
                <valuemax>200</valuemax>
                <value>2</value>
              </parameter>
              <parameter>
                <parameterid>linesoft</parameterid>
                <name>Line Softness</name>
                <valuemin>0</valuemin>
                <valuemax>100</valuemax>
                <value>5</value>
              </parameter>
              <parameter>
                <parameterid>textopacity</parameterid>
                <name>Text Opacity</name>
                <valuemin>0</valuemin>
                <valuemax>100</valuemax>
                <value>100</value>
              </parameter>
              <parameter>
                <parameterid>center</parameterid>
                <name>Center</name>
                <value>
                  <horiz>0</horiz>
                  <vert>0.42592592592592593</vert>
                </value>
              </parameter>
              <parameter>
                <parameterid>textcolor</parameterid>
                <name>Text Color</name>
                <value>
                  <alpha>255</alpha>
                  <red>255</red>
                  <green>255</green>
                  <blue>255</blue>
                </value>
              </parameter>
              <parameter>
                <parameterid>supertext</parameterid>
                <name>Text Graphic</name>
              </parameter>
              <parameter>
                <parameterid>linecolor</parameterid>
                <name>Line Color</name>
                <value>
                  <alpha>255</alpha>
                  <red>0</red>
                  <green>0</green>
                  <blue>0</blue>
                </value>
              </parameter>
              <parameter>
                <parameterid>superline</parameterid>
                <name>Line Graphic</name>
              </parameter>
              <parameter>
                <parameterid>part2</parameterid>
                <name>Background Settings</name>
                <value/>
              </parameter>
              <parameter>
                <parameterid>xscale</parameterid>
                <name>Horizontal Size</name>
                <valuemin>0</valuemin>
                <valuemax>200</valuemax>
                <value>0</value>
              </parameter>
              <parameter>
                <parameterid>yscale</parameterid>
                <name>Vertical Size</name>
                <valuemin>0</valuemin>
                <valuemax>200</valuemax>
                <value>0</value>
              </parameter>
              <parameter>
                <parameterid>xoffset</parameterid>
                <name>Horizontal Offset</name>
                <valuemin>-100</valuemin>
                <valuemax>100</valuemax>
                <value>0</value>
              </parameter>
              <parameter>
                <parameterid>yoffset</parameterid>
                <name>Vertical Offset</name>
                <valuemin>-100</valuemin>
                <valuemax>100</valuemax>
                <value>0</value>
              </parameter>
              <parameter>
                <parameterid>backsoft</parameterid>
                <name>Back Soft</name>
                <valuemin>0</valuemin>
                <valuemax>100</valuemax>
                <value>0</value>
              </parameter>
              <parameter>
                <parameterid>backopacity</parameterid>
                <name>Back Opacity</name>
                <valuemin>0</valuemin>
                <valuemax>100</valuemax>
                <value>50</value>
              </parameter>
              <parameter>
                <parameterid>backcolor</parameterid>
                <name>Back Color</name>
                <value>
                  <alpha>255</alpha>
                  <red>255</red>
                  <green>255</green>
                  <blue>255</blue>
                </value>
              </parameter>
              <parameter>
                <parameterid>superback</parameterid>
                <name>Back Graphic</name>
              </parameter>
              <parameter>
                <parameterid>crop</parameterid>
                <name>Crop</name>
                <value>false</value>
              </parameter>
              <parameter>
                <parameterid>autokern</parameterid>
                <name>Auto Kerning</name>
                <value>true</value>
              </parameter>
            </effect>
            <sourcetrack>
              <mediatype>video</mediatype>
            </sourcetrack>
          </generatoritem>
          <generatoritem id="Outline Text1">
            <name>Outline Text</name>
            <duration>3801.3</duration>
            <rate>
              <timebase>30</timebase>
              <ntsc>false</ntsc>
            </rate>
            <start>191.70000000000002</start>
            <end>401.4</end>
            <in>191.70000000000002</in>
            <out>401.4</out>
            <enabled>true</enabled>
            <anamorphic>false</anamorphic>
            <alphatype>black</alphatype>
            <masterclipid>Outline Text1</masterclipid>
            <effect>
              <name>Outline Text</name>
              <effectid>Outline Text</effectid>
              <effectcategory>Text</effectcategory>
              <effecttype>generator</effecttype>
              <mediatype>video</mediatype>
              <parameter>
                <parameterid>part1</parameterid>
                <name>Text Settings</name>
                <value/>
              </parameter>
              <parameter>
                <parameterid>str</parameterid>
                <name>Text</name>
                <value>이렇게 다시 만나게 되어서 너무 반갑습니다 안녕하세요</value>
              </parameter>
              <parameter>
                <parameterid>font</parameterid>
                <name>Font</name>
                <value>MalgunGothicBold</value>
              </parameter>
              <parameter>
                <parameterid>style</parameterid>
                <name>Style</name>
                <valuemin>1</valuemin>
                <valuemax>1</valuemax>
                <valuelist>
                  <valueentry>
                    <name>Regular</name>
                    <value>1</value>
                  </valueentry>
                </valuelist>
                <value>1</value>
              </parameter>
              <parameter>
                <parameterid>align</parameterid>
                <name>Alignment</name>
                <valuemin>1</valuemin>
                <valuemax>3</valuemax>
                <valuelist>
                  <valueentry>
                    <name>Left</name>
                    <value>1</value>
                  </valueentry>
                  <valueentry>
                    <name>Center</name>
                    <value>2</value>
                  </valueentry>
                  <valueentry>
                    <name>Right</name>
                    <value>3</value>
                  </valueentry>
                </valuelist>
                <value>2</value>
              </parameter>
              <parameter>
                <parameterid>size</parameterid>
                <name>Size</name>
                <valuemin>0</valuemin>
                <valuemax>200</valuemax>
                <value>24</value>
              </parameter>
              <parameter>
                <parameterid>track</parameterid>
                <name>Tracking</name>
                <valuemin>0</valuemin>
                <valuemax>100</valuemax>
                <value>1</value>
              </parameter>
              <parameter>
                <parameterid>lead</parameterid>
                <name>Leading</name>
                <valuemin>-100</valuemin>
                <valuemax>100</valuemax>
                <value>0</value>
              </parameter>
              <parameter>
                <parameterid>aspect</parameterid>
                <name>Aspect</name>
                <valuemin>0</valuemin>
                <valuemax>4</valuemax>
                <value>1</value>
              </parameter>
              <parameter>
                <parameterid>linewidth</parameterid>
                <name>Line Width</name>
                <valuemin>0</valuemin>
                <valuemax>200</valuemax>
                <value>2</value>
              </parameter>
              <parameter>
                <parameterid>linesoft</parameterid>
                <name>Line Softness</name>
                <valuemin>0</valuemin>
                <valuemax>100</valuemax>
                <value>5</value>
              </parameter>
              <parameter>
                <parameterid>textopacity</parameterid>
                <name>Text Opacity</name>
                <valuemin>0</valuemin>
                <valuemax>100</valuemax>
                <value>100</value>
              </parameter>
              <parameter>
                <parameterid>center</parameterid>
                <name>Center</name>
                <value>
                  <horiz>0</horiz>
                  <vert>0.42592592592592593</vert>
                </value>
              </parameter>
              <parameter>
                <parameterid>textcolor</parameterid>
                <name>Text Color</name>
                <value>
                  <alpha>255</alpha>
                  <red>255</red>
                  <green>255</green>
                  <blue>255</blue>
                </value>
              </parameter>
              <parameter>
                <parameterid>supertext</parameterid>
                <name>Text Graphic</name>
              </parameter>
              <parameter>
                <parameterid>linecolor</parameterid>
                <name>Line Color</name>
                <value>
                  <alpha>255</alpha>
                  <red>0</red>
                  <green>0</green>
                  <blue>0</blue>
                </value>
              </parameter>
              <parameter>
                <parameterid>superline</parameterid>
                <name>Line Graphic</name>
              </parameter>
              <parameter>
                <parameterid>part2</parameterid>
                <name>Background Settings</name>
                <value/>
              </parameter>
              <parameter>
                <parameterid>xscale</parameterid>
                <name>Horizontal Size</name>
                <valuemin>0</valuemin>
                <valuemax>200</valuemax>
                <value>0</value>
              </parameter>
              <parameter>
                <parameterid>yscale</parameterid>
                <name>Vertical Size</name>
                <valuemin>0</valuemin>
                <valuemax>200</valuemax>
                <value>0</value>
              </parameter>
              <parameter>
                <parameterid>xoffset</parameterid>
                <name>Horizontal Offset</name>
                <valuemin>-100</valuemin>
                <valuemax>100</valuemax>
                <value>0</value>
              </parameter>
              <parameter>
                <parameterid>yoffset</parameterid>
                <name>Vertical Offset</name>
                <valuemin>-100</valuemin>
                <valuemax>100</valuemax>
                <value>0</value>
              </parameter>
              <parameter>
                <parameterid>backsoft</parameterid>
                <name>Back Soft</name>
                <valuemin>0</valuemin>
                <valuemax>100</valuemax>
                <value>0</value>
              </parameter>
              <parameter>
                <parameterid>backopacity</parameterid>
                <name>Back Opacity</name>
                <valuemin>0</valuemin>
                <valuemax>100</valuemax>
                <value>50</value>
              </parameter>
              <parameter>
                <parameterid>backcolor</parameterid>
                <name>Back Color</name>
                <value>
                  <alpha>255</alpha>
                  <red>255</red>
                  <green>255</green>
                  <blue>255</blue>
                </value>
              </parameter>
              <parameter>
                <parameterid>superback</parameterid>
                <name>Back Graphic</name>
              </parameter>
              <parameter>
                <parameterid>crop</parameterid>
                <name>Crop</name>
                <value>false</value>
              </parameter>
              <parameter>
                <parameterid>autokern</parameterid>
                <name>Auto Kerning</name>
                <value>true</value>
              </parameter>
            </effect>
            <sourcetrack>
              <mediatype>video</mediatype>
            </sourcetrack>
          </generatoritem>
          <generatoritem id="Outline Text1">
            <name>Outline Text</name>
            <duration>3801.3</duration>
            <rate>
              <timebase>30</timebase>
              <ntsc>false</ntsc>
            </rate>
            <start>401.4</start>
            <end>452.4</end>
            <in>401.4</in>
            <out>452.4</out>
            <enabled>true</enabled>
            <anamorphic>false</anamorphic>
            <alphatype>black</alphatype>
            <masterclipid>Outline Text1</masterclipid>
            <effect>
              <name>Outline Text</name>
              <effectid>Outline Text</effectid>
              <effectcategory>Text</effectcategory>
              <effecttype>generator</effecttype>
              <mediatype>video</mediatype>
              <parameter>
                <parameterid>part1</parameterid>
                <name>Text Settings</name>
                <value/>
              </parameter>
              <parameter>
                <parameterid>str</parameterid>
                <name>Text</name>
                <value>첫 번째 CF 에 이어서</value>
              </parameter>
              <parameter>
                <parameterid>font</parameterid>
                <name>Font</name>
                <value>MalgunGothicBold</value>
              </parameter>
              <parameter>
                <parameterid>style</parameterid>
                <name>Style</name>
                <valuemin>1</valuemin>
                <valuemax>1</valuemax>
                <valuelist>
                  <valueentry>
                    <name>Regular</name>
                    <value>1</value>
                  </valueentry>
                </valuelist>
                <value>1</value>
              </parameter>
              <parameter>
                <parameterid>align</parameterid>
                <name>Alignment</name>
                <valuemin>1</valuemin>
                <valuemax>3</valuemax>
                <valuelist>
                  <valueentry>
                    <name>Left</name>
                    <value>1</value>
                  </valueentry>
                  <valueentry>
                    <name>Center</name>
                    <value>2</value>
                  </valueentry>
                  <valueentry>
                    <name>Right</name>
                    <value>3</value>
                  </valueentry>
                </valuelist>
                <value>2</value>
              </parameter>
              <parameter>
                <parameterid>size</parameterid>
                <name>Size</name>
                <valuemin>0</valuemin>
                <valuemax>200</valuemax>
                <value>24</value>
              </parameter>
              <parameter>
                <parameterid>track</parameterid>
                <name>Tracking</name>
                <valuemin>0</valuemin>
                <valuemax>100</valuemax>
                <value>1</value>
              </parameter>
              <parameter>
                <parameterid>lead</parameterid>
                <name>Leading</name>
                <valuemin>-100</valuemin>
                <valuemax>100</valuemax>
                <value>0</value>
              </parameter>
              <parameter>
                <parameterid>aspect</parameterid>
                <name>Aspect</name>
                <valuemin>0</valuemin>
                <valuemax>4</valuemax>
                <value>1</value>
              </parameter>
              <parameter>
                <parameterid>linewidth</parameterid>
                <name>Line Width</name>
                <valuemin>0</valuemin>
                <valuemax>200</valuemax>
                <value>2</value>
              </parameter>
              <parameter>
                <parameterid>linesoft</parameterid>
                <name>Line Softness</name>
                <valuemin>0</valuemin>
                <valuemax>100</valuemax>
                <value>5</value>
              </parameter>
              <parameter>
                <parameterid>textopacity</parameterid>
                <name>Text Opacity</name>
                <valuemin>0</valuemin>
                <valuemax>100</valuemax>
                <value>100</value>
              </parameter>
              <parameter>
                <parameterid>center</parameterid>
                <name>Center</name>
                <value>
                  <horiz>0</horiz>
                  <vert>0.42592592592592593</vert>
                </value>
              </parameter>
              <parameter>
                <parameterid>textcolor</parameterid>
                <name>Text Color</name>
                <value>
                  <alpha>255</alpha>
                  <red>255</red>
                  <green>255</green>
                  <blue>255</blue>
                </value>
              </parameter>
              <parameter>
                <parameterid>supertext</parameterid>
                <name>Text Graphic</name>
              </parameter>
              <parameter>
                <parameterid>linecolor</parameterid>
                <name>Line Color</name>
                <value>
                  <alpha>255</alpha>
                  <red>0</red>
                  <green>0</green>
                  <blue>0</blue>
                </value>
              </parameter>
              <parameter>
                <parameterid>superline</parameterid>
                <name>Line Graphic</name>
              </parameter>
              <parameter>
                <parameterid>part2</parameterid>
                <name>Background Settings</name>
                <value/>
              </parameter>
              <parameter>
                <parameterid>xscale</parameterid>
                <name>Horizontal Size</name>
                <valuemin>0</valuemin>
                <valuemax>200</valuemax>
                <value>0</value>
              </parameter>
              <parameter>
                <parameterid>yscale</parameterid>
                <name>Vertical Size</name>
                <valuemin>0</valuemin>
                <valuemax>200</valuemax>
                <value>0</value>
              </parameter>
              <parameter>
                <parameterid>xoffset</parameterid>
                <name>Horizontal Offset</name>
                <valuemin>-100</valuemin>
                <valuemax>100</valuemax>
                <value>0</value>
              </parameter>
              <parameter>
                <parameterid>yoffset</parameterid>
                <name>Vertical Offset</name>
                <valuemin>-100</valuemin>
                <valuemax>100</valuemax>
                <value>0</value>
              </parameter>
              <parameter>
                <parameterid>backsoft</parameterid>
                <name>Back Soft</name>
                <valuemin>0</valuemin>
                <valuemax>100</valuemax>
                <value>0</value>
              </parameter>
              <parameter>
                <parameterid>backopacity</parameterid>
                <name>Back Opacity</name>
                <valuemin>0</valuemin>
                <valuemax>100</valuemax>
                <value>50</value>
              </parameter>
              <parameter>
                <parameterid>backcolor</parameterid>
                <name>Back Color</name>
                <value>
                  <alpha>255</alpha>
                  <red>255</red>
                  <green>255</green>
                  <blue>255</blue>
                </value>
              </parameter>
              <parameter>
                <parameterid>superback</parameterid>
                <name>Back Graphic</name>
              </parameter>
              <parameter>
                <parameterid>crop</parameterid>
                <name>Crop</name>
                <value>false</value>
              </parameter>
              <parameter>
                <parameterid>autokern</parameterid>
                <name>Auto Kerning</name>
                <value>true</value>
              </parameter>
            </effect>
            <sourcetrack>
              <mediatype>video</mediatype>
            </sourcetrack>
          </generatoritem>
          <generatoritem id="Outline Text1">
            <name>Outline Text</name>
            <duration>3801.3</duration>
            <rate>
              <timebase>30</timebase>
              <ntsc>false</ntsc>
            </rate>
            <start>452.4</start>
            <end>564.2999999999998</end>
            <in>452.4</in>
            <out>564.2999999999998</out>
            <enabled>true</enabled>
            <anamorphic>false</anamorphic>
            <alphatype>black</alphatype>
            <masterclipid>Outline Text1</masterclipid>
            <effect>
              <name>Outline Text</name>
              <effectid>Outline Text</effectid>
              <effectcategory>Text</effectcategory>
              <effecttype>generator</effecttype>
              <mediatype>video</mediatype>
              <parameter>
                <parameterid>part1</parameterid>
                <name>Text Settings</name>
                <value/>
              </parameter>
              <parameter>
                <parameterid>str</parameterid>
                <name>Text</name>
                <value>이번에도 일룸의 디자이너로 변신합니다</value>
              </parameter>
              <parameter>
                <parameterid>font</parameterid>
                <name>Font</name>
                <value>MalgunGothicBold</value>
              </parameter>
              <parameter>
                <parameterid>style</parameterid>
                <name>Style</name>
                <valuemin>1</valuemin>
                <valuemax>1</valuemax>
                <valuelist>
                  <valueentry>
                    <name>Regular</name>
                    <value>1</value>
                  </valueentry>
                </valuelist>
                <value>1</value>
              </parameter>
              <parameter>
                <parameterid>align</parameterid>
                <name>Alignment</name>
                <valuemin>1</valuemin>
                <valuemax>3</valuemax>
                <valuelist>
                  <valueentry>
                    <name>Left</name>
                    <value>1</value>
                  </valueentry>
                  <valueentry>
                    <name>Center</name>
                    <value>2</value>
                  </valueentry>
                  <valueentry>
                    <name>Right</name>
                    <value>3</value>
                  </valueentry>
                </valuelist>
                <value>2</value>
              </parameter>
              <parameter>
                <parameterid>size</parameterid>
                <name>Size</name>
                <valuemin>0</valuemin>
                <valuemax>200</valuemax>
                <value>24</value>
              </parameter>
              <parameter>
                <parameterid>track</parameterid>
                <name>Tracking</name>
                <valuemin>0</valuemin>
                <valuemax>100</valuemax>
                <value>1</value>
              </parameter>
              <parameter>
                <parameterid>lead</parameterid>
                <name>Leading</name>
                <valuemin>-100</valuemin>
                <valuemax>100</valuemax>
                <value>0</value>
              </parameter>
              <parameter>
                <parameterid>aspect</parameterid>
                <name>Aspect</name>
                <valuemin>0</valuemin>
                <valuemax>4</valuemax>
                <value>1</value>
              </parameter>
              <parameter>
                <parameterid>linewidth</parameterid>
                <name>Line Width</name>
                <valuemin>0</valuemin>
                <valuemax>200</valuemax>
                <value>2</value>
              </parameter>
              <parameter>
                <parameterid>linesoft</parameterid>
                <name>Line Softness</name>
                <valuemin>0</valuemin>
                <valuemax>100</valuemax>
                <value>5</value>
              </parameter>
              <parameter>
                <parameterid>textopacity</parameterid>
                <name>Text Opacity</name>
                <valuemin>0</valuemin>
                <valuemax>100</valuemax>
                <value>100</value>
              </parameter>
              <parameter>
                <parameterid>center</parameterid>
                <name>Center</name>
                <value>
                  <horiz>0</horiz>
                  <vert>0.42592592592592593</vert>
                </value>
              </parameter>
              <parameter>
                <parameterid>textcolor</parameterid>
                <name>Text Color</name>
                <value>
                  <alpha>255</alpha>
                  <red>255</red>
                  <green>255</green>
                  <blue>255</blue>
                </value>
              </parameter>
              <parameter>
                <parameterid>supertext</parameterid>
                <name>Text Graphic</name>
              </parameter>
              <parameter>
                <parameterid>linecolor</parameterid>
                <name>Line Color</name>
                <value>
                  <alpha>255</alpha>
                  <red>0</red>
                  <green>0</green>
                  <blue>0</blue>
                </value>
              </parameter>
              <parameter>
                <parameterid>superline</parameterid>
                <name>Line Graphic</name>
              </parameter>
              <parameter>
                <parameterid>part2</parameterid>
                <name>Background Settings</name>
                <value/>
              </parameter>
              <parameter>
                <parameterid>xscale</parameterid>
                <name>Horizontal Size</name>
                <valuemin>0</valuemin>
                <valuemax>200</valuemax>
                <value>0</value>
              </parameter>
              <parameter>
                <parameterid>yscale</parameterid>
                <name>Vertical Size</name>
                <valuemin>0</valuemin>
                <valuemax>200</valuemax>
                <value>0</value>
              </parameter>
              <parameter>
                <parameterid>xoffset</parameterid>
                <name>Horizontal Offset</name>
                <valuemin>-100</valuemin>
                <valuemax>100</valuemax>
                <value>0</value>
              </parameter>
              <parameter>
                <parameterid>yoffset</parameterid>
                <name>Vertical Offset</name>
                <valuemin>-100</valuemin>
                <valuemax>100</valuemax>
                <value>0</value>
              </parameter>
              <parameter>
                <parameterid>backsoft</parameterid>
                <name>Back Soft</name>
                <valuemin>0</valuemin>
                <valuemax>100</valuemax>
                <value>0</value>
              </parameter>
              <parameter>
                <parameterid>backopacity</parameterid>
                <name>Back Opacity</name>
                <valuemin>0</valuemin>
                <valuemax>100</valuemax>
                <value>50</value>
              </parameter>
              <parameter>
                <parameterid>backcolor</parameterid>
                <name>Back Color</name>
                <value>
                  <alpha>255</alpha>
                  <red>255</red>
                  <green>255</green>
                  <blue>255</blue>
                </value>
              </parameter>
              <parameter>
                <parameterid>superback</parameterid>
                <name>Back Graphic</name>
              </parameter>
              <parameter>
                <parameterid>crop</parameterid>
                <name>Crop</name>
                <value>false</value>
              </parameter>
              <parameter>
                <parameterid>autokern</parameterid>
                <name>Auto Kerning</name>
                <value>true</value>
              </parameter>
            </effect>
            <sourcetrack>
              <mediatype>video</mediatype>
            </sourcetrack>
          </generatoritem>
          <generatoritem id="Outline Text1">
            <name>Outline Text</name>
            <duration>3801.3</duration>
            <rate>
              <timebase>30</timebase>
              <ntsc>false</ntsc>
            </rate>
            <start>564.2999999999998</start>
            <end>733.1999999999999</end>
            <in>564.2999999999998</in>
            <out>733.1999999999999</out>
            <enabled>true</enabled>
            <anamorphic>false</anamorphic>
            <alphatype>black</alphatype>
            <masterclipid>Outline Text1</masterclipid>
            <effect>
              <name>Outline Text</name>
              <effectid>Outline Text</effectid>
              <effectcategory>Text</effectcategory>
              <effecttype>generator</effecttype>
              <mediatype>video</mediatype>
              <parameter>
                <parameterid>part1</parameterid>
                <name>Text Settings</name>
                <value/>
              </parameter>
              <parameter>
                <parameterid>str</parameterid>
                <name>Text</name>
                <value>결혼을 앞둔 신혼부부들이 함께 살게 될 공간을 위해서</value>
              </parameter>
              <parameter>
                <parameterid>font</parameterid>
                <name>Font</name>
                <value>MalgunGothicBold</value>
              </parameter>
              <parameter>
                <parameterid>style</parameterid>
                <name>Style</name>
                <valuemin>1</valuemin>
                <valuemax>1</valuemax>
                <valuelist>
                  <valueentry>
                    <name>Regular</name>
                    <value>1</value>
                  </valueentry>
                </valuelist>
                <value>1</value>
              </parameter>
              <parameter>
                <parameterid>align</parameterid>
                <name>Alignment</name>
                <valuemin>1</valuemin>
                <valuemax>3</valuemax>
                <valuelist>
                  <valueentry>
                    <name>Left</name>
                    <value>1</value>
                  </valueentry>
                  <valueentry>
                    <name>Center</name>
                    <value>2</value>
                  </valueentry>
                  <valueentry>
                    <name>Right</name>
                    <value>3</value>
                  </valueentry>
                </valuelist>
                <value>2</value>
              </parameter>
              <parameter>
                <parameterid>size</parameterid>
                <name>Size</name>
                <valuemin>0</valuemin>
                <valuemax>200</valuemax>
                <value>24</value>
              </parameter>
              <parameter>
                <parameterid>track</parameterid>
                <name>Tracking</name>
                <valuemin>0</valuemin>
                <valuemax>100</valuemax>
                <value>1</value>
              </parameter>
              <parameter>
                <parameterid>lead</parameterid>
                <name>Leading</name>
                <valuemin>-100</valuemin>
                <valuemax>100</valuemax>
                <value>0</value>
              </parameter>
              <parameter>
                <parameterid>aspect</parameterid>
                <name>Aspect</name>
                <valuemin>0</valuemin>
                <valuemax>4</valuemax>
                <value>1</value>
              </parameter>
              <parameter>
                <parameterid>linewidth</parameterid>
                <name>Line Width</name>
                <valuemin>0</valuemin>
                <valuemax>200</valuemax>
                <value>2</value>
              </parameter>
              <parameter>
                <parameterid>linesoft</parameterid>
                <name>Line Softness</name>
                <valuemin>0</valuemin>
                <valuemax>100</valuemax>
                <value>5</value>
              </parameter>
              <parameter>
                <parameterid>textopacity</parameterid>
                <name>Text Opacity</name>
                <valuemin>0</valuemin>
                <valuemax>100</valuemax>
                <value>100</value>
              </parameter>
              <parameter>
                <parameterid>center</parameterid>
                <name>Center</name>
                <value>
                  <horiz>0</horiz>
                  <vert>0.42592592592592593</vert>
                </value>
              </parameter>
              <parameter>
                <parameterid>textcolor</parameterid>
                <name>Text Color</name>
                <value>
                  <alpha>255</alpha>
                  <red>255</red>
                  <green>255</green>
                  <blue>255</blue>
                </value>
              </parameter>
              <parameter>
                <parameterid>supertext</parameterid>
                <name>Text Graphic</name>
              </parameter>
              <parameter>
                <parameterid>linecolor</parameterid>
                <name>Line Color</name>
                <value>
                  <alpha>255</alpha>
                  <red>0</red>
                  <green>0</green>
                  <blue>0</blue>
                </value>
              </parameter>
              <parameter>
                <parameterid>superline</parameterid>
                <name>Line Graphic</name>
              </parameter>
              <parameter>
                <parameterid>part2</parameterid>
                <name>Background Settings</name>
                <value/>
              </parameter>
              <parameter>
                <parameterid>xscale</parameterid>
                <name>Horizontal Size</name>
                <valuemin>0</valuemin>
                <valuemax>200</valuemax>
                <value>0</value>
              </parameter>
              <parameter>
                <parameterid>yscale</parameterid>
                <name>Vertical Size</name>
                <valuemin>0</valuemin>
                <valuemax>200</valuemax>
                <value>0</value>
              </parameter>
              <parameter>
                <parameterid>xoffset</parameterid>
                <name>Horizontal Offset</name>
                <valuemin>-100</valuemin>
                <valuemax>100</valuemax>
                <value>0</value>
              </parameter>
              <parameter>
                <parameterid>yoffset</parameterid>
                <name>Vertical Offset</name>
                <valuemin>-100</valuemin>
                <valuemax>100</valuemax>
                <value>0</value>
              </parameter>
              <parameter>
                <parameterid>backsoft</parameterid>
                <name>Back Soft</name>
                <valuemin>0</valuemin>
                <valuemax>100</valuemax>
                <value>0</value>
              </parameter>
              <parameter>
                <parameterid>backopacity</parameterid>
                <name>Back Opacity</name>
                <valuemin>0</valuemin>
                <valuemax>100</valuemax>
                <value>50</value>
              </parameter>
              <parameter>
                <parameterid>backcolor</parameterid>
                <name>Back Color</name>
                <value>
                  <alpha>255</alpha>
                  <red>255</red>
                  <green>255</green>
                  <blue>255</blue>
                </value>
              </parameter>
              <parameter>
                <parameterid>superback</parameterid>
                <name>Back Graphic</name>
              </parameter>
              <parameter>
                <parameterid>crop</parameterid>
                <name>Crop</name>
                <value>false</value>
              </parameter>
              <parameter>
                <parameterid>autokern</parameterid>
                <name>Auto Kerning</name>
                <value>true</value>
              </parameter>
            </effect>
            <sourcetrack>
              <mediatype>video</mediatype>
            </sourcetrack>
          </generatoritem>
          <generatoritem id="Outline Text1">
            <name>Outline Text</name>
            <duration>3801.3</duration>
            <rate>
              <timebase>30</timebase>
              <ntsc>false</ntsc>
            </rate>
            <start>733.1999999999999</start>
            <end>811.4999999999998</end>
            <in>733.1999999999999</in>
            <out>811.4999999999998</out>
            <enabled>true</enabled>
            <anamorphic>false</anamorphic>
            <alphatype>black</alphatype>
            <masterclipid>Outline Text1</masterclipid>
            <effect>
              <name>Outline Text</name>
              <effectid>Outline Text</effectid>
              <effectcategory>Text</effectcategory>
              <effecttype>generator</effecttype>
              <mediatype>video</mediatype>
              <parameter>
                <parameterid>part1</parameterid>
                <name>Text Settings</name>
                <value/>
              </parameter>
              <parameter>
                <parameterid>str</parameterid>
                <name>Text</name>
                <value>상대방의 생각을 고민하고</value>
              </parameter>
              <parameter>
                <parameterid>font</parameterid>
                <name>Font</name>
                <value>MalgunGothicBold</value>
              </parameter>
              <parameter>
                <parameterid>style</parameterid>
                <name>Style</name>
                <valuemin>1</valuemin>
                <valuemax>1</valuemax>
                <valuelist>
                  <valueentry>
                    <name>Regular</name>
                    <value>1</value>
                  </valueentry>
                </valuelist>
                <value>1</value>
              </parameter>
              <parameter>
                <parameterid>align</parameterid>
                <name>Alignment</name>
                <valuemin>1</valuemin>
                <valuemax>3</valuemax>
                <valuelist>
                  <valueentry>
                    <name>Left</name>
                    <value>1</value>
                  </valueentry>
                  <valueentry>
                    <name>Center</name>
                    <value>2</value>
                  </valueentry>
                  <valueentry>
                    <name>Right</name>
                    <value>3</value>
                  </valueentry>
                </valuelist>
                <value>2</value>
              </parameter>
              <parameter>
                <parameterid>size</parameterid>
                <name>Size</name>
                <valuemin>0</valuemin>
                <valuemax>200</valuemax>
                <value>24</value>
              </parameter>
              <parameter>
                <parameterid>track</parameterid>
                <name>Tracking</name>
                <valuemin>0</valuemin>
                <valuemax>100</valuemax>
                <value>1</value>
              </parameter>
              <parameter>
                <parameterid>lead</parameterid>
                <name>Leading</name>
                <valuemin>-100</valuemin>
                <valuemax>100</valuemax>
                <value>0</value>
              </parameter>
              <parameter>
                <parameterid>aspect</parameterid>
                <name>Aspect</name>
                <valuemin>0</valuemin>
                <valuemax>4</valuemax>
                <value>1</value>
              </parameter>
              <parameter>
                <parameterid>linewidth</parameterid>
                <name>Line Width</name>
                <valuemin>0</valuemin>
                <valuemax>200</valuemax>
                <value>2</value>
              </parameter>
              <parameter>
                <parameterid>linesoft</parameterid>
                <name>Line Softness</name>
                <valuemin>0</valuemin>
                <valuemax>100</valuemax>
                <value>5</value>
              </parameter>
              <parameter>
                <parameterid>textopacity</parameterid>
                <name>Text Opacity</name>
                <valuemin>0</valuemin>
                <valuemax>100</valuemax>
                <value>100</value>
              </parameter>
              <parameter>
                <parameterid>center</parameterid>
                <name>Center</name>
                <value>
                  <horiz>0</horiz>
                  <vert>0.42592592592592593</vert>
                </value>
              </parameter>
              <parameter>
                <parameterid>textcolor</parameterid>
                <name>Text Color</name>
                <value>
                  <alpha>255</alpha>
                  <red>255</red>
                  <green>255</green>
                  <blue>255</blue>
                </value>
              </parameter>
              <parameter>
                <parameterid>supertext</parameterid>
                <name>Text Graphic</name>
              </parameter>
              <parameter>
                <parameterid>linecolor</parameterid>
                <name>Line Color</name>
                <value>
                  <alpha>255</alpha>
                  <red>0</red>
                  <green>0</green>
                  <blue>0</blue>
                </value>
              </parameter>
              <parameter>
                <parameterid>superline</parameterid>
                <name>Line Graphic</name>
              </parameter>
              <parameter>
                <parameterid>part2</parameterid>
                <name>Background Settings</name>
                <value/>
              </parameter>
              <parameter>
                <parameterid>xscale</parameterid>
                <name>Horizontal Size</name>
                <valuemin>0</valuemin>
                <valuemax>200</valuemax>
                <value>0</value>
              </parameter>
              <parameter>
                <parameterid>yscale</parameterid>
                <name>Vertical Size</name>
                <valuemin>0</valuemin>
                <valuemax>200</valuemax>
                <value>0</value>
              </parameter>
              <parameter>
                <parameterid>xoffset</parameterid>
                <name>Horizontal Offset</name>
                <valuemin>-100</valuemin>
                <valuemax>100</valuemax>
                <value>0</value>
              </parameter>
              <parameter>
                <parameterid>yoffset</parameterid>
                <name>Vertical Offset</name>
                <valuemin>-100</valuemin>
                <valuemax>100</valuemax>
                <value>0</value>
              </parameter>
              <parameter>
                <parameterid>backsoft</parameterid>
                <name>Back Soft</name>
                <valuemin>0</valuemin>
                <valuemax>100</valuemax>
                <value>0</value>
              </parameter>
              <parameter>
                <parameterid>backopacity</parameterid>
                <name>Back Opacity</name>
                <valuemin>0</valuemin>
                <valuemax>100</valuemax>
                <value>50</value>
              </parameter>
              <parameter>
                <parameterid>backcolor</parameterid>
                <name>Back Color</name>
                <value>
                  <alpha>255</alpha>
                  <red>255</red>
                  <green>255</green>
                  <blue>255</blue>
                </value>
              </parameter>
              <parameter>
                <parameterid>superback</parameterid>
                <name>Back Graphic</name>
              </parameter>
              <parameter>
                <parameterid>crop</parameterid>
                <name>Crop</name>
                <value>false</value>
              </parameter>
              <parameter>
                <parameterid>autokern</parameterid>
                <name>Auto Kerning</name>
                <value>true</value>
              </parameter>
            </effect>
            <sourcetrack>
              <mediatype>video</mediatype>
            </sourcetrack>
          </generatoritem>
          <generatoritem id="Outline Text1">
            <name>Outline Text</name>
            <duration>3801.3</duration>
            <rate>
              <timebase>30</timebase>
              <ntsc>false</ntsc>
            </rate>
            <start>811.4999999999998</start>
            <end>940.1999999999998</end>
            <in>811.4999999999998</in>
            <out>940.1999999999998</out>
            <enabled>true</enabled>
            <anamorphic>false</anamorphic>
            <alphatype>black</alphatype>
            <masterclipid>Outline Text1</masterclipid>
            <effect>
              <name>Outline Text</name>
              <effectid>Outline Text</effectid>
              <effectcategory>Text</effectcategory>
              <effecttype>generator</effecttype>
              <mediatype>video</mediatype>
              <parameter>
                <parameterid>part1</parameterid>
                <name>Text Settings</name>
                <value/>
              </parameter>
              <parameter>
                <parameterid>str</parameterid>
                <name>Text</name>
                <value>배려하는 마음을 나는 일룸 예약입니다</value>
              </parameter>
              <parameter>
                <parameterid>font</parameterid>
                <name>Font</name>
                <value>MalgunGothicBold</value>
              </parameter>
              <parameter>
                <parameterid>style</parameterid>
                <name>Style</name>
                <valuemin>1</valuemin>
                <valuemax>1</valuemax>
                <valuelist>
                  <valueentry>
                    <name>Regular</name>
                    <value>1</value>
                  </valueentry>
                </valuelist>
                <value>1</value>
              </parameter>
              <parameter>
                <parameterid>align</parameterid>
                <name>Alignment</name>
                <valuemin>1</valuemin>
                <valuemax>3</valuemax>
                <valuelist>
                  <valueentry>
                    <name>Left</name>
                    <value>1</value>
                  </valueentry>
                  <valueentry>
                    <name>Center</name>
                    <value>2</value>
                  </valueentry>
                  <valueentry>
                    <name>Right</name>
                    <value>3</value>
                  </valueentry>
                </valuelist>
                <value>2</value>
              </parameter>
              <parameter>
                <parameterid>size</parameterid>
                <name>Size</name>
                <valuemin>0</valuemin>
                <valuemax>200</valuemax>
                <value>24</value>
              </parameter>
              <parameter>
                <parameterid>track</parameterid>
                <name>Tracking</name>
                <valuemin>0</valuemin>
                <valuemax>100</valuemax>
                <value>1</value>
              </parameter>
              <parameter>
                <parameterid>lead</parameterid>
                <name>Leading</name>
                <valuemin>-100</valuemin>
                <valuemax>100</valuemax>
                <value>0</value>
              </parameter>
              <parameter>
                <parameterid>aspect</parameterid>
                <name>Aspect</name>
                <valuemin>0</valuemin>
                <valuemax>4</valuemax>
                <value>1</value>
              </parameter>
              <parameter>
                <parameterid>linewidth</parameterid>
                <name>Line Width</name>
                <valuemin>0</valuemin>
                <valuemax>200</valuemax>
                <value>2</value>
              </parameter>
              <parameter>
                <parameterid>linesoft</parameterid>
                <name>Line Softness</name>
                <valuemin>0</valuemin>
                <valuemax>100</valuemax>
                <value>5</value>
              </parameter>
              <parameter>
                <parameterid>textopacity</parameterid>
                <name>Text Opacity</name>
                <valuemin>0</valuemin>
                <valuemax>100</valuemax>
                <value>100</value>
              </parameter>
              <parameter>
                <parameterid>center</parameterid>
                <name>Center</name>
                <value>
                  <horiz>0</horiz>
                  <vert>0.42592592592592593</vert>
                </value>
              </parameter>
              <parameter>
                <parameterid>textcolor</parameterid>
                <name>Text Color</name>
                <value>
                  <alpha>255</alpha>
                  <red>255</red>
                  <green>255</green>
                  <blue>255</blue>
                </value>
              </parameter>
              <parameter>
                <parameterid>supertext</parameterid>
                <name>Text Graphic</name>
              </parameter>
              <parameter>
                <parameterid>linecolor</parameterid>
                <name>Line Color</name>
                <value>
                  <alpha>255</alpha>
                  <red>0</red>
                  <green>0</green>
                  <blue>0</blue>
                </value>
              </parameter>
              <parameter>
                <parameterid>superline</parameterid>
                <name>Line Graphic</name>
              </parameter>
              <parameter>
                <parameterid>part2</parameterid>
                <name>Background Settings</name>
                <value/>
              </parameter>
              <parameter>
                <parameterid>xscale</parameterid>
                <name>Horizontal Size</name>
                <valuemin>0</valuemin>
                <valuemax>200</valuemax>
                <value>0</value>
              </parameter>
              <parameter>
                <parameterid>yscale</parameterid>
                <name>Vertical Size</name>
                <valuemin>0</valuemin>
                <valuemax>200</valuemax>
                <value>0</value>
              </parameter>
              <parameter>
                <parameterid>xoffset</parameterid>
                <name>Horizontal Offset</name>
                <valuemin>-100</valuemin>
                <valuemax>100</valuemax>
                <value>0</value>
              </parameter>
              <parameter>
                <parameterid>yoffset</parameterid>
                <name>Vertical Offset</name>
                <valuemin>-100</valuemin>
                <valuemax>100</valuemax>
                <value>0</value>
              </parameter>
              <parameter>
                <parameterid>backsoft</parameterid>
                <name>Back Soft</name>
                <valuemin>0</valuemin>
                <valuemax>100</valuemax>
                <value>0</value>
              </parameter>
              <parameter>
                <parameterid>backopacity</parameterid>
                <name>Back Opacity</name>
                <valuemin>0</valuemin>
                <valuemax>100</valuemax>
                <value>50</value>
              </parameter>
              <parameter>
                <parameterid>backcolor</parameterid>
                <name>Back Color</name>
                <value>
                  <alpha>255</alpha>
                  <red>255</red>
                  <green>255</green>
                  <blue>255</blue>
                </value>
              </parameter>
              <parameter>
                <parameterid>superback</parameterid>
                <name>Back Graphic</name>
              </parameter>
              <parameter>
                <parameterid>crop</parameterid>
                <name>Crop</name>
                <value>false</value>
              </parameter>
              <parameter>
                <parameterid>autokern</parameterid>
                <name>Auto Kerning</name>
                <value>true</value>
              </parameter>
            </effect>
            <sourcetrack>
              <mediatype>video</mediatype>
            </sourcetrack>
          </generatoritem>
          <generatoritem id="Outline Text1">
            <name>Outline Text</name>
            <duration>3801.3</duration>
            <rate>
              <timebase>30</timebase>
              <ntsc>false</ntsc>
            </rate>
            <start>940.1999999999998</start>
            <end>996.2999999999998</end>
            <in>940.1999999999998</in>
            <out>996.2999999999998</out>
            <enabled>true</enabled>
            <anamorphic>false</anamorphic>
            <alphatype>black</alphatype>
            <masterclipid>Outline Text1</masterclipid>
            <effect>
              <name>Outline Text</name>
              <effectid>Outline Text</effectid>
              <effectcategory>Text</effectcategory>
              <effecttype>generator</effecttype>
              <mediatype>video</mediatype>
              <parameter>
                <parameterid>part1</parameterid>
                <name>Text Settings</name>
                <value/>
              </parameter>
              <parameter>
                <parameterid>str</parameterid>
                <name>Text</name>
                <value>'당신의 생각을 생각합니다'</value>
              </parameter>
              <parameter>
                <parameterid>font</parameterid>
                <name>Font</name>
                <value>MalgunGothicBold</value>
              </parameter>
              <parameter>
                <parameterid>style</parameterid>
                <name>Style</name>
                <valuemin>1</valuemin>
                <valuemax>1</valuemax>
                <valuelist>
                  <valueentry>
                    <name>Regular</name>
                    <value>1</value>
                  </valueentry>
                </valuelist>
                <value>1</value>
              </parameter>
              <parameter>
                <parameterid>align</parameterid>
                <name>Alignment</name>
                <valuemin>1</valuemin>
                <valuemax>3</valuemax>
                <valuelist>
                  <valueentry>
                    <name>Left</name>
                    <value>1</value>
                  </valueentry>
                  <valueentry>
                    <name>Center</name>
                    <value>2</value>
                  </valueentry>
                  <valueentry>
                    <name>Right</name>
                    <value>3</value>
                  </valueentry>
                </valuelist>
                <value>2</value>
              </parameter>
              <parameter>
                <parameterid>size</parameterid>
                <name>Size</name>
                <valuemin>0</valuemin>
                <valuemax>200</valuemax>
                <value>24</value>
              </parameter>
              <parameter>
                <parameterid>track</parameterid>
                <name>Tracking</name>
                <valuemin>0</valuemin>
                <valuemax>100</valuemax>
                <value>1</value>
              </parameter>
              <parameter>
                <parameterid>lead</parameterid>
                <name>Leading</name>
                <valuemin>-100</valuemin>
                <valuemax>100</valuemax>
                <value>0</value>
              </parameter>
              <parameter>
                <parameterid>aspect</parameterid>
                <name>Aspect</name>
                <valuemin>0</valuemin>
                <valuemax>4</valuemax>
                <value>1</value>
              </parameter>
              <parameter>
                <parameterid>linewidth</parameterid>
                <name>Line Width</name>
                <valuemin>0</valuemin>
                <valuemax>200</valuemax>
                <value>2</value>
              </parameter>
              <parameter>
                <parameterid>linesoft</parameterid>
                <name>Line Softness</name>
                <valuemin>0</valuemin>
                <valuemax>100</valuemax>
                <value>5</value>
              </parameter>
              <parameter>
                <parameterid>textopacity</parameterid>
                <name>Text Opacity</name>
                <valuemin>0</valuemin>
                <valuemax>100</valuemax>
                <value>100</value>
              </parameter>
              <parameter>
                <parameterid>center</parameterid>
                <name>Center</name>
                <value>
                  <horiz>0</horiz>
                  <vert>0.42592592592592593</vert>
                </value>
              </parameter>
              <parameter>
                <parameterid>textcolor</parameterid>
                <name>Text Color</name>
                <value>
                  <alpha>255</alpha>
                  <red>255</red>
                  <green>255</green>
                  <blue>255</blue>
                </value>
              </parameter>
              <parameter>
                <parameterid>supertext</parameterid>
                <name>Text Graphic</name>
              </parameter>
              <parameter>
                <parameterid>linecolor</parameterid>
                <name>Line Color</name>
                <value>
                  <alpha>255</alpha>
                  <red>0</red>
                  <green>0</green>
                  <blue>0</blue>
                </value>
              </parameter>
              <parameter>
                <parameterid>superline</parameterid>
                <name>Line Graphic</name>
              </parameter>
              <parameter>
                <parameterid>part2</parameterid>
                <name>Background Settings</name>
                <value/>
              </parameter>
              <parameter>
                <parameterid>xscale</parameterid>
                <name>Horizontal Size</name>
                <valuemin>0</valuemin>
                <valuemax>200</valuemax>
                <value>0</value>
              </parameter>
              <parameter>
                <parameterid>yscale</parameterid>
                <name>Vertical Size</name>
                <valuemin>0</valuemin>
                <valuemax>200</valuemax>
                <value>0</value>
              </parameter>
              <parameter>
                <parameterid>xoffset</parameterid>
                <name>Horizontal Offset</name>
                <valuemin>-100</valuemin>
                <valuemax>100</valuemax>
                <value>0</value>
              </parameter>
              <parameter>
                <parameterid>yoffset</parameterid>
                <name>Vertical Offset</name>
                <valuemin>-100</valuemin>
                <valuemax>100</valuemax>
                <value>0</value>
              </parameter>
              <parameter>
                <parameterid>backsoft</parameterid>
                <name>Back Soft</name>
                <valuemin>0</valuemin>
                <valuemax>100</valuemax>
                <value>0</value>
              </parameter>
              <parameter>
                <parameterid>backopacity</parameterid>
                <name>Back Opacity</name>
                <valuemin>0</valuemin>
                <valuemax>100</valuemax>
                <value>50</value>
              </parameter>
              <parameter>
                <parameterid>backcolor</parameterid>
                <name>Back Color</name>
                <value>
                  <alpha>255</alpha>
                  <red>255</red>
                  <green>255</green>
                  <blue>255</blue>
                </value>
              </parameter>
              <parameter>
                <parameterid>superback</parameterid>
                <name>Back Graphic</name>
              </parameter>
              <parameter>
                <parameterid>crop</parameterid>
                <name>Crop</name>
                <value>false</value>
              </parameter>
              <parameter>
                <parameterid>autokern</parameterid>
                <name>Auto Kerning</name>
                <value>true</value>
              </parameter>
            </effect>
            <sourcetrack>
              <mediatype>video</mediatype>
            </sourcetrack>
          </generatoritem>
          <generatoritem id="Outline Text1">
            <name>Outline Text</name>
            <duration>3801.3</duration>
            <rate>
              <timebase>30</timebase>
              <ntsc>false</ntsc>
            </rate>
            <start>996.2999999999998</start>
            <end>1072.7999999999997</end>
            <in>996.2999999999998</in>
            <out>1072.7999999999997</out>
            <enabled>true</enabled>
            <anamorphic>false</anamorphic>
            <alphatype>black</alphatype>
            <masterclipid>Outline Text1</masterclipid>
            <effect>
              <name>Outline Text</name>
              <effectid>Outline Text</effectid>
              <effectcategory>Text</effectcategory>
              <effecttype>generator</effecttype>
              <mediatype>video</mediatype>
              <parameter>
                <parameterid>part1</parameterid>
                <name>Text Settings</name>
                <value/>
              </parameter>
              <parameter>
                <parameterid>str</parameterid>
                <name>Text</name>
                <value>라는 말은 언제 들어도</value>
              </parameter>
              <parameter>
                <parameterid>font</parameterid>
                <name>Font</name>
                <value>MalgunGothicBold</value>
              </parameter>
              <parameter>
                <parameterid>style</parameterid>
                <name>Style</name>
                <valuemin>1</valuemin>
                <valuemax>1</valuemax>
                <valuelist>
                  <valueentry>
                    <name>Regular</name>
                    <value>1</value>
                  </valueentry>
                </valuelist>
                <value>1</value>
              </parameter>
              <parameter>
                <parameterid>align</parameterid>
                <name>Alignment</name>
                <valuemin>1</valuemin>
                <valuemax>3</valuemax>
                <valuelist>
                  <valueentry>
                    <name>Left</name>
                    <value>1</value>
                  </valueentry>
                  <valueentry>
                    <name>Center</name>
                    <value>2</value>
                  </valueentry>
                  <valueentry>
                    <name>Right</name>
                    <value>3</value>
                  </valueentry>
                </valuelist>
                <value>2</value>
              </parameter>
              <parameter>
                <parameterid>size</parameterid>
                <name>Size</name>
                <valuemin>0</valuemin>
                <valuemax>200</valuemax>
                <value>24</value>
              </parameter>
              <parameter>
                <parameterid>track</parameterid>
                <name>Tracking</name>
                <valuemin>0</valuemin>
                <valuemax>100</valuemax>
                <value>1</value>
              </parameter>
              <parameter>
                <parameterid>lead</parameterid>
                <name>Leading</name>
                <valuemin>-100</valuemin>
                <valuemax>100</valuemax>
                <value>0</value>
              </parameter>
              <parameter>
                <parameterid>aspect</parameterid>
                <name>Aspect</name>
                <valuemin>0</valuemin>
                <valuemax>4</valuemax>
                <value>1</value>
              </parameter>
              <parameter>
                <parameterid>linewidth</parameterid>
                <name>Line Width</name>
                <valuemin>0</valuemin>
                <valuemax>200</valuemax>
                <value>2</value>
              </parameter>
              <parameter>
                <parameterid>linesoft</parameterid>
                <name>Line Softness</name>
                <valuemin>0</valuemin>
                <valuemax>100</valuemax>
                <value>5</value>
              </parameter>
              <parameter>
                <parameterid>textopacity</parameterid>
                <name>Text Opacity</name>
                <valuemin>0</valuemin>
                <valuemax>100</valuemax>
                <value>100</value>
              </parameter>
              <parameter>
                <parameterid>center</parameterid>
                <name>Center</name>
                <value>
                  <horiz>0</horiz>
                  <vert>0.42592592592592593</vert>
                </value>
              </parameter>
              <parameter>
                <parameterid>textcolor</parameterid>
                <name>Text Color</name>
                <value>
                  <alpha>255</alpha>
                  <red>255</red>
                  <green>255</green>
                  <blue>255</blue>
                </value>
              </parameter>
              <parameter>
                <parameterid>supertext</parameterid>
                <name>Text Graphic</name>
              </parameter>
              <parameter>
                <parameterid>linecolor</parameterid>
                <name>Line Color</name>
                <value>
                  <alpha>255</alpha>
                  <red>0</red>
                  <green>0</green>
                  <blue>0</blue>
                </value>
              </parameter>
              <parameter>
                <parameterid>superline</parameterid>
                <name>Line Graphic</name>
              </parameter>
              <parameter>
                <parameterid>part2</parameterid>
                <name>Background Settings</name>
                <value/>
              </parameter>
              <parameter>
                <parameterid>xscale</parameterid>
                <name>Horizontal Size</name>
                <valuemin>0</valuemin>
                <valuemax>200</valuemax>
                <value>0</value>
              </parameter>
              <parameter>
                <parameterid>yscale</parameterid>
                <name>Vertical Size</name>
                <valuemin>0</valuemin>
                <valuemax>200</valuemax>
                <value>0</value>
              </parameter>
              <parameter>
                <parameterid>xoffset</parameterid>
                <name>Horizontal Offset</name>
                <valuemin>-100</valuemin>
                <valuemax>100</valuemax>
                <value>0</value>
              </parameter>
              <parameter>
                <parameterid>yoffset</parameterid>
                <name>Vertical Offset</name>
                <valuemin>-100</valuemin>
                <valuemax>100</valuemax>
                <value>0</value>
              </parameter>
              <parameter>
                <parameterid>backsoft</parameterid>
                <name>Back Soft</name>
                <valuemin>0</valuemin>
                <valuemax>100</valuemax>
                <value>0</value>
              </parameter>
              <parameter>
                <parameterid>backopacity</parameterid>
                <name>Back Opacity</name>
                <valuemin>0</valuemin>
                <valuemax>100</valuemax>
                <value>50</value>
              </parameter>
              <parameter>
                <parameterid>backcolor</parameterid>
                <name>Back Color</name>
                <value>
                  <alpha>255</alpha>
                  <red>255</red>
                  <green>255</green>
                  <blue>255</blue>
                </value>
              </parameter>
              <parameter>
                <parameterid>superback</parameterid>
                <name>Back Graphic</name>
              </parameter>
              <parameter>
                <parameterid>crop</parameterid>
                <name>Crop</name>
                <value>false</value>
              </parameter>
              <parameter>
                <parameterid>autokern</parameterid>
                <name>Auto Kerning</name>
                <value>true</value>
              </parameter>
            </effect>
            <sourcetrack>
              <mediatype>video</mediatype>
            </sourcetrack>
          </generatoritem>
          <generatoritem id="Outline Text1">
            <name>Outline Text</name>
            <duration>3801.3</duration>
            <rate>
              <timebase>30</timebase>
              <ntsc>false</ntsc>
            </rate>
            <start>1072.7999999999997</start>
            <end>1250.6999999999998</end>
            <in>1072.7999999999997</in>
            <out>1250.6999999999998</out>
            <enabled>true</enabled>
            <anamorphic>false</anamorphic>
            <alphatype>black</alphatype>
            <masterclipid>Outline Text1</masterclipid>
            <effect>
              <name>Outline Text</name>
              <effectid>Outline Text</effectid>
              <effectcategory>Text</effectcategory>
              <effecttype>generator</effecttype>
              <mediatype>video</mediatype>
              <parameter>
                <parameterid>part1</parameterid>
                <name>Text Settings</name>
                <value/>
              </parameter>
              <parameter>
                <parameterid>str</parameterid>
                <name>Text</name>
                <value>언제 봐도 정말 멋진 거 같아요</value>
              </parameter>
              <parameter>
                <parameterid>font</parameterid>
                <name>Font</name>
                <value>MalgunGothicBold</value>
              </parameter>
              <parameter>
                <parameterid>style</parameterid>
                <name>Style</name>
                <valuemin>1</valuemin>
                <valuemax>1</valuemax>
                <valuelist>
                  <valueentry>
                    <name>Regular</name>
                    <value>1</value>
                  </valueentry>
                </valuelist>
                <value>1</value>
              </parameter>
              <parameter>
                <parameterid>align</parameterid>
                <name>Alignment</name>
                <valuemin>1</valuemin>
                <valuemax>3</valuemax>
                <valuelist>
                  <valueentry>
                    <name>Left</name>
                    <value>1</value>
                  </valueentry>
                  <valueentry>
                    <name>Center</name>
                    <value>2</value>
                  </valueentry>
                  <valueentry>
                    <name>Right</name>
                    <value>3</value>
                  </valueentry>
                </valuelist>
                <value>2</value>
              </parameter>
              <parameter>
                <parameterid>size</parameterid>
                <name>Size</name>
                <valuemin>0</valuemin>
                <valuemax>200</valuemax>
                <value>24</value>
              </parameter>
              <parameter>
                <parameterid>track</parameterid>
                <name>Tracking</name>
                <valuemin>0</valuemin>
                <valuemax>100</valuemax>
                <value>1</value>
              </parameter>
              <parameter>
                <parameterid>lead</parameterid>
                <name>Leading</name>
                <valuemin>-100</valuemin>
                <valuemax>100</valuemax>
                <value>0</value>
              </parameter>
              <parameter>
                <parameterid>aspect</parameterid>
                <name>Aspect</name>
                <valuemin>0</valuemin>
                <valuemax>4</valuemax>
                <value>1</value>
              </parameter>
              <parameter>
                <parameterid>linewidth</parameterid>
                <name>Line Width</name>
                <valuemin>0</valuemin>
                <valuemax>200</valuemax>
                <value>2</value>
              </parameter>
              <parameter>
                <parameterid>linesoft</parameterid>
                <name>Line Softness</name>
                <valuemin>0</valuemin>
                <valuemax>100</valuemax>
                <value>5</value>
              </parameter>
              <parameter>
                <parameterid>textopacity</parameterid>
                <name>Text Opacity</name>
                <valuemin>0</valuemin>
                <valuemax>100</valuemax>
                <value>100</value>
              </parameter>
              <parameter>
                <parameterid>center</parameterid>
                <name>Center</name>
                <value>
                  <horiz>0</horiz>
                  <vert>0.42592592592592593</vert>
                </value>
              </parameter>
              <parameter>
                <parameterid>textcolor</parameterid>
                <name>Text Color</name>
                <value>
                  <alpha>255</alpha>
                  <red>255</red>
                  <green>255</green>
                  <blue>255</blue>
                </value>
              </parameter>
              <parameter>
                <parameterid>supertext</parameterid>
                <name>Text Graphic</name>
              </parameter>
              <parameter>
                <parameterid>linecolor</parameterid>
                <name>Line Color</name>
                <value>
                  <alpha>255</alpha>
                  <red>0</red>
                  <green>0</green>
                  <blue>0</blue>
                </value>
              </parameter>
              <parameter>
                <parameterid>superline</parameterid>
                <name>Line Graphic</name>
              </parameter>
              <parameter>
                <parameterid>part2</parameterid>
                <name>Background Settings</name>
                <value/>
              </parameter>
              <parameter>
                <parameterid>xscale</parameterid>
                <name>Horizontal Size</name>
                <valuemin>0</valuemin>
                <valuemax>200</valuemax>
                <value>0</value>
              </parameter>
              <parameter>
                <parameterid>yscale</parameterid>
                <name>Vertical Size</name>
                <valuemin>0</valuemin>
                <valuemax>200</valuemax>
                <value>0</value>
              </parameter>
              <parameter>
                <parameterid>xoffset</parameterid>
                <name>Horizontal Offset</name>
                <valuemin>-100</valuemin>
                <valuemax>100</valuemax>
                <value>0</value>
              </parameter>
              <parameter>
                <parameterid>yoffset</parameterid>
                <name>Vertical Offset</name>
                <valuemin>-100</valuemin>
                <valuemax>100</valuemax>
                <value>0</value>
              </parameter>
              <parameter>
                <parameterid>backsoft</parameterid>
                <name>Back Soft</name>
                <valuemin>0</valuemin>
                <valuemax>100</valuemax>
                <value>0</value>
              </parameter>
              <parameter>
                <parameterid>backopacity</parameterid>
                <name>Back Opacity</name>
                <valuemin>0</valuemin>
                <valuemax>100</valuemax>
                <value>50</value>
              </parameter>
              <parameter>
                <parameterid>backcolor</parameterid>
                <name>Back Color</name>
                <value>
                  <alpha>255</alpha>
                  <red>255</red>
                  <green>255</green>
                  <blue>255</blue>
                </value>
              </parameter>
              <parameter>
                <parameterid>superback</parameterid>
                <name>Back Graphic</name>
              </parameter>
              <parameter>
                <parameterid>crop</parameterid>
                <name>Crop</name>
                <value>false</value>
              </parameter>
              <parameter>
                <parameterid>autokern</parameterid>
                <name>Auto Kerning</name>
                <value>true</value>
              </parameter>
            </effect>
            <sourcetrack>
              <mediatype>video</mediatype>
            </sourcetrack>
          </generatoritem>
          <generatoritem id="Outline Text1">
            <name>Outline Text</name>
            <duration>3801.3</duration>
            <rate>
              <timebase>30</timebase>
              <ntsc>false</ntsc>
            </rate>
            <start>1250.6999999999998</start>
            <end>1308.9</end>
            <in>1250.6999999999998</in>
            <out>1308.9</out>
            <enabled>true</enabled>
            <anamorphic>false</anamorphic>
            <alphatype>black</alphatype>
            <masterclipid>Outline Text1</masterclipid>
            <effect>
              <name>Outline Text</name>
              <effectid>Outline Text</effectid>
              <effectcategory>Text</effectcategory>
              <effecttype>generator</effecttype>
              <mediatype>video</mediatype>
              <parameter>
                <parameterid>part1</parameterid>
                <name>Text Settings</name>
                <value/>
              </parameter>
              <parameter>
                <parameterid>str</parameterid>
                <name>Text</name>
                <value>데이터 소파 테이블</value>
              </parameter>
              <parameter>
                <parameterid>font</parameterid>
                <name>Font</name>
                <value>MalgunGothicBold</value>
              </parameter>
              <parameter>
                <parameterid>style</parameterid>
                <name>Style</name>
                <valuemin>1</valuemin>
                <valuemax>1</valuemax>
                <valuelist>
                  <valueentry>
                    <name>Regular</name>
                    <value>1</value>
                  </valueentry>
                </valuelist>
                <value>1</value>
              </parameter>
              <parameter>
                <parameterid>align</parameterid>
                <name>Alignment</name>
                <valuemin>1</valuemin>
                <valuemax>3</valuemax>
                <valuelist>
                  <valueentry>
                    <name>Left</name>
                    <value>1</value>
                  </valueentry>
                  <valueentry>
                    <name>Center</name>
                    <value>2</value>
                  </valueentry>
                  <valueentry>
                    <name>Right</name>
                    <value>3</value>
                  </valueentry>
                </valuelist>
                <value>2</value>
              </parameter>
              <parameter>
                <parameterid>size</parameterid>
                <name>Size</name>
                <valuemin>0</valuemin>
                <valuemax>200</valuemax>
                <value>24</value>
              </parameter>
              <parameter>
                <parameterid>track</parameterid>
                <name>Tracking</name>
                <valuemin>0</valuemin>
                <valuemax>100</valuemax>
                <value>1</value>
              </parameter>
              <parameter>
                <parameterid>lead</parameterid>
                <name>Leading</name>
                <valuemin>-100</valuemin>
                <valuemax>100</valuemax>
                <value>0</value>
              </parameter>
              <parameter>
                <parameterid>aspect</parameterid>
                <name>Aspect</name>
                <valuemin>0</valuemin>
                <valuemax>4</valuemax>
                <value>1</value>
              </parameter>
              <parameter>
                <parameterid>linewidth</parameterid>
                <name>Line Width</name>
                <valuemin>0</valuemin>
                <valuemax>200</valuemax>
                <value>2</value>
              </parameter>
              <parameter>
                <parameterid>linesoft</parameterid>
                <name>Line Softness</name>
                <valuemin>0</valuemin>
                <valuemax>100</valuemax>
                <value>5</value>
              </parameter>
              <parameter>
                <parameterid>textopacity</parameterid>
                <name>Text Opacity</name>
                <valuemin>0</valuemin>
                <valuemax>100</valuemax>
                <value>100</value>
              </parameter>
              <parameter>
                <parameterid>center</parameterid>
                <name>Center</name>
                <value>
                  <horiz>0</horiz>
                  <vert>0.42592592592592593</vert>
                </value>
              </parameter>
              <parameter>
                <parameterid>textcolor</parameterid>
                <name>Text Color</name>
                <value>
                  <alpha>255</alpha>
                  <red>255</red>
                  <green>255</green>
                  <blue>255</blue>
                </value>
              </parameter>
              <parameter>
                <parameterid>supertext</parameterid>
                <name>Text Graphic</name>
              </parameter>
              <parameter>
                <parameterid>linecolor</parameterid>
                <name>Line Color</name>
                <value>
                  <alpha>255</alpha>
                  <red>0</red>
                  <green>0</green>
                  <blue>0</blue>
                </value>
              </parameter>
              <parameter>
                <parameterid>superline</parameterid>
                <name>Line Graphic</name>
              </parameter>
              <parameter>
                <parameterid>part2</parameterid>
                <name>Background Settings</name>
                <value/>
              </parameter>
              <parameter>
                <parameterid>xscale</parameterid>
                <name>Horizontal Size</name>
                <valuemin>0</valuemin>
                <valuemax>200</valuemax>
                <value>0</value>
              </parameter>
              <parameter>
                <parameterid>yscale</parameterid>
                <name>Vertical Size</name>
                <valuemin>0</valuemin>
                <valuemax>200</valuemax>
                <value>0</value>
              </parameter>
              <parameter>
                <parameterid>xoffset</parameterid>
                <name>Horizontal Offset</name>
                <valuemin>-100</valuemin>
                <valuemax>100</valuemax>
                <value>0</value>
              </parameter>
              <parameter>
                <parameterid>yoffset</parameterid>
                <name>Vertical Offset</name>
                <valuemin>-100</valuemin>
                <valuemax>100</valuemax>
                <value>0</value>
              </parameter>
              <parameter>
                <parameterid>backsoft</parameterid>
                <name>Back Soft</name>
                <valuemin>0</valuemin>
                <valuemax>100</valuemax>
                <value>0</value>
              </parameter>
              <parameter>
                <parameterid>backopacity</parameterid>
                <name>Back Opacity</name>
                <valuemin>0</valuemin>
                <valuemax>100</valuemax>
                <value>50</value>
              </parameter>
              <parameter>
                <parameterid>backcolor</parameterid>
                <name>Back Color</name>
                <value>
                  <alpha>255</alpha>
                  <red>255</red>
                  <green>255</green>
                  <blue>255</blue>
                </value>
              </parameter>
              <parameter>
                <parameterid>superback</parameterid>
                <name>Back Graphic</name>
              </parameter>
              <parameter>
                <parameterid>crop</parameterid>
                <name>Crop</name>
                <value>false</value>
              </parameter>
              <parameter>
                <parameterid>autokern</parameterid>
                <name>Auto Kerning</name>
                <value>true</value>
              </parameter>
            </effect>
            <sourcetrack>
              <mediatype>video</mediatype>
            </sourcetrack>
          </generatoritem>
          <generatoritem id="Outline Text1">
            <name>Outline Text</name>
            <duration>3801.3</duration>
            <rate>
              <timebase>30</timebase>
              <ntsc>false</ntsc>
            </rate>
            <start>1308.9</start>
            <end>1472.3999999999999</end>
            <in>1308.9</in>
            <out>1472.3999999999999</out>
            <enabled>true</enabled>
            <anamorphic>false</anamorphic>
            <alphatype>black</alphatype>
            <masterclipid>Outline Text1</masterclipid>
            <effect>
              <name>Outline Text</name>
              <effectid>Outline Text</effectid>
              <effectcategory>Text</effectcategory>
              <effecttype>generator</effecttype>
              <mediatype>video</mediatype>
              <parameter>
                <parameterid>part1</parameterid>
                <name>Text Settings</name>
                <value/>
              </parameter>
              <parameter>
                <parameterid>str</parameterid>
                <name>Text</name>
                <value>소파 테이블이 위로 올라오는 순간에 깜짝 놀랬습니다</value>
              </parameter>
              <parameter>
                <parameterid>font</parameterid>
                <name>Font</name>
                <value>MalgunGothicBold</value>
              </parameter>
              <parameter>
                <parameterid>style</parameterid>
                <name>Style</name>
                <valuemin>1</valuemin>
                <valuemax>1</valuemax>
                <valuelist>
                  <valueentry>
                    <name>Regular</name>
                    <value>1</value>
                  </valueentry>
                </valuelist>
                <value>1</value>
              </parameter>
              <parameter>
                <parameterid>align</parameterid>
                <name>Alignment</name>
                <valuemin>1</valuemin>
                <valuemax>3</valuemax>
                <valuelist>
                  <valueentry>
                    <name>Left</name>
                    <value>1</value>
                  </valueentry>
                  <valueentry>
                    <name>Center</name>
                    <value>2</value>
                  </valueentry>
                  <valueentry>
                    <name>Right</name>
                    <value>3</value>
                  </valueentry>
                </valuelist>
                <value>2</value>
              </parameter>
              <parameter>
                <parameterid>size</parameterid>
                <name>Size</name>
                <valuemin>0</valuemin>
                <valuemax>200</valuemax>
                <value>24</value>
              </parameter>
              <parameter>
                <parameterid>track</parameterid>
                <name>Tracking</name>
                <valuemin>0</valuemin>
                <valuemax>100</valuemax>
                <value>1</value>
              </parameter>
              <parameter>
                <parameterid>lead</parameterid>
                <name>Leading</name>
                <valuemin>-100</valuemin>
                <valuemax>100</valuemax>
                <value>0</value>
              </parameter>
              <parameter>
                <parameterid>aspect</parameterid>
                <name>Aspect</name>
                <valuemin>0</valuemin>
                <valuemax>4</valuemax>
                <value>1</value>
              </parameter>
              <parameter>
                <parameterid>linewidth</parameterid>
                <name>Line Width</name>
                <valuemin>0</valuemin>
                <valuemax>200</valuemax>
                <value>2</value>
              </parameter>
              <parameter>
                <parameterid>linesoft</parameterid>
                <name>Line Softness</name>
                <valuemin>0</valuemin>
                <valuemax>100</valuemax>
                <value>5</value>
              </parameter>
              <parameter>
                <parameterid>textopacity</parameterid>
                <name>Text Opacity</name>
                <valuemin>0</valuemin>
                <valuemax>100</valuemax>
                <value>100</value>
              </parameter>
              <parameter>
                <parameterid>center</parameterid>
                <name>Center</name>
                <value>
                  <horiz>0</horiz>
                  <vert>0.42592592592592593</vert>
                </value>
              </parameter>
              <parameter>
                <parameterid>textcolor</parameterid>
                <name>Text Color</name>
                <value>
                  <alpha>255</alpha>
                  <red>255</red>
                  <green>255</green>
                  <blue>255</blue>
                </value>
              </parameter>
              <parameter>
                <parameterid>supertext</parameterid>
                <name>Text Graphic</name>
              </parameter>
              <parameter>
                <parameterid>linecolor</parameterid>
                <name>Line Color</name>
                <value>
                  <alpha>255</alpha>
                  <red>0</red>
                  <green>0</green>
                  <blue>0</blue>
                </value>
              </parameter>
              <parameter>
                <parameterid>superline</parameterid>
                <name>Line Graphic</name>
              </parameter>
              <parameter>
                <parameterid>part2</parameterid>
                <name>Background Settings</name>
                <value/>
              </parameter>
              <parameter>
                <parameterid>xscale</parameterid>
                <name>Horizontal Size</name>
                <valuemin>0</valuemin>
                <valuemax>200</valuemax>
                <value>0</value>
              </parameter>
              <parameter>
                <parameterid>yscale</parameterid>
                <name>Vertical Size</name>
                <valuemin>0</valuemin>
                <valuemax>200</valuemax>
                <value>0</value>
              </parameter>
              <parameter>
                <parameterid>xoffset</parameterid>
                <name>Horizontal Offset</name>
                <valuemin>-100</valuemin>
                <valuemax>100</valuemax>
                <value>0</value>
              </parameter>
              <parameter>
                <parameterid>yoffset</parameterid>
                <name>Vertical Offset</name>
                <valuemin>-100</valuemin>
                <valuemax>100</valuemax>
                <value>0</value>
              </parameter>
              <parameter>
                <parameterid>backsoft</parameterid>
                <name>Back Soft</name>
                <valuemin>0</valuemin>
                <valuemax>100</valuemax>
                <value>0</value>
              </parameter>
              <parameter>
                <parameterid>backopacity</parameterid>
                <name>Back Opacity</name>
                <valuemin>0</valuemin>
                <valuemax>100</valuemax>
                <value>50</value>
              </parameter>
              <parameter>
                <parameterid>backcolor</parameterid>
                <name>Back Color</name>
                <value>
                  <alpha>255</alpha>
                  <red>255</red>
                  <green>255</green>
                  <blue>255</blue>
                </value>
              </parameter>
              <parameter>
                <parameterid>superback</parameterid>
                <name>Back Graphic</name>
              </parameter>
              <parameter>
                <parameterid>crop</parameterid>
                <name>Crop</name>
                <value>false</value>
              </parameter>
              <parameter>
                <parameterid>autokern</parameterid>
                <name>Auto Kerning</name>
                <value>true</value>
              </parameter>
            </effect>
            <sourcetrack>
              <mediatype>video</mediatype>
            </sourcetrack>
          </generatoritem>
          <generatoritem id="Outline Text1">
            <name>Outline Text</name>
            <duration>3801.3</duration>
            <rate>
              <timebase>30</timebase>
              <ntsc>false</ntsc>
            </rate>
            <start>1472.3999999999999</start>
            <end>1562.1</end>
            <in>1472.3999999999999</in>
            <out>1562.1</out>
            <enabled>true</enabled>
            <anamorphic>false</anamorphic>
            <alphatype>black</alphatype>
            <masterclipid>Outline Text1</masterclipid>
            <effect>
              <name>Outline Text</name>
              <effectid>Outline Text</effectid>
              <effectcategory>Text</effectcategory>
              <effecttype>generator</effecttype>
              <mediatype>video</mediatype>
              <parameter>
                <parameterid>part1</parameterid>
                <name>Text Settings</name>
                <value/>
              </parameter>
              <parameter>
                <parameterid>str</parameterid>
                <name>Text</name>
                <value>신용이라는 것이 이런 걸 두부만 하는 게 아닌가</value>
              </parameter>
              <parameter>
                <parameterid>font</parameterid>
                <name>Font</name>
                <value>MalgunGothicBold</value>
              </parameter>
              <parameter>
                <parameterid>style</parameterid>
                <name>Style</name>
                <valuemin>1</valuemin>
                <valuemax>1</valuemax>
                <valuelist>
                  <valueentry>
                    <name>Regular</name>
                    <value>1</value>
                  </valueentry>
                </valuelist>
                <value>1</value>
              </parameter>
              <parameter>
                <parameterid>align</parameterid>
                <name>Alignment</name>
                <valuemin>1</valuemin>
                <valuemax>3</valuemax>
                <valuelist>
                  <valueentry>
                    <name>Left</name>
                    <value>1</value>
                  </valueentry>
                  <valueentry>
                    <name>Center</name>
                    <value>2</value>
                  </valueentry>
                  <valueentry>
                    <name>Right</name>
                    <value>3</value>
                  </valueentry>
                </valuelist>
                <value>2</value>
              </parameter>
              <parameter>
                <parameterid>size</parameterid>
                <name>Size</name>
                <valuemin>0</valuemin>
                <valuemax>200</valuemax>
                <value>24</value>
              </parameter>
              <parameter>
                <parameterid>track</parameterid>
                <name>Tracking</name>
                <valuemin>0</valuemin>
                <valuemax>100</valuemax>
                <value>1</value>
              </parameter>
              <parameter>
                <parameterid>lead</parameterid>
                <name>Leading</name>
                <valuemin>-100</valuemin>
                <valuemax>100</valuemax>
                <value>0</value>
              </parameter>
              <parameter>
                <parameterid>aspect</parameterid>
                <name>Aspect</name>
                <valuemin>0</valuemin>
                <valuemax>4</valuemax>
                <value>1</value>
              </parameter>
              <parameter>
                <parameterid>linewidth</parameterid>
                <name>Line Width</name>
                <valuemin>0</valuemin>
                <valuemax>200</valuemax>
                <value>2</value>
              </parameter>
              <parameter>
                <parameterid>linesoft</parameterid>
                <name>Line Softness</name>
                <valuemin>0</valuemin>
                <valuemax>100</valuemax>
                <value>5</value>
              </parameter>
              <parameter>
                <parameterid>textopacity</parameterid>
                <name>Text Opacity</name>
                <valuemin>0</valuemin>
                <valuemax>100</valuemax>
                <value>100</value>
              </parameter>
              <parameter>
                <parameterid>center</parameterid>
                <name>Center</name>
                <value>
                  <horiz>0</horiz>
                  <vert>0.42592592592592593</vert>
                </value>
              </parameter>
              <parameter>
                <parameterid>textcolor</parameterid>
                <name>Text Color</name>
                <value>
                  <alpha>255</alpha>
                  <red>255</red>
                  <green>255</green>
                  <blue>255</blue>
                </value>
              </parameter>
              <parameter>
                <parameterid>supertext</parameterid>
                <name>Text Graphic</name>
              </parameter>
              <parameter>
                <parameterid>linecolor</parameterid>
                <name>Line Color</name>
                <value>
                  <alpha>255</alpha>
                  <red>0</red>
                  <green>0</green>
                  <blue>0</blue>
                </value>
              </parameter>
              <parameter>
                <parameterid>superline</parameterid>
                <name>Line Graphic</name>
              </parameter>
              <parameter>
                <parameterid>part2</parameterid>
                <name>Background Settings</name>
                <value/>
              </parameter>
              <parameter>
                <parameterid>xscale</parameterid>
                <name>Horizontal Size</name>
                <valuemin>0</valuemin>
                <valuemax>200</valuemax>
                <value>0</value>
              </parameter>
              <parameter>
                <parameterid>yscale</parameterid>
                <name>Vertical Size</name>
                <valuemin>0</valuemin>
                <valuemax>200</valuemax>
                <value>0</value>
              </parameter>
              <parameter>
                <parameterid>xoffset</parameterid>
                <name>Horizontal Offset</name>
                <valuemin>-100</valuemin>
                <valuemax>100</valuemax>
                <value>0</value>
              </parameter>
              <parameter>
                <parameterid>yoffset</parameterid>
                <name>Vertical Offset</name>
                <valuemin>-100</valuemin>
                <valuemax>100</valuemax>
                <value>0</value>
              </parameter>
              <parameter>
                <parameterid>backsoft</parameterid>
                <name>Back Soft</name>
                <valuemin>0</valuemin>
                <valuemax>100</valuemax>
                <value>0</value>
              </parameter>
              <parameter>
                <parameterid>backopacity</parameterid>
                <name>Back Opacity</name>
                <valuemin>0</valuemin>
                <valuemax>100</valuemax>
                <value>50</value>
              </parameter>
              <parameter>
                <parameterid>backcolor</parameterid>
                <name>Back Color</name>
                <value>
                  <alpha>255</alpha>
                  <red>255</red>
                  <green>255</green>
                  <blue>255</blue>
                </value>
              </parameter>
              <parameter>
                <parameterid>superback</parameterid>
                <name>Back Graphic</name>
              </parameter>
              <parameter>
                <parameterid>crop</parameterid>
                <name>Crop</name>
                <value>false</value>
              </parameter>
              <parameter>
                <parameterid>autokern</parameterid>
                <name>Auto Kerning</name>
                <value>true</value>
              </parameter>
            </effect>
            <sourcetrack>
              <mediatype>video</mediatype>
            </sourcetrack>
          </generatoritem>
          <generatoritem id="Outline Text1">
            <name>Outline Text</name>
            <duration>3801.3</duration>
            <rate>
              <timebase>30</timebase>
              <ntsc>false</ntsc>
            </rate>
            <start>1562.1</start>
            <end>1629.6</end>
            <in>1562.1</in>
            <out>1629.6</out>
            <enabled>true</enabled>
            <anamorphic>false</anamorphic>
            <alphatype>black</alphatype>
            <masterclipid>Outline Text1</masterclipid>
            <effect>
              <name>Outline Text</name>
              <effectid>Outline Text</effectid>
              <effectcategory>Text</effectcategory>
              <effecttype>generator</effecttype>
              <mediatype>video</mediatype>
              <parameter>
                <parameterid>part1</parameterid>
                <name>Text Settings</name>
                <value/>
              </parameter>
              <parameter>
                <parameterid>str</parameterid>
                <name>Text</name>
                <value>라는 생각이 들 정도로 정말 실용적이다</value>
              </parameter>
              <parameter>
                <parameterid>font</parameterid>
                <name>Font</name>
                <value>MalgunGothicBold</value>
              </parameter>
              <parameter>
                <parameterid>style</parameterid>
                <name>Style</name>
                <valuemin>1</valuemin>
                <valuemax>1</valuemax>
                <valuelist>
                  <valueentry>
                    <name>Regular</name>
                    <value>1</value>
                  </valueentry>
                </valuelist>
                <value>1</value>
              </parameter>
              <parameter>
                <parameterid>align</parameterid>
                <name>Alignment</name>
                <valuemin>1</valuemin>
                <valuemax>3</valuemax>
                <valuelist>
                  <valueentry>
                    <name>Left</name>
                    <value>1</value>
                  </valueentry>
                  <valueentry>
                    <name>Center</name>
                    <value>2</value>
                  </valueentry>
                  <valueentry>
                    <name>Right</name>
                    <value>3</value>
                  </valueentry>
                </valuelist>
                <value>2</value>
              </parameter>
              <parameter>
                <parameterid>size</parameterid>
                <name>Size</name>
                <valuemin>0</valuemin>
                <valuemax>200</valuemax>
                <value>24</value>
              </parameter>
              <parameter>
                <parameterid>track</parameterid>
                <name>Tracking</name>
                <valuemin>0</valuemin>
                <valuemax>100</valuemax>
                <value>1</value>
              </parameter>
              <parameter>
                <parameterid>lead</parameterid>
                <name>Leading</name>
                <valuemin>-100</valuemin>
                <valuemax>100</valuemax>
                <value>0</value>
              </parameter>
              <parameter>
                <parameterid>aspect</parameterid>
                <name>Aspect</name>
                <valuemin>0</valuemin>
                <valuemax>4</valuemax>
                <value>1</value>
              </parameter>
              <parameter>
                <parameterid>linewidth</parameterid>
                <name>Line Width</name>
                <valuemin>0</valuemin>
                <valuemax>200</valuemax>
                <value>2</value>
              </parameter>
              <parameter>
                <parameterid>linesoft</parameterid>
                <name>Line Softness</name>
                <valuemin>0</valuemin>
                <valuemax>100</valuemax>
                <value>5</value>
              </parameter>
              <parameter>
                <parameterid>textopacity</parameterid>
                <name>Text Opacity</name>
                <valuemin>0</valuemin>
                <valuemax>100</valuemax>
                <value>100</value>
              </parameter>
              <parameter>
                <parameterid>center</parameterid>
                <name>Center</name>
                <value>
                  <horiz>0</horiz>
                  <vert>0.42592592592592593</vert>
                </value>
              </parameter>
              <parameter>
                <parameterid>textcolor</parameterid>
                <name>Text Color</name>
                <value>
                  <alpha>255</alpha>
                  <red>255</red>
                  <green>255</green>
                  <blue>255</blue>
                </value>
              </parameter>
              <parameter>
                <parameterid>supertext</parameterid>
                <name>Text Graphic</name>
              </parameter>
              <parameter>
                <parameterid>linecolor</parameterid>
                <name>Line Color</name>
                <value>
                  <alpha>255</alpha>
                  <red>0</red>
                  <green>0</green>
                  <blue>0</blue>
                </value>
              </parameter>
              <parameter>
                <parameterid>superline</parameterid>
                <name>Line Graphic</name>
              </parameter>
              <parameter>
                <parameterid>part2</parameterid>
                <name>Background Settings</name>
                <value/>
              </parameter>
              <parameter>
                <parameterid>xscale</parameterid>
                <name>Horizontal Size</name>
                <valuemin>0</valuemin>
                <valuemax>200</valuemax>
                <value>0</value>
              </parameter>
              <parameter>
                <parameterid>yscale</parameterid>
                <name>Vertical Size</name>
                <valuemin>0</valuemin>
                <valuemax>200</valuemax>
                <value>0</value>
              </parameter>
              <parameter>
                <parameterid>xoffset</parameterid>
                <name>Horizontal Offset</name>
                <valuemin>-100</valuemin>
                <valuemax>100</valuemax>
                <value>0</value>
              </parameter>
              <parameter>
                <parameterid>yoffset</parameterid>
                <name>Vertical Offset</name>
                <valuemin>-100</valuemin>
                <valuemax>100</valuemax>
                <value>0</value>
              </parameter>
              <parameter>
                <parameterid>backsoft</parameterid>
                <name>Back Soft</name>
                <valuemin>0</valuemin>
                <valuemax>100</valuemax>
                <value>0</value>
              </parameter>
              <parameter>
                <parameterid>backopacity</parameterid>
                <name>Back Opacity</name>
                <valuemin>0</valuemin>
                <valuemax>100</valuemax>
                <value>50</value>
              </parameter>
              <parameter>
                <parameterid>backcolor</parameterid>
                <name>Back Color</name>
                <value>
                  <alpha>255</alpha>
                  <red>255</red>
                  <green>255</green>
                  <blue>255</blue>
                </value>
              </parameter>
              <parameter>
                <parameterid>superback</parameterid>
                <name>Back Graphic</name>
              </parameter>
              <parameter>
                <parameterid>crop</parameterid>
                <name>Crop</name>
                <value>false</value>
              </parameter>
              <parameter>
                <parameterid>autokern</parameterid>
                <name>Auto Kerning</name>
                <value>true</value>
              </parameter>
            </effect>
            <sourcetrack>
              <mediatype>video</mediatype>
            </sourcetrack>
          </generatoritem>
          <generatoritem id="Outline Text1">
            <name>Outline Text</name>
            <duration>3801.3</duration>
            <rate>
              <timebase>30</timebase>
              <ntsc>false</ntsc>
            </rate>
            <start>1629.6</start>
            <end>1686.6</end>
            <in>1629.6</in>
            <out>1686.6</out>
            <enabled>true</enabled>
            <anamorphic>false</anamorphic>
            <alphatype>black</alphatype>
            <masterclipid>Outline Text1</masterclipid>
            <effect>
              <name>Outline Text</name>
              <effectid>Outline Text</effectid>
              <effectcategory>Text</effectcategory>
              <effecttype>generator</effecttype>
              <mediatype>video</mediatype>
              <parameter>
                <parameterid>part1</parameterid>
                <name>Text Settings</name>
                <value/>
              </parameter>
              <parameter>
                <parameterid>str</parameterid>
                <name>Text</name>
                <value>라는 생각을 했고요</value>
              </parameter>
              <parameter>
                <parameterid>font</parameterid>
                <name>Font</name>
                <value>MalgunGothicBold</value>
              </parameter>
              <parameter>
                <parameterid>style</parameterid>
                <name>Style</name>
                <valuemin>1</valuemin>
                <valuemax>1</valuemax>
                <valuelist>
                  <valueentry>
                    <name>Regular</name>
                    <value>1</value>
                  </valueentry>
                </valuelist>
                <value>1</value>
              </parameter>
              <parameter>
                <parameterid>align</parameterid>
                <name>Alignment</name>
                <valuemin>1</valuemin>
                <valuemax>3</valuemax>
                <valuelist>
                  <valueentry>
                    <name>Left</name>
                    <value>1</value>
                  </valueentry>
                  <valueentry>
                    <name>Center</name>
                    <value>2</value>
                  </valueentry>
                  <valueentry>
                    <name>Right</name>
                    <value>3</value>
                  </valueentry>
                </valuelist>
                <value>2</value>
              </parameter>
              <parameter>
                <parameterid>size</parameterid>
                <name>Size</name>
                <valuemin>0</valuemin>
                <valuemax>200</valuemax>
                <value>24</value>
              </parameter>
              <parameter>
                <parameterid>track</parameterid>
                <name>Tracking</name>
                <valuemin>0</valuemin>
                <valuemax>100</valuemax>
                <value>1</value>
              </parameter>
              <parameter>
                <parameterid>lead</parameterid>
                <name>Leading</name>
                <valuemin>-100</valuemin>
                <valuemax>100</valuemax>
                <value>0</value>
              </parameter>
              <parameter>
                <parameterid>aspect</parameterid>
                <name>Aspect</name>
                <valuemin>0</valuemin>
                <valuemax>4</valuemax>
                <value>1</value>
              </parameter>
              <parameter>
                <parameterid>linewidth</parameterid>
                <name>Line Width</name>
                <valuemin>0</valuemin>
                <valuemax>200</valuemax>
                <value>2</value>
              </parameter>
              <parameter>
                <parameterid>linesoft</parameterid>
                <name>Line Softness</name>
                <valuemin>0</valuemin>
                <valuemax>100</valuemax>
                <value>5</value>
              </parameter>
              <parameter>
                <parameterid>textopacity</parameterid>
                <name>Text Opacity</name>
                <valuemin>0</valuemin>
                <valuemax>100</valuemax>
                <value>100</value>
              </parameter>
              <parameter>
                <parameterid>center</parameterid>
                <name>Center</name>
                <value>
                  <horiz>0</horiz>
                  <vert>0.42592592592592593</vert>
                </value>
              </parameter>
              <parameter>
                <parameterid>textcolor</parameterid>
                <name>Text Color</name>
                <value>
                  <alpha>255</alpha>
                  <red>255</red>
                  <green>255</green>
                  <blue>255</blue>
                </value>
              </parameter>
              <parameter>
                <parameterid>supertext</parameterid>
                <name>Text Graphic</name>
              </parameter>
              <parameter>
                <parameterid>linecolor</parameterid>
                <name>Line Color</name>
                <value>
                  <alpha>255</alpha>
                  <red>0</red>
                  <green>0</green>
                  <blue>0</blue>
                </value>
              </parameter>
              <parameter>
                <parameterid>superline</parameterid>
                <name>Line Graphic</name>
              </parameter>
              <parameter>
                <parameterid>part2</parameterid>
                <name>Background Settings</name>
                <value/>
              </parameter>
              <parameter>
                <parameterid>xscale</parameterid>
                <name>Horizontal Size</name>
                <valuemin>0</valuemin>
                <valuemax>200</valuemax>
                <value>0</value>
              </parameter>
              <parameter>
                <parameterid>yscale</parameterid>
                <name>Vertical Size</name>
                <valuemin>0</valuemin>
                <valuemax>200</valuemax>
                <value>0</value>
              </parameter>
              <parameter>
                <parameterid>xoffset</parameterid>
                <name>Horizontal Offset</name>
                <valuemin>-100</valuemin>
                <valuemax>100</valuemax>
                <value>0</value>
              </parameter>
              <parameter>
                <parameterid>yoffset</parameterid>
                <name>Vertical Offset</name>
                <valuemin>-100</valuemin>
                <valuemax>100</valuemax>
                <value>0</value>
              </parameter>
              <parameter>
                <parameterid>backsoft</parameterid>
                <name>Back Soft</name>
                <valuemin>0</valuemin>
                <valuemax>100</valuemax>
                <value>0</value>
              </parameter>
              <parameter>
                <parameterid>backopacity</parameterid>
                <name>Back Opacity</name>
                <valuemin>0</valuemin>
                <valuemax>100</valuemax>
                <value>50</value>
              </parameter>
              <parameter>
                <parameterid>backcolor</parameterid>
                <name>Back Color</name>
                <value>
                  <alpha>255</alpha>
                  <red>255</red>
                  <green>255</green>
                  <blue>255</blue>
                </value>
              </parameter>
              <parameter>
                <parameterid>superback</parameterid>
                <name>Back Graphic</name>
              </parameter>
              <parameter>
                <parameterid>crop</parameterid>
                <name>Crop</name>
                <value>false</value>
              </parameter>
              <parameter>
                <parameterid>autokern</parameterid>
                <name>Auto Kerning</name>
                <value>true</value>
              </parameter>
            </effect>
            <sourcetrack>
              <mediatype>video</mediatype>
            </sourcetrack>
          </generatoritem>
          <generatoritem id="Outline Text1">
            <name>Outline Text</name>
            <duration>3801.3</duration>
            <rate>
              <timebase>30</timebase>
              <ntsc>false</ntsc>
            </rate>
            <start>1686.6</start>
            <end>1817.1</end>
            <in>1686.6</in>
            <out>1817.1</out>
            <enabled>true</enabled>
            <anamorphic>false</anamorphic>
            <alphatype>black</alphatype>
            <masterclipid>Outline Text1</masterclipid>
            <effect>
              <name>Outline Text</name>
              <effectid>Outline Text</effectid>
              <effectcategory>Text</effectcategory>
              <effecttype>generator</effecttype>
              <mediatype>video</mediatype>
              <parameter>
                <parameterid>part1</parameterid>
                <name>Text Settings</name>
                <value/>
              </parameter>
              <parameter>
                <parameterid>str</parameterid>
                <name>Text</name>
                <value>소파에 앉아서 TV 를 노트북으로 인터넷 하고</value>
              </parameter>
              <parameter>
                <parameterid>font</parameterid>
                <name>Font</name>
                <value>MalgunGothicBold</value>
              </parameter>
              <parameter>
                <parameterid>style</parameterid>
                <name>Style</name>
                <valuemin>1</valuemin>
                <valuemax>1</valuemax>
                <valuelist>
                  <valueentry>
                    <name>Regular</name>
                    <value>1</value>
                  </valueentry>
                </valuelist>
                <value>1</value>
              </parameter>
              <parameter>
                <parameterid>align</parameterid>
                <name>Alignment</name>
                <valuemin>1</valuemin>
                <valuemax>3</valuemax>
                <valuelist>
                  <valueentry>
                    <name>Left</name>
                    <value>1</value>
                  </valueentry>
                  <valueentry>
                    <name>Center</name>
                    <value>2</value>
                  </valueentry>
                  <valueentry>
                    <name>Right</name>
                    <value>3</value>
                  </valueentry>
                </valuelist>
                <value>2</value>
              </parameter>
              <parameter>
                <parameterid>size</parameterid>
                <name>Size</name>
                <valuemin>0</valuemin>
                <valuemax>200</valuemax>
                <value>24</value>
              </parameter>
              <parameter>
                <parameterid>track</parameterid>
                <name>Tracking</name>
                <valuemin>0</valuemin>
                <valuemax>100</valuemax>
                <value>1</value>
              </parameter>
              <parameter>
                <parameterid>lead</parameterid>
                <name>Leading</name>
                <valuemin>-100</valuemin>
                <valuemax>100</valuemax>
                <value>0</value>
              </parameter>
              <parameter>
                <parameterid>aspect</parameterid>
                <name>Aspect</name>
                <valuemin>0</valuemin>
                <valuemax>4</valuemax>
                <value>1</value>
              </parameter>
              <parameter>
                <parameterid>linewidth</parameterid>
                <name>Line Width</name>
                <valuemin>0</valuemin>
                <valuemax>200</valuemax>
                <value>2</value>
              </parameter>
              <parameter>
                <parameterid>linesoft</parameterid>
                <name>Line Softness</name>
                <valuemin>0</valuemin>
                <valuemax>100</valuemax>
                <value>5</value>
              </parameter>
              <parameter>
                <parameterid>textopacity</parameterid>
                <name>Text Opacity</name>
                <valuemin>0</valuemin>
                <valuemax>100</valuemax>
                <value>100</value>
              </parameter>
              <parameter>
                <parameterid>center</parameterid>
                <name>Center</name>
                <value>
                  <horiz>0</horiz>
                  <vert>0.42592592592592593</vert>
                </value>
              </parameter>
              <parameter>
                <parameterid>textcolor</parameterid>
                <name>Text Color</name>
                <value>
                  <alpha>255</alpha>
                  <red>255</red>
                  <green>255</green>
                  <blue>255</blue>
                </value>
              </parameter>
              <parameter>
                <parameterid>supertext</parameterid>
                <name>Text Graphic</name>
              </parameter>
              <parameter>
                <parameterid>linecolor</parameterid>
                <name>Line Color</name>
                <value>
                  <alpha>255</alpha>
                  <red>0</red>
                  <green>0</green>
                  <blue>0</blue>
                </value>
              </parameter>
              <parameter>
                <parameterid>superline</parameterid>
                <name>Line Graphic</name>
              </parameter>
              <parameter>
                <parameterid>part2</parameterid>
                <name>Background Settings</name>
                <value/>
              </parameter>
              <parameter>
                <parameterid>xscale</parameterid>
                <name>Horizontal Size</name>
                <valuemin>0</valuemin>
                <valuemax>200</valuemax>
                <value>0</value>
              </parameter>
              <parameter>
                <parameterid>yscale</parameterid>
                <name>Vertical Size</name>
                <valuemin>0</valuemin>
                <valuemax>200</valuemax>
                <value>0</value>
              </parameter>
              <parameter>
                <parameterid>xoffset</parameterid>
                <name>Horizontal Offset</name>
                <valuemin>-100</valuemin>
                <valuemax>100</valuemax>
                <value>0</value>
              </parameter>
              <parameter>
                <parameterid>yoffset</parameterid>
                <name>Vertical Offset</name>
                <valuemin>-100</valuemin>
                <valuemax>100</valuemax>
                <value>0</value>
              </parameter>
              <parameter>
                <parameterid>backsoft</parameterid>
                <name>Back Soft</name>
                <valuemin>0</valuemin>
                <valuemax>100</valuemax>
                <value>0</value>
              </parameter>
              <parameter>
                <parameterid>backopacity</parameterid>
                <name>Back Opacity</name>
                <valuemin>0</valuemin>
                <valuemax>100</valuemax>
                <value>50</value>
              </parameter>
              <parameter>
                <parameterid>backcolor</parameterid>
                <name>Back Color</name>
                <value>
                  <alpha>255</alpha>
                  <red>255</red>
                  <green>255</green>
                  <blue>255</blue>
                </value>
              </parameter>
              <parameter>
                <parameterid>superback</parameterid>
                <name>Back Graphic</name>
              </parameter>
              <parameter>
                <parameterid>crop</parameterid>
                <name>Crop</name>
                <value>false</value>
              </parameter>
              <parameter>
                <parameterid>autokern</parameterid>
                <name>Auto Kerning</name>
                <value>true</value>
              </parameter>
            </effect>
            <sourcetrack>
              <mediatype>video</mediatype>
            </sourcetrack>
          </generatoritem>
          <generatoritem id="Outline Text1">
            <name>Outline Text</name>
            <duration>3801.3</duration>
            <rate>
              <timebase>30</timebase>
              <ntsc>false</ntsc>
            </rate>
            <start>1817.1</start>
            <end>1888.1999999999998</end>
            <in>1817.1</in>
            <out>1888.1999999999998</out>
            <enabled>true</enabled>
            <anamorphic>false</anamorphic>
            <alphatype>black</alphatype>
            <masterclipid>Outline Text1</masterclipid>
            <effect>
              <name>Outline Text</name>
              <effectid>Outline Text</effectid>
              <effectcategory>Text</effectcategory>
              <effecttype>generator</effecttype>
              <mediatype>video</mediatype>
              <parameter>
                <parameterid>part1</parameterid>
                <name>Text Settings</name>
                <value/>
              </parameter>
              <parameter>
                <parameterid>str</parameterid>
                <name>Text</name>
                <value>그리고 자잘한 소품들은 소파</value>
              </parameter>
              <parameter>
                <parameterid>font</parameterid>
                <name>Font</name>
                <value>MalgunGothicBold</value>
              </parameter>
              <parameter>
                <parameterid>style</parameterid>
                <name>Style</name>
                <valuemin>1</valuemin>
                <valuemax>1</valuemax>
                <valuelist>
                  <valueentry>
                    <name>Regular</name>
                    <value>1</value>
                  </valueentry>
                </valuelist>
                <value>1</value>
              </parameter>
              <parameter>
                <parameterid>align</parameterid>
                <name>Alignment</name>
                <valuemin>1</valuemin>
                <valuemax>3</valuemax>
                <valuelist>
                  <valueentry>
                    <name>Left</name>
                    <value>1</value>
                  </valueentry>
                  <valueentry>
                    <name>Center</name>
                    <value>2</value>
                  </valueentry>
                  <valueentry>
                    <name>Right</name>
                    <value>3</value>
                  </valueentry>
                </valuelist>
                <value>2</value>
              </parameter>
              <parameter>
                <parameterid>size</parameterid>
                <name>Size</name>
                <valuemin>0</valuemin>
                <valuemax>200</valuemax>
                <value>24</value>
              </parameter>
              <parameter>
                <parameterid>track</parameterid>
                <name>Tracking</name>
                <valuemin>0</valuemin>
                <valuemax>100</valuemax>
                <value>1</value>
              </parameter>
              <parameter>
                <parameterid>lead</parameterid>
                <name>Leading</name>
                <valuemin>-100</valuemin>
                <valuemax>100</valuemax>
                <value>0</value>
              </parameter>
              <parameter>
                <parameterid>aspect</parameterid>
                <name>Aspect</name>
                <valuemin>0</valuemin>
                <valuemax>4</valuemax>
                <value>1</value>
              </parameter>
              <parameter>
                <parameterid>linewidth</parameterid>
                <name>Line Width</name>
                <valuemin>0</valuemin>
                <valuemax>200</valuemax>
                <value>2</value>
              </parameter>
              <parameter>
                <parameterid>linesoft</parameterid>
                <name>Line Softness</name>
                <valuemin>0</valuemin>
                <valuemax>100</valuemax>
                <value>5</value>
              </parameter>
              <parameter>
                <parameterid>textopacity</parameterid>
                <name>Text Opacity</name>
                <valuemin>0</valuemin>
                <valuemax>100</valuemax>
                <value>100</value>
              </parameter>
              <parameter>
                <parameterid>center</parameterid>
                <name>Center</name>
                <value>
                  <horiz>0</horiz>
                  <vert>0.42592592592592593</vert>
                </value>
              </parameter>
              <parameter>
                <parameterid>textcolor</parameterid>
                <name>Text Color</name>
                <value>
                  <alpha>255</alpha>
                  <red>255</red>
                  <green>255</green>
                  <blue>255</blue>
                </value>
              </parameter>
              <parameter>
                <parameterid>supertext</parameterid>
                <name>Text Graphic</name>
              </parameter>
              <parameter>
                <parameterid>linecolor</parameterid>
                <name>Line Color</name>
                <value>
                  <alpha>255</alpha>
                  <red>0</red>
                  <green>0</green>
                  <blue>0</blue>
                </value>
              </parameter>
              <parameter>
                <parameterid>superline</parameterid>
                <name>Line Graphic</name>
              </parameter>
              <parameter>
                <parameterid>part2</parameterid>
                <name>Background Settings</name>
                <value/>
              </parameter>
              <parameter>
                <parameterid>xscale</parameterid>
                <name>Horizontal Size</name>
                <valuemin>0</valuemin>
                <valuemax>200</valuemax>
                <value>0</value>
              </parameter>
              <parameter>
                <parameterid>yscale</parameterid>
                <name>Vertical Size</name>
                <valuemin>0</valuemin>
                <valuemax>200</valuemax>
                <value>0</value>
              </parameter>
              <parameter>
                <parameterid>xoffset</parameterid>
                <name>Horizontal Offset</name>
                <valuemin>-100</valuemin>
                <valuemax>100</valuemax>
                <value>0</value>
              </parameter>
              <parameter>
                <parameterid>yoffset</parameterid>
                <name>Vertical Offset</name>
                <valuemin>-100</valuemin>
                <valuemax>100</valuemax>
                <value>0</value>
              </parameter>
              <parameter>
                <parameterid>backsoft</parameterid>
                <name>Back Soft</name>
                <valuemin>0</valuemin>
                <valuemax>100</valuemax>
                <value>0</value>
              </parameter>
              <parameter>
                <parameterid>backopacity</parameterid>
                <name>Back Opacity</name>
                <valuemin>0</valuemin>
                <valuemax>100</valuemax>
                <value>50</value>
              </parameter>
              <parameter>
                <parameterid>backcolor</parameterid>
                <name>Back Color</name>
                <value>
                  <alpha>255</alpha>
                  <red>255</red>
                  <green>255</green>
                  <blue>255</blue>
                </value>
              </parameter>
              <parameter>
                <parameterid>superback</parameterid>
                <name>Back Graphic</name>
              </parameter>
              <parameter>
                <parameterid>crop</parameterid>
                <name>Crop</name>
                <value>false</value>
              </parameter>
              <parameter>
                <parameterid>autokern</parameterid>
                <name>Auto Kerning</name>
                <value>true</value>
              </parameter>
            </effect>
            <sourcetrack>
              <mediatype>video</mediatype>
            </sourcetrack>
          </generatoritem>
          <generatoritem id="Outline Text1">
            <name>Outline Text</name>
            <duration>3801.3</duration>
            <rate>
              <timebase>30</timebase>
              <ntsc>false</ntsc>
            </rate>
            <start>1888.1999999999998</start>
            <end>1962.0000000000002</end>
            <in>1888.1999999999998</in>
            <out>1962.0000000000002</out>
            <enabled>true</enabled>
            <anamorphic>false</anamorphic>
            <alphatype>black</alphatype>
            <masterclipid>Outline Text1</masterclipid>
            <effect>
              <name>Outline Text</name>
              <effectid>Outline Text</effectid>
              <effectcategory>Text</effectcategory>
              <effecttype>generator</effecttype>
              <mediatype>video</mediatype>
              <parameter>
                <parameterid>part1</parameterid>
                <name>Text Settings</name>
                <value/>
              </parameter>
              <parameter>
                <parameterid>str</parameterid>
                <name>Text</name>
                <value>테이블 밑에 수납도 가능하구요</value>
              </parameter>
              <parameter>
                <parameterid>font</parameterid>
                <name>Font</name>
                <value>MalgunGothicBold</value>
              </parameter>
              <parameter>
                <parameterid>style</parameterid>
                <name>Style</name>
                <valuemin>1</valuemin>
                <valuemax>1</valuemax>
                <valuelist>
                  <valueentry>
                    <name>Regular</name>
                    <value>1</value>
                  </valueentry>
                </valuelist>
                <value>1</value>
              </parameter>
              <parameter>
                <parameterid>align</parameterid>
                <name>Alignment</name>
                <valuemin>1</valuemin>
                <valuemax>3</valuemax>
                <valuelist>
                  <valueentry>
                    <name>Left</name>
                    <value>1</value>
                  </valueentry>
                  <valueentry>
                    <name>Center</name>
                    <value>2</value>
                  </valueentry>
                  <valueentry>
                    <name>Right</name>
                    <value>3</value>
                  </valueentry>
                </valuelist>
                <value>2</value>
              </parameter>
              <parameter>
                <parameterid>size</parameterid>
                <name>Size</name>
                <valuemin>0</valuemin>
                <valuemax>200</valuemax>
                <value>24</value>
              </parameter>
              <parameter>
                <parameterid>track</parameterid>
                <name>Tracking</name>
                <valuemin>0</valuemin>
                <valuemax>100</valuemax>
                <value>1</value>
              </parameter>
              <parameter>
                <parameterid>lead</parameterid>
                <name>Leading</name>
                <valuemin>-100</valuemin>
                <valuemax>100</valuemax>
                <value>0</value>
              </parameter>
              <parameter>
                <parameterid>aspect</parameterid>
                <name>Aspect</name>
                <valuemin>0</valuemin>
                <valuemax>4</valuemax>
                <value>1</value>
              </parameter>
              <parameter>
                <parameterid>linewidth</parameterid>
                <name>Line Width</name>
                <valuemin>0</valuemin>
                <valuemax>200</valuemax>
                <value>2</value>
              </parameter>
              <parameter>
                <parameterid>linesoft</parameterid>
                <name>Line Softness</name>
                <valuemin>0</valuemin>
                <valuemax>100</valuemax>
                <value>5</value>
              </parameter>
              <parameter>
                <parameterid>textopacity</parameterid>
                <name>Text Opacity</name>
                <valuemin>0</valuemin>
                <valuemax>100</valuemax>
                <value>100</value>
              </parameter>
              <parameter>
                <parameterid>center</parameterid>
                <name>Center</name>
                <value>
                  <horiz>0</horiz>
                  <vert>0.42592592592592593</vert>
                </value>
              </parameter>
              <parameter>
                <parameterid>textcolor</parameterid>
                <name>Text Color</name>
                <value>
                  <alpha>255</alpha>
                  <red>255</red>
                  <green>255</green>
                  <blue>255</blue>
                </value>
              </parameter>
              <parameter>
                <parameterid>supertext</parameterid>
                <name>Text Graphic</name>
              </parameter>
              <parameter>
                <parameterid>linecolor</parameterid>
                <name>Line Color</name>
                <value>
                  <alpha>255</alpha>
                  <red>0</red>
                  <green>0</green>
                  <blue>0</blue>
                </value>
              </parameter>
              <parameter>
                <parameterid>superline</parameterid>
                <name>Line Graphic</name>
              </parameter>
              <parameter>
                <parameterid>part2</parameterid>
                <name>Background Settings</name>
                <value/>
              </parameter>
              <parameter>
                <parameterid>xscale</parameterid>
                <name>Horizontal Size</name>
                <valuemin>0</valuemin>
                <valuemax>200</valuemax>
                <value>0</value>
              </parameter>
              <parameter>
                <parameterid>yscale</parameterid>
                <name>Vertical Size</name>
                <valuemin>0</valuemin>
                <valuemax>200</valuemax>
                <value>0</value>
              </parameter>
              <parameter>
                <parameterid>xoffset</parameterid>
                <name>Horizontal Offset</name>
                <valuemin>-100</valuemin>
                <valuemax>100</valuemax>
                <value>0</value>
              </parameter>
              <parameter>
                <parameterid>yoffset</parameterid>
                <name>Vertical Offset</name>
                <valuemin>-100</valuemin>
                <valuemax>100</valuemax>
                <value>0</value>
              </parameter>
              <parameter>
                <parameterid>backsoft</parameterid>
                <name>Back Soft</name>
                <valuemin>0</valuemin>
                <valuemax>100</valuemax>
                <value>0</value>
              </parameter>
              <parameter>
                <parameterid>backopacity</parameterid>
                <name>Back Opacity</name>
                <valuemin>0</valuemin>
                <valuemax>100</valuemax>
                <value>50</value>
              </parameter>
              <parameter>
                <parameterid>backcolor</parameterid>
                <name>Back Color</name>
                <value>
                  <alpha>255</alpha>
                  <red>255</red>
                  <green>255</green>
                  <blue>255</blue>
                </value>
              </parameter>
              <parameter>
                <parameterid>superback</parameterid>
                <name>Back Graphic</name>
              </parameter>
              <parameter>
                <parameterid>crop</parameterid>
                <name>Crop</name>
                <value>false</value>
              </parameter>
              <parameter>
                <parameterid>autokern</parameterid>
                <name>Auto Kerning</name>
                <value>true</value>
              </parameter>
            </effect>
            <sourcetrack>
              <mediatype>video</mediatype>
            </sourcetrack>
          </generatoritem>
          <generatoritem id="Outline Text1">
            <name>Outline Text</name>
            <duration>3801.3</duration>
            <rate>
              <timebase>30</timebase>
              <ntsc>false</ntsc>
            </rate>
            <start>1962.0000000000002</start>
            <end>2074.5</end>
            <in>1962.0000000000002</in>
            <out>2074.5</out>
            <enabled>true</enabled>
            <anamorphic>false</anamorphic>
            <alphatype>black</alphatype>
            <masterclipid>Outline Text1</masterclipid>
            <effect>
              <name>Outline Text</name>
              <effectid>Outline Text</effectid>
              <effectcategory>Text</effectcategory>
              <effecttype>generator</effecttype>
              <mediatype>video</mediatype>
              <parameter>
                <parameterid>part1</parameterid>
                <name>Text Settings</name>
                <value/>
              </parameter>
              <parameter>
                <parameterid>str</parameterid>
                <name>Text</name>
                <value>굉장히 실용적인 이름에서 만들 수 있는 가구가 탄생</value>
              </parameter>
              <parameter>
                <parameterid>font</parameterid>
                <name>Font</name>
                <value>MalgunGothicBold</value>
              </parameter>
              <parameter>
                <parameterid>style</parameterid>
                <name>Style</name>
                <valuemin>1</valuemin>
                <valuemax>1</valuemax>
                <valuelist>
                  <valueentry>
                    <name>Regular</name>
                    <value>1</value>
                  </valueentry>
                </valuelist>
                <value>1</value>
              </parameter>
              <parameter>
                <parameterid>align</parameterid>
                <name>Alignment</name>
                <valuemin>1</valuemin>
                <valuemax>3</valuemax>
                <valuelist>
                  <valueentry>
                    <name>Left</name>
                    <value>1</value>
                  </valueentry>
                  <valueentry>
                    <name>Center</name>
                    <value>2</value>
                  </valueentry>
                  <valueentry>
                    <name>Right</name>
                    <value>3</value>
                  </valueentry>
                </valuelist>
                <value>2</value>
              </parameter>
              <parameter>
                <parameterid>size</parameterid>
                <name>Size</name>
                <valuemin>0</valuemin>
                <valuemax>200</valuemax>
                <value>24</value>
              </parameter>
              <parameter>
                <parameterid>track</parameterid>
                <name>Tracking</name>
                <valuemin>0</valuemin>
                <valuemax>100</valuemax>
                <value>1</value>
              </parameter>
              <parameter>
                <parameterid>lead</parameterid>
                <name>Leading</name>
                <valuemin>-100</valuemin>
                <valuemax>100</valuemax>
                <value>0</value>
              </parameter>
              <parameter>
                <parameterid>aspect</parameterid>
                <name>Aspect</name>
                <valuemin>0</valuemin>
                <valuemax>4</valuemax>
                <value>1</value>
              </parameter>
              <parameter>
                <parameterid>linewidth</parameterid>
                <name>Line Width</name>
                <valuemin>0</valuemin>
                <valuemax>200</valuemax>
                <value>2</value>
              </parameter>
              <parameter>
                <parameterid>linesoft</parameterid>
                <name>Line Softness</name>
                <valuemin>0</valuemin>
                <valuemax>100</valuemax>
                <value>5</value>
              </parameter>
              <parameter>
                <parameterid>textopacity</parameterid>
                <name>Text Opacity</name>
                <valuemin>0</valuemin>
                <valuemax>100</valuemax>
                <value>100</value>
              </parameter>
              <parameter>
                <parameterid>center</parameterid>
                <name>Center</name>
                <value>
                  <horiz>0</horiz>
                  <vert>0.42592592592592593</vert>
                </value>
              </parameter>
              <parameter>
                <parameterid>textcolor</parameterid>
                <name>Text Color</name>
                <value>
                  <alpha>255</alpha>
                  <red>255</red>
                  <green>255</green>
                  <blue>255</blue>
                </value>
              </parameter>
              <parameter>
                <parameterid>supertext</parameterid>
                <name>Text Graphic</name>
              </parameter>
              <parameter>
                <parameterid>linecolor</parameterid>
                <name>Line Color</name>
                <value>
                  <alpha>255</alpha>
                  <red>0</red>
                  <green>0</green>
                  <blue>0</blue>
                </value>
              </parameter>
              <parameter>
                <parameterid>superline</parameterid>
                <name>Line Graphic</name>
              </parameter>
              <parameter>
                <parameterid>part2</parameterid>
                <name>Background Settings</name>
                <value/>
              </parameter>
              <parameter>
                <parameterid>xscale</parameterid>
                <name>Horizontal Size</name>
                <valuemin>0</valuemin>
                <valuemax>200</valuemax>
                <value>0</value>
              </parameter>
              <parameter>
                <parameterid>yscale</parameterid>
                <name>Vertical Size</name>
                <valuemin>0</valuemin>
                <valuemax>200</valuemax>
                <value>0</value>
              </parameter>
              <parameter>
                <parameterid>xoffset</parameterid>
                <name>Horizontal Offset</name>
                <valuemin>-100</valuemin>
                <valuemax>100</valuemax>
                <value>0</value>
              </parameter>
              <parameter>
                <parameterid>yoffset</parameterid>
                <name>Vertical Offset</name>
                <valuemin>-100</valuemin>
                <valuemax>100</valuemax>
                <value>0</value>
              </parameter>
              <parameter>
                <parameterid>backsoft</parameterid>
                <name>Back Soft</name>
                <valuemin>0</valuemin>
                <valuemax>100</valuemax>
                <value>0</value>
              </parameter>
              <parameter>
                <parameterid>backopacity</parameterid>
                <name>Back Opacity</name>
                <valuemin>0</valuemin>
                <valuemax>100</valuemax>
                <value>50</value>
              </parameter>
              <parameter>
                <parameterid>backcolor</parameterid>
                <name>Back Color</name>
                <value>
                  <alpha>255</alpha>
                  <red>255</red>
                  <green>255</green>
                  <blue>255</blue>
                </value>
              </parameter>
              <parameter>
                <parameterid>superback</parameterid>
                <name>Back Graphic</name>
              </parameter>
              <parameter>
                <parameterid>crop</parameterid>
                <name>Crop</name>
                <value>false</value>
              </parameter>
              <parameter>
                <parameterid>autokern</parameterid>
                <name>Auto Kerning</name>
                <value>true</value>
              </parameter>
            </effect>
            <sourcetrack>
              <mediatype>video</mediatype>
            </sourcetrack>
          </generatoritem>
          <generatoritem id="Outline Text1">
            <name>Outline Text</name>
            <duration>3801.3</duration>
            <rate>
              <timebase>30</timebase>
              <ntsc>false</ntsc>
            </rate>
            <start>2074.5</start>
            <end>2196.8999999999996</end>
            <in>2074.5</in>
            <out>2196.8999999999996</out>
            <enabled>true</enabled>
            <anamorphic>false</anamorphic>
            <alphatype>black</alphatype>
            <masterclipid>Outline Text1</masterclipid>
            <effect>
              <name>Outline Text</name>
              <effectid>Outline Text</effectid>
              <effectcategory>Text</effectcategory>
              <effecttype>generator</effecttype>
              <mediatype>video</mediatype>
              <parameter>
                <parameterid>part1</parameterid>
                <name>Text Settings</name>
                <value/>
              </parameter>
              <parameter>
                <parameterid>str</parameterid>
                <name>Text</name>
                <value>하지 않았나 생각이 들었습니다 완전 반했습니다</value>
              </parameter>
              <parameter>
                <parameterid>font</parameterid>
                <name>Font</name>
                <value>MalgunGothicBold</value>
              </parameter>
              <parameter>
                <parameterid>style</parameterid>
                <name>Style</name>
                <valuemin>1</valuemin>
                <valuemax>1</valuemax>
                <valuelist>
                  <valueentry>
                    <name>Regular</name>
                    <value>1</value>
                  </valueentry>
                </valuelist>
                <value>1</value>
              </parameter>
              <parameter>
                <parameterid>align</parameterid>
                <name>Alignment</name>
                <valuemin>1</valuemin>
                <valuemax>3</valuemax>
                <valuelist>
                  <valueentry>
                    <name>Left</name>
                    <value>1</value>
                  </valueentry>
                  <valueentry>
                    <name>Center</name>
                    <value>2</value>
                  </valueentry>
                  <valueentry>
                    <name>Right</name>
                    <value>3</value>
                  </valueentry>
                </valuelist>
                <value>2</value>
              </parameter>
              <parameter>
                <parameterid>size</parameterid>
                <name>Size</name>
                <valuemin>0</valuemin>
                <valuemax>200</valuemax>
                <value>24</value>
              </parameter>
              <parameter>
                <parameterid>track</parameterid>
                <name>Tracking</name>
                <valuemin>0</valuemin>
                <valuemax>100</valuemax>
                <value>1</value>
              </parameter>
              <parameter>
                <parameterid>lead</parameterid>
                <name>Leading</name>
                <valuemin>-100</valuemin>
                <valuemax>100</valuemax>
                <value>0</value>
              </parameter>
              <parameter>
                <parameterid>aspect</parameterid>
                <name>Aspect</name>
                <valuemin>0</valuemin>
                <valuemax>4</valuemax>
                <value>1</value>
              </parameter>
              <parameter>
                <parameterid>linewidth</parameterid>
                <name>Line Width</name>
                <valuemin>0</valuemin>
                <valuemax>200</valuemax>
                <value>2</value>
              </parameter>
              <parameter>
                <parameterid>linesoft</parameterid>
                <name>Line Softness</name>
                <valuemin>0</valuemin>
                <valuemax>100</valuemax>
                <value>5</value>
              </parameter>
              <parameter>
                <parameterid>textopacity</parameterid>
                <name>Text Opacity</name>
                <valuemin>0</valuemin>
                <valuemax>100</valuemax>
                <value>100</value>
              </parameter>
              <parameter>
                <parameterid>center</parameterid>
                <name>Center</name>
                <value>
                  <horiz>0</horiz>
                  <vert>0.42592592592592593</vert>
                </value>
              </parameter>
              <parameter>
                <parameterid>textcolor</parameterid>
                <name>Text Color</name>
                <value>
                  <alpha>255</alpha>
                  <red>255</red>
                  <green>255</green>
                  <blue>255</blue>
                </value>
              </parameter>
              <parameter>
                <parameterid>supertext</parameterid>
                <name>Text Graphic</name>
              </parameter>
              <parameter>
                <parameterid>linecolor</parameterid>
                <name>Line Color</name>
                <value>
                  <alpha>255</alpha>
                  <red>0</red>
                  <green>0</green>
                  <blue>0</blue>
                </value>
              </parameter>
              <parameter>
                <parameterid>superline</parameterid>
                <name>Line Graphic</name>
              </parameter>
              <parameter>
                <parameterid>part2</parameterid>
                <name>Background Settings</name>
                <value/>
              </parameter>
              <parameter>
                <parameterid>xscale</parameterid>
                <name>Horizontal Size</name>
                <valuemin>0</valuemin>
                <valuemax>200</valuemax>
                <value>0</value>
              </parameter>
              <parameter>
                <parameterid>yscale</parameterid>
                <name>Vertical Size</name>
                <valuemin>0</valuemin>
                <valuemax>200</valuemax>
                <value>0</value>
              </parameter>
              <parameter>
                <parameterid>xoffset</parameterid>
                <name>Horizontal Offset</name>
                <valuemin>-100</valuemin>
                <valuemax>100</valuemax>
                <value>0</value>
              </parameter>
              <parameter>
                <parameterid>yoffset</parameterid>
                <name>Vertical Offset</name>
                <valuemin>-100</valuemin>
                <valuemax>100</valuemax>
                <value>0</value>
              </parameter>
              <parameter>
                <parameterid>backsoft</parameterid>
                <name>Back Soft</name>
                <valuemin>0</valuemin>
                <valuemax>100</valuemax>
                <value>0</value>
              </parameter>
              <parameter>
                <parameterid>backopacity</parameterid>
                <name>Back Opacity</name>
                <valuemin>0</valuemin>
                <valuemax>100</valuemax>
                <value>50</value>
              </parameter>
              <parameter>
                <parameterid>backcolor</parameterid>
                <name>Back Color</name>
                <value>
                  <alpha>255</alpha>
                  <red>255</red>
                  <green>255</green>
                  <blue>255</blue>
                </value>
              </parameter>
              <parameter>
                <parameterid>superback</parameterid>
                <name>Back Graphic</name>
              </parameter>
              <parameter>
                <parameterid>crop</parameterid>
                <name>Crop</name>
                <value>false</value>
              </parameter>
              <parameter>
                <parameterid>autokern</parameterid>
                <name>Auto Kerning</name>
                <value>true</value>
              </parameter>
            </effect>
            <sourcetrack>
              <mediatype>video</mediatype>
            </sourcetrack>
          </generatoritem>
          <generatoritem id="Outline Text1">
            <name>Outline Text</name>
            <duration>3801.3</duration>
            <rate>
              <timebase>30</timebase>
              <ntsc>false</ntsc>
            </rate>
            <start>2196.8999999999996</start>
            <end>2496.899999999999</end>
            <in>2196.8999999999996</in>
            <out>2496.899999999999</out>
            <enabled>true</enabled>
            <anamorphic>false</anamorphic>
            <alphatype>black</alphatype>
            <masterclipid>Outline Text1</masterclipid>
            <effect>
              <name>Outline Text</name>
              <effectid>Outline Text</effectid>
              <effectcategory>Text</effectcategory>
              <effecttype>generator</effecttype>
              <mediatype>video</mediatype>
              <parameter>
                <parameterid>part1</parameterid>
                <name>Text Settings</name>
                <value/>
              </parameter>
              <parameter>
                <parameterid>str</parameterid>
                <name>Text</name>
                <value>저도 사려고요 촬영하다가 소식을 접했는데요</value>
              </parameter>
              <parameter>
                <parameterid>font</parameterid>
                <name>Font</name>
                <value>MalgunGothicBold</value>
              </parameter>
              <parameter>
                <parameterid>style</parameterid>
                <name>Style</name>
                <valuemin>1</valuemin>
                <valuemax>1</valuemax>
                <valuelist>
                  <valueentry>
                    <name>Regular</name>
                    <value>1</value>
                  </valueentry>
                </valuelist>
                <value>1</value>
              </parameter>
              <parameter>
                <parameterid>align</parameterid>
                <name>Alignment</name>
                <valuemin>1</valuemin>
                <valuemax>3</valuemax>
                <valuelist>
                  <valueentry>
                    <name>Left</name>
                    <value>1</value>
                  </valueentry>
                  <valueentry>
                    <name>Center</name>
                    <value>2</value>
                  </valueentry>
                  <valueentry>
                    <name>Right</name>
                    <value>3</value>
                  </valueentry>
                </valuelist>
                <value>2</value>
              </parameter>
              <parameter>
                <parameterid>size</parameterid>
                <name>Size</name>
                <valuemin>0</valuemin>
                <valuemax>200</valuemax>
                <value>24</value>
              </parameter>
              <parameter>
                <parameterid>track</parameterid>
                <name>Tracking</name>
                <valuemin>0</valuemin>
                <valuemax>100</valuemax>
                <value>1</value>
              </parameter>
              <parameter>
                <parameterid>lead</parameterid>
                <name>Leading</name>
                <valuemin>-100</valuemin>
                <valuemax>100</valuemax>
                <value>0</value>
              </parameter>
              <parameter>
                <parameterid>aspect</parameterid>
                <name>Aspect</name>
                <valuemin>0</valuemin>
                <valuemax>4</valuemax>
                <value>1</value>
              </parameter>
              <parameter>
                <parameterid>linewidth</parameterid>
                <name>Line Width</name>
                <valuemin>0</valuemin>
                <valuemax>200</valuemax>
                <value>2</value>
              </parameter>
              <parameter>
                <parameterid>linesoft</parameterid>
                <name>Line Softness</name>
                <valuemin>0</valuemin>
                <valuemax>100</valuemax>
                <value>5</value>
              </parameter>
              <parameter>
                <parameterid>textopacity</parameterid>
                <name>Text Opacity</name>
                <valuemin>0</valuemin>
                <valuemax>100</valuemax>
                <value>100</value>
              </parameter>
              <parameter>
                <parameterid>center</parameterid>
                <name>Center</name>
                <value>
                  <horiz>0</horiz>
                  <vert>0.42592592592592593</vert>
                </value>
              </parameter>
              <parameter>
                <parameterid>textcolor</parameterid>
                <name>Text Color</name>
                <value>
                  <alpha>255</alpha>
                  <red>255</red>
                  <green>255</green>
                  <blue>255</blue>
                </value>
              </parameter>
              <parameter>
                <parameterid>supertext</parameterid>
                <name>Text Graphic</name>
              </parameter>
              <parameter>
                <parameterid>linecolor</parameterid>
                <name>Line Color</name>
                <value>
                  <alpha>255</alpha>
                  <red>0</red>
                  <green>0</green>
                  <blue>0</blue>
                </value>
              </parameter>
              <parameter>
                <parameterid>superline</parameterid>
                <name>Line Graphic</name>
              </parameter>
              <parameter>
                <parameterid>part2</parameterid>
                <name>Background Settings</name>
                <value/>
              </parameter>
              <parameter>
                <parameterid>xscale</parameterid>
                <name>Horizontal Size</name>
                <valuemin>0</valuemin>
                <valuemax>200</valuemax>
                <value>0</value>
              </parameter>
              <parameter>
                <parameterid>yscale</parameterid>
                <name>Vertical Size</name>
                <valuemin>0</valuemin>
                <valuemax>200</valuemax>
                <value>0</value>
              </parameter>
              <parameter>
                <parameterid>xoffset</parameterid>
                <name>Horizontal Offset</name>
                <valuemin>-100</valuemin>
                <valuemax>100</valuemax>
                <value>0</value>
              </parameter>
              <parameter>
                <parameterid>yoffset</parameterid>
                <name>Vertical Offset</name>
                <valuemin>-100</valuemin>
                <valuemax>100</valuemax>
                <value>0</value>
              </parameter>
              <parameter>
                <parameterid>backsoft</parameterid>
                <name>Back Soft</name>
                <valuemin>0</valuemin>
                <valuemax>100</valuemax>
                <value>0</value>
              </parameter>
              <parameter>
                <parameterid>backopacity</parameterid>
                <name>Back Opacity</name>
                <valuemin>0</valuemin>
                <valuemax>100</valuemax>
                <value>50</value>
              </parameter>
              <parameter>
                <parameterid>backcolor</parameterid>
                <name>Back Color</name>
                <value>
                  <alpha>255</alpha>
                  <red>255</red>
                  <green>255</green>
                  <blue>255</blue>
                </value>
              </parameter>
              <parameter>
                <parameterid>superback</parameterid>
                <name>Back Graphic</name>
              </parameter>
              <parameter>
                <parameterid>crop</parameterid>
                <name>Crop</name>
                <value>false</value>
              </parameter>
              <parameter>
                <parameterid>autokern</parameterid>
                <name>Auto Kerning</name>
                <value>true</value>
              </parameter>
            </effect>
            <sourcetrack>
              <mediatype>video</mediatype>
            </sourcetrack>
          </generatoritem>
          <generatoritem id="Outline Text1">
            <name>Outline Text</name>
            <duration>3801.3</duration>
            <rate>
              <timebase>30</timebase>
              <ntsc>false</ntsc>
            </rate>
            <start>2496.899999999999</start>
            <end>2612.999999999999</end>
            <in>2496.899999999999</in>
            <out>2612.999999999999</out>
            <enabled>true</enabled>
            <anamorphic>false</anamorphic>
            <alphatype>black</alphatype>
            <masterclipid>Outline Text1</masterclipid>
            <effect>
              <name>Outline Text</name>
              <effectid>Outline Text</effectid>
              <effectcategory>Text</effectcategory>
              <effecttype>generator</effecttype>
              <mediatype>video</mediatype>
              <parameter>
                <parameterid>part1</parameterid>
                <name>Text Settings</name>
                <value/>
              </parameter>
              <parameter>
                <parameterid>str</parameterid>
                <name>Text</name>
                <value>그 1년 페이스북을 통해서 해외 10분</value>
              </parameter>
              <parameter>
                <parameterid>font</parameterid>
                <name>Font</name>
                <value>MalgunGothicBold</value>
              </parameter>
              <parameter>
                <parameterid>style</parameterid>
                <name>Style</name>
                <valuemin>1</valuemin>
                <valuemax>1</valuemax>
                <valuelist>
                  <valueentry>
                    <name>Regular</name>
                    <value>1</value>
                  </valueentry>
                </valuelist>
                <value>1</value>
              </parameter>
              <parameter>
                <parameterid>align</parameterid>
                <name>Alignment</name>
                <valuemin>1</valuemin>
                <valuemax>3</valuemax>
                <valuelist>
                  <valueentry>
                    <name>Left</name>
                    <value>1</value>
                  </valueentry>
                  <valueentry>
                    <name>Center</name>
                    <value>2</value>
                  </valueentry>
                  <valueentry>
                    <name>Right</name>
                    <value>3</value>
                  </valueentry>
                </valuelist>
                <value>2</value>
              </parameter>
              <parameter>
                <parameterid>size</parameterid>
                <name>Size</name>
                <valuemin>0</valuemin>
                <valuemax>200</valuemax>
                <value>24</value>
              </parameter>
              <parameter>
                <parameterid>track</parameterid>
                <name>Tracking</name>
                <valuemin>0</valuemin>
                <valuemax>100</valuemax>
                <value>1</value>
              </parameter>
              <parameter>
                <parameterid>lead</parameterid>
                <name>Leading</name>
                <valuemin>-100</valuemin>
                <valuemax>100</valuemax>
                <value>0</value>
              </parameter>
              <parameter>
                <parameterid>aspect</parameterid>
                <name>Aspect</name>
                <valuemin>0</valuemin>
                <valuemax>4</valuemax>
                <value>1</value>
              </parameter>
              <parameter>
                <parameterid>linewidth</parameterid>
                <name>Line Width</name>
                <valuemin>0</valuemin>
                <valuemax>200</valuemax>
                <value>2</value>
              </parameter>
              <parameter>
                <parameterid>linesoft</parameterid>
                <name>Line Softness</name>
                <valuemin>0</valuemin>
                <valuemax>100</valuemax>
                <value>5</value>
              </parameter>
              <parameter>
                <parameterid>textopacity</parameterid>
                <name>Text Opacity</name>
                <valuemin>0</valuemin>
                <valuemax>100</valuemax>
                <value>100</value>
              </parameter>
              <parameter>
                <parameterid>center</parameterid>
                <name>Center</name>
                <value>
                  <horiz>0</horiz>
                  <vert>0.42592592592592593</vert>
                </value>
              </parameter>
              <parameter>
                <parameterid>textcolor</parameterid>
                <name>Text Color</name>
                <value>
                  <alpha>255</alpha>
                  <red>255</red>
                  <green>255</green>
                  <blue>255</blue>
                </value>
              </parameter>
              <parameter>
                <parameterid>supertext</parameterid>
                <name>Text Graphic</name>
              </parameter>
              <parameter>
                <parameterid>linecolor</parameterid>
                <name>Line Color</name>
                <value>
                  <alpha>255</alpha>
                  <red>0</red>
                  <green>0</green>
                  <blue>0</blue>
                </value>
              </parameter>
              <parameter>
                <parameterid>superline</parameterid>
                <name>Line Graphic</name>
              </parameter>
              <parameter>
                <parameterid>part2</parameterid>
                <name>Background Settings</name>
                <value/>
              </parameter>
              <parameter>
                <parameterid>xscale</parameterid>
                <name>Horizontal Size</name>
                <valuemin>0</valuemin>
                <valuemax>200</valuemax>
                <value>0</value>
              </parameter>
              <parameter>
                <parameterid>yscale</parameterid>
                <name>Vertical Size</name>
                <valuemin>0</valuemin>
                <valuemax>200</valuemax>
                <value>0</value>
              </parameter>
              <parameter>
                <parameterid>xoffset</parameterid>
                <name>Horizontal Offset</name>
                <valuemin>-100</valuemin>
                <valuemax>100</valuemax>
                <value>0</value>
              </parameter>
              <parameter>
                <parameterid>yoffset</parameterid>
                <name>Vertical Offset</name>
                <valuemin>-100</valuemin>
                <valuemax>100</valuemax>
                <value>0</value>
              </parameter>
              <parameter>
                <parameterid>backsoft</parameterid>
                <name>Back Soft</name>
                <valuemin>0</valuemin>
                <valuemax>100</valuemax>
                <value>0</value>
              </parameter>
              <parameter>
                <parameterid>backopacity</parameterid>
                <name>Back Opacity</name>
                <valuemin>0</valuemin>
                <valuemax>100</valuemax>
                <value>50</value>
              </parameter>
              <parameter>
                <parameterid>backcolor</parameterid>
                <name>Back Color</name>
                <value>
                  <alpha>255</alpha>
                  <red>255</red>
                  <green>255</green>
                  <blue>255</blue>
                </value>
              </parameter>
              <parameter>
                <parameterid>superback</parameterid>
                <name>Back Graphic</name>
              </parameter>
              <parameter>
                <parameterid>crop</parameterid>
                <name>Crop</name>
                <value>false</value>
              </parameter>
              <parameter>
                <parameterid>autokern</parameterid>
                <name>Auto Kerning</name>
                <value>true</value>
              </parameter>
            </effect>
            <sourcetrack>
              <mediatype>video</mediatype>
            </sourcetrack>
          </generatoritem>
          <generatoritem id="Outline Text1">
            <name>Outline Text</name>
            <duration>3801.3</duration>
            <rate>
              <timebase>30</timebase>
              <ntsc>false</ntsc>
            </rate>
            <start>2612.999999999999</start>
            <end>2697.8999999999987</end>
            <in>2612.999999999999</in>
            <out>2697.8999999999987</out>
            <enabled>true</enabled>
            <anamorphic>false</anamorphic>
            <alphatype>black</alphatype>
            <masterclipid>Outline Text1</masterclipid>
            <effect>
              <name>Outline Text</name>
              <effectid>Outline Text</effectid>
              <effectcategory>Text</effectcategory>
              <effecttype>generator</effecttype>
              <mediatype>video</mediatype>
              <parameter>
                <parameterid>part1</parameterid>
                <name>Text Settings</name>
                <value/>
              </parameter>
              <parameter>
                <parameterid>str</parameterid>
                <name>Text</name>
                <value>많은 관심을 보내 주시고 있다고 들었습니다</value>
              </parameter>
              <parameter>
                <parameterid>font</parameterid>
                <name>Font</name>
                <value>MalgunGothicBold</value>
              </parameter>
              <parameter>
                <parameterid>style</parameterid>
                <name>Style</name>
                <valuemin>1</valuemin>
                <valuemax>1</valuemax>
                <valuelist>
                  <valueentry>
                    <name>Regular</name>
                    <value>1</value>
                  </valueentry>
                </valuelist>
                <value>1</value>
              </parameter>
              <parameter>
                <parameterid>align</parameterid>
                <name>Alignment</name>
                <valuemin>1</valuemin>
                <valuemax>3</valuemax>
                <valuelist>
                  <valueentry>
                    <name>Left</name>
                    <value>1</value>
                  </valueentry>
                  <valueentry>
                    <name>Center</name>
                    <value>2</value>
                  </valueentry>
                  <valueentry>
                    <name>Right</name>
                    <value>3</value>
                  </valueentry>
                </valuelist>
                <value>2</value>
              </parameter>
              <parameter>
                <parameterid>size</parameterid>
                <name>Size</name>
                <valuemin>0</valuemin>
                <valuemax>200</valuemax>
                <value>24</value>
              </parameter>
              <parameter>
                <parameterid>track</parameterid>
                <name>Tracking</name>
                <valuemin>0</valuemin>
                <valuemax>100</valuemax>
                <value>1</value>
              </parameter>
              <parameter>
                <parameterid>lead</parameterid>
                <name>Leading</name>
                <valuemin>-100</valuemin>
                <valuemax>100</valuemax>
                <value>0</value>
              </parameter>
              <parameter>
                <parameterid>aspect</parameterid>
                <name>Aspect</name>
                <valuemin>0</valuemin>
                <valuemax>4</valuemax>
                <value>1</value>
              </parameter>
              <parameter>
                <parameterid>linewidth</parameterid>
                <name>Line Width</name>
                <valuemin>0</valuemin>
                <valuemax>200</valuemax>
                <value>2</value>
              </parameter>
              <parameter>
                <parameterid>linesoft</parameterid>
                <name>Line Softness</name>
                <valuemin>0</valuemin>
                <valuemax>100</valuemax>
                <value>5</value>
              </parameter>
              <parameter>
                <parameterid>textopacity</parameterid>
                <name>Text Opacity</name>
                <valuemin>0</valuemin>
                <valuemax>100</valuemax>
                <value>100</value>
              </parameter>
              <parameter>
                <parameterid>center</parameterid>
                <name>Center</name>
                <value>
                  <horiz>0</horiz>
                  <vert>0.42592592592592593</vert>
                </value>
              </parameter>
              <parameter>
                <parameterid>textcolor</parameterid>
                <name>Text Color</name>
                <value>
                  <alpha>255</alpha>
                  <red>255</red>
                  <green>255</green>
                  <blue>255</blue>
                </value>
              </parameter>
              <parameter>
                <parameterid>supertext</parameterid>
                <name>Text Graphic</name>
              </parameter>
              <parameter>
                <parameterid>linecolor</parameterid>
                <name>Line Color</name>
                <value>
                  <alpha>255</alpha>
                  <red>0</red>
                  <green>0</green>
                  <blue>0</blue>
                </value>
              </parameter>
              <parameter>
                <parameterid>superline</parameterid>
                <name>Line Graphic</name>
              </parameter>
              <parameter>
                <parameterid>part2</parameterid>
                <name>Background Settings</name>
                <value/>
              </parameter>
              <parameter>
                <parameterid>xscale</parameterid>
                <name>Horizontal Size</name>
                <valuemin>0</valuemin>
                <valuemax>200</valuemax>
                <value>0</value>
              </parameter>
              <parameter>
                <parameterid>yscale</parameterid>
                <name>Vertical Size</name>
                <valuemin>0</valuemin>
                <valuemax>200</valuemax>
                <value>0</value>
              </parameter>
              <parameter>
                <parameterid>xoffset</parameterid>
                <name>Horizontal Offset</name>
                <valuemin>-100</valuemin>
                <valuemax>100</valuemax>
                <value>0</value>
              </parameter>
              <parameter>
                <parameterid>yoffset</parameterid>
                <name>Vertical Offset</name>
                <valuemin>-100</valuemin>
                <valuemax>100</valuemax>
                <value>0</value>
              </parameter>
              <parameter>
                <parameterid>backsoft</parameterid>
                <name>Back Soft</name>
                <valuemin>0</valuemin>
                <valuemax>100</valuemax>
                <value>0</value>
              </parameter>
              <parameter>
                <parameterid>backopacity</parameterid>
                <name>Back Opacity</name>
                <valuemin>0</valuemin>
                <valuemax>100</valuemax>
                <value>50</value>
              </parameter>
              <parameter>
                <parameterid>backcolor</parameterid>
                <name>Back Color</name>
                <value>
                  <alpha>255</alpha>
                  <red>255</red>
                  <green>255</green>
                  <blue>255</blue>
                </value>
              </parameter>
              <parameter>
                <parameterid>superback</parameterid>
                <name>Back Graphic</name>
              </parameter>
              <parameter>
                <parameterid>crop</parameterid>
                <name>Crop</name>
                <value>false</value>
              </parameter>
              <parameter>
                <parameterid>autokern</parameterid>
                <name>Auto Kerning</name>
                <value>true</value>
              </parameter>
            </effect>
            <sourcetrack>
              <mediatype>video</mediatype>
            </sourcetrack>
          </generatoritem>
          <generatoritem id="Outline Text1">
            <name>Outline Text</name>
            <duration>3801.3</duration>
            <rate>
              <timebase>30</timebase>
              <ntsc>false</ntsc>
            </rate>
            <start>2697.8999999999987</start>
            <end>2789.9999999999986</end>
            <in>2697.8999999999987</in>
            <out>2789.9999999999986</out>
            <enabled>true</enabled>
            <anamorphic>false</anamorphic>
            <alphatype>black</alphatype>
            <masterclipid>Outline Text1</masterclipid>
            <effect>
              <name>Outline Text</name>
              <effectid>Outline Text</effectid>
              <effectcategory>Text</effectcategory>
              <effecttype>generator</effecttype>
              <mediatype>video</mediatype>
              <parameter>
                <parameterid>part1</parameterid>
                <name>Text Settings</name>
                <value/>
              </parameter>
              <parameter>
                <parameterid>str</parameterid>
                <name>Text</name>
                <value>너무너무 예를 들어서 감사드린다 말씀드리고 싶구요</value>
              </parameter>
              <parameter>
                <parameterid>font</parameterid>
                <name>Font</name>
                <value>MalgunGothicBold</value>
              </parameter>
              <parameter>
                <parameterid>style</parameterid>
                <name>Style</name>
                <valuemin>1</valuemin>
                <valuemax>1</valuemax>
                <valuelist>
                  <valueentry>
                    <name>Regular</name>
                    <value>1</value>
                  </valueentry>
                </valuelist>
                <value>1</value>
              </parameter>
              <parameter>
                <parameterid>align</parameterid>
                <name>Alignment</name>
                <valuemin>1</valuemin>
                <valuemax>3</valuemax>
                <valuelist>
                  <valueentry>
                    <name>Left</name>
                    <value>1</value>
                  </valueentry>
                  <valueentry>
                    <name>Center</name>
                    <value>2</value>
                  </valueentry>
                  <valueentry>
                    <name>Right</name>
                    <value>3</value>
                  </valueentry>
                </valuelist>
                <value>2</value>
              </parameter>
              <parameter>
                <parameterid>size</parameterid>
                <name>Size</name>
                <valuemin>0</valuemin>
                <valuemax>200</valuemax>
                <value>24</value>
              </parameter>
              <parameter>
                <parameterid>track</parameterid>
                <name>Tracking</name>
                <valuemin>0</valuemin>
                <valuemax>100</valuemax>
                <value>1</value>
              </parameter>
              <parameter>
                <parameterid>lead</parameterid>
                <name>Leading</name>
                <valuemin>-100</valuemin>
                <valuemax>100</valuemax>
                <value>0</value>
              </parameter>
              <parameter>
                <parameterid>aspect</parameterid>
                <name>Aspect</name>
                <valuemin>0</valuemin>
                <valuemax>4</valuemax>
                <value>1</value>
              </parameter>
              <parameter>
                <parameterid>linewidth</parameterid>
                <name>Line Width</name>
                <valuemin>0</valuemin>
                <valuemax>200</valuemax>
                <value>2</value>
              </parameter>
              <parameter>
                <parameterid>linesoft</parameterid>
                <name>Line Softness</name>
                <valuemin>0</valuemin>
                <valuemax>100</valuemax>
                <value>5</value>
              </parameter>
              <parameter>
                <parameterid>textopacity</parameterid>
                <name>Text Opacity</name>
                <valuemin>0</valuemin>
                <valuemax>100</valuemax>
                <value>100</value>
              </parameter>
              <parameter>
                <parameterid>center</parameterid>
                <name>Center</name>
                <value>
                  <horiz>0</horiz>
                  <vert>0.42592592592592593</vert>
                </value>
              </parameter>
              <parameter>
                <parameterid>textcolor</parameterid>
                <name>Text Color</name>
                <value>
                  <alpha>255</alpha>
                  <red>255</red>
                  <green>255</green>
                  <blue>255</blue>
                </value>
              </parameter>
              <parameter>
                <parameterid>supertext</parameterid>
                <name>Text Graphic</name>
              </parameter>
              <parameter>
                <parameterid>linecolor</parameterid>
                <name>Line Color</name>
                <value>
                  <alpha>255</alpha>
                  <red>0</red>
                  <green>0</green>
                  <blue>0</blue>
                </value>
              </parameter>
              <parameter>
                <parameterid>superline</parameterid>
                <name>Line Graphic</name>
              </parameter>
              <parameter>
                <parameterid>part2</parameterid>
                <name>Background Settings</name>
                <value/>
              </parameter>
              <parameter>
                <parameterid>xscale</parameterid>
                <name>Horizontal Size</name>
                <valuemin>0</valuemin>
                <valuemax>200</valuemax>
                <value>0</value>
              </parameter>
              <parameter>
                <parameterid>yscale</parameterid>
                <name>Vertical Size</name>
                <valuemin>0</valuemin>
                <valuemax>200</valuemax>
                <value>0</value>
              </parameter>
              <parameter>
                <parameterid>xoffset</parameterid>
                <name>Horizontal Offset</name>
                <valuemin>-100</valuemin>
                <valuemax>100</valuemax>
                <value>0</value>
              </parameter>
              <parameter>
                <parameterid>yoffset</parameterid>
                <name>Vertical Offset</name>
                <valuemin>-100</valuemin>
                <valuemax>100</valuemax>
                <value>0</value>
              </parameter>
              <parameter>
                <parameterid>backsoft</parameterid>
                <name>Back Soft</name>
                <valuemin>0</valuemin>
                <valuemax>100</valuemax>
                <value>0</value>
              </parameter>
              <parameter>
                <parameterid>backopacity</parameterid>
                <name>Back Opacity</name>
                <valuemin>0</valuemin>
                <valuemax>100</valuemax>
                <value>50</value>
              </parameter>
              <parameter>
                <parameterid>backcolor</parameterid>
                <name>Back Color</name>
                <value>
                  <alpha>255</alpha>
                  <red>255</red>
                  <green>255</green>
                  <blue>255</blue>
                </value>
              </parameter>
              <parameter>
                <parameterid>superback</parameterid>
                <name>Back Graphic</name>
              </parameter>
              <parameter>
                <parameterid>crop</parameterid>
                <name>Crop</name>
                <value>false</value>
              </parameter>
              <parameter>
                <parameterid>autokern</parameterid>
                <name>Auto Kerning</name>
                <value>true</value>
              </parameter>
            </effect>
            <sourcetrack>
              <mediatype>video</mediatype>
            </sourcetrack>
          </generatoritem>
          <generatoritem id="Outline Text1">
            <name>Outline Text</name>
            <duration>3801.3</duration>
            <rate>
              <timebase>30</timebase>
              <ntsc>false</ntsc>
            </rate>
            <start>2789.9999999999986</start>
            <end>3024.8999999999987</end>
            <in>2789.9999999999986</in>
            <out>3024.8999999999987</out>
            <enabled>true</enabled>
            <anamorphic>false</anamorphic>
            <alphatype>black</alphatype>
            <masterclipid>Outline Text1</masterclipid>
            <effect>
              <name>Outline Text</name>
              <effectid>Outline Text</effectid>
              <effectcategory>Text</effectcategory>
              <effecttype>generator</effecttype>
              <mediatype>video</mediatype>
              <parameter>
                <parameterid>part1</parameterid>
                <name>Text Settings</name>
                <value/>
              </parameter>
              <parameter>
                <parameterid>str</parameterid>
                <name>Text</name>
                <value>앞으로도 배우 공유 일룸 에게 지속적인 관심을 부탁드립니다</value>
              </parameter>
              <parameter>
                <parameterid>font</parameterid>
                <name>Font</name>
                <value>MalgunGothicBold</value>
              </parameter>
              <parameter>
                <parameterid>style</parameterid>
                <name>Style</name>
                <valuemin>1</valuemin>
                <valuemax>1</valuemax>
                <valuelist>
                  <valueentry>
                    <name>Regular</name>
                    <value>1</value>
                  </valueentry>
                </valuelist>
                <value>1</value>
              </parameter>
              <parameter>
                <parameterid>align</parameterid>
                <name>Alignment</name>
                <valuemin>1</valuemin>
                <valuemax>3</valuemax>
                <valuelist>
                  <valueentry>
                    <name>Left</name>
                    <value>1</value>
                  </valueentry>
                  <valueentry>
                    <name>Center</name>
                    <value>2</value>
                  </valueentry>
                  <valueentry>
                    <name>Right</name>
                    <value>3</value>
                  </valueentry>
                </valuelist>
                <value>2</value>
              </parameter>
              <parameter>
                <parameterid>size</parameterid>
                <name>Size</name>
                <valuemin>0</valuemin>
                <valuemax>200</valuemax>
                <value>24</value>
              </parameter>
              <parameter>
                <parameterid>track</parameterid>
                <name>Tracking</name>
                <valuemin>0</valuemin>
                <valuemax>100</valuemax>
                <value>1</value>
              </parameter>
              <parameter>
                <parameterid>lead</parameterid>
                <name>Leading</name>
                <valuemin>-100</valuemin>
                <valuemax>100</valuemax>
                <value>0</value>
              </parameter>
              <parameter>
                <parameterid>aspect</parameterid>
                <name>Aspect</name>
                <valuemin>0</valuemin>
                <valuemax>4</valuemax>
                <value>1</value>
              </parameter>
              <parameter>
                <parameterid>linewidth</parameterid>
                <name>Line Width</name>
                <valuemin>0</valuemin>
                <valuemax>200</valuemax>
                <value>2</value>
              </parameter>
              <parameter>
                <parameterid>linesoft</parameterid>
                <name>Line Softness</name>
                <valuemin>0</valuemin>
                <valuemax>100</valuemax>
                <value>5</value>
              </parameter>
              <parameter>
                <parameterid>textopacity</parameterid>
                <name>Text Opacity</name>
                <valuemin>0</valuemin>
                <valuemax>100</valuemax>
                <value>100</value>
              </parameter>
              <parameter>
                <parameterid>center</parameterid>
                <name>Center</name>
                <value>
                  <horiz>0</horiz>
                  <vert>0.42592592592592593</vert>
                </value>
              </parameter>
              <parameter>
                <parameterid>textcolor</parameterid>
                <name>Text Color</name>
                <value>
                  <alpha>255</alpha>
                  <red>255</red>
                  <green>255</green>
                  <blue>255</blue>
                </value>
              </parameter>
              <parameter>
                <parameterid>supertext</parameterid>
                <name>Text Graphic</name>
              </parameter>
              <parameter>
                <parameterid>linecolor</parameterid>
                <name>Line Color</name>
                <value>
                  <alpha>255</alpha>
                  <red>0</red>
                  <green>0</green>
                  <blue>0</blue>
                </value>
              </parameter>
              <parameter>
                <parameterid>superline</parameterid>
                <name>Line Graphic</name>
              </parameter>
              <parameter>
                <parameterid>part2</parameterid>
                <name>Background Settings</name>
                <value/>
              </parameter>
              <parameter>
                <parameterid>xscale</parameterid>
                <name>Horizontal Size</name>
                <valuemin>0</valuemin>
                <valuemax>200</valuemax>
                <value>0</value>
              </parameter>
              <parameter>
                <parameterid>yscale</parameterid>
                <name>Vertical Size</name>
                <valuemin>0</valuemin>
                <valuemax>200</valuemax>
                <value>0</value>
              </parameter>
              <parameter>
                <parameterid>xoffset</parameterid>
                <name>Horizontal Offset</name>
                <valuemin>-100</valuemin>
                <valuemax>100</valuemax>
                <value>0</value>
              </parameter>
              <parameter>
                <parameterid>yoffset</parameterid>
                <name>Vertical Offset</name>
                <valuemin>-100</valuemin>
                <valuemax>100</valuemax>
                <value>0</value>
              </parameter>
              <parameter>
                <parameterid>backsoft</parameterid>
                <name>Back Soft</name>
                <valuemin>0</valuemin>
                <valuemax>100</valuemax>
                <value>0</value>
              </parameter>
              <parameter>
                <parameterid>backopacity</parameterid>
                <name>Back Opacity</name>
                <valuemin>0</valuemin>
                <valuemax>100</valuemax>
                <value>50</value>
              </parameter>
              <parameter>
                <parameterid>backcolor</parameterid>
                <name>Back Color</name>
                <value>
                  <alpha>255</alpha>
                  <red>255</red>
                  <green>255</green>
                  <blue>255</blue>
                </value>
              </parameter>
              <parameter>
                <parameterid>superback</parameterid>
                <name>Back Graphic</name>
              </parameter>
              <parameter>
                <parameterid>crop</parameterid>
                <name>Crop</name>
                <value>false</value>
              </parameter>
              <parameter>
                <parameterid>autokern</parameterid>
                <name>Auto Kerning</name>
                <value>true</value>
              </parameter>
            </effect>
            <sourcetrack>
              <mediatype>video</mediatype>
            </sourcetrack>
          </generatoritem>
          <generatoritem id="Outline Text1">
            <name>Outline Text</name>
            <duration>3801.3</duration>
            <rate>
              <timebase>30</timebase>
              <ntsc>false</ntsc>
            </rate>
            <start>3024.8999999999987</start>
            <end>3122.3999999999987</end>
            <in>3024.8999999999987</in>
            <out>3122.3999999999987</out>
            <enabled>true</enabled>
            <anamorphic>false</anamorphic>
            <alphatype>black</alphatype>
            <masterclipid>Outline Text1</masterclipid>
            <effect>
              <name>Outline Text</name>
              <effectid>Outline Text</effectid>
              <effectcategory>Text</effectcategory>
              <effecttype>generator</effecttype>
              <mediatype>video</mediatype>
              <parameter>
                <parameterid>part1</parameterid>
                <name>Text Settings</name>
                <value/>
              </parameter>
              <parameter>
                <parameterid>str</parameterid>
                <name>Text</name>
                <value>저는 현재 좋은 작품으로 찾아</value>
              </parameter>
              <parameter>
                <parameterid>font</parameterid>
                <name>Font</name>
                <value>MalgunGothicBold</value>
              </parameter>
              <parameter>
                <parameterid>style</parameterid>
                <name>Style</name>
                <valuemin>1</valuemin>
                <valuemax>1</valuemax>
                <valuelist>
                  <valueentry>
                    <name>Regular</name>
                    <value>1</value>
                  </valueentry>
                </valuelist>
                <value>1</value>
              </parameter>
              <parameter>
                <parameterid>align</parameterid>
                <name>Alignment</name>
                <valuemin>1</valuemin>
                <valuemax>3</valuemax>
                <valuelist>
                  <valueentry>
                    <name>Left</name>
                    <value>1</value>
                  </valueentry>
                  <valueentry>
                    <name>Center</name>
                    <value>2</value>
                  </valueentry>
                  <valueentry>
                    <name>Right</name>
                    <value>3</value>
                  </valueentry>
                </valuelist>
                <value>2</value>
              </parameter>
              <parameter>
                <parameterid>size</parameterid>
                <name>Size</name>
                <valuemin>0</valuemin>
                <valuemax>200</valuemax>
                <value>24</value>
              </parameter>
              <parameter>
                <parameterid>track</parameterid>
                <name>Tracking</name>
                <valuemin>0</valuemin>
                <valuemax>100</valuemax>
                <value>1</value>
              </parameter>
              <parameter>
                <parameterid>lead</parameterid>
                <name>Leading</name>
                <valuemin>-100</valuemin>
                <valuemax>100</valuemax>
                <value>0</value>
              </parameter>
              <parameter>
                <parameterid>aspect</parameterid>
                <name>Aspect</name>
                <valuemin>0</valuemin>
                <valuemax>4</valuemax>
                <value>1</value>
              </parameter>
              <parameter>
                <parameterid>linewidth</parameterid>
                <name>Line Width</name>
                <valuemin>0</valuemin>
                <valuemax>200</valuemax>
                <value>2</value>
              </parameter>
              <parameter>
                <parameterid>linesoft</parameterid>
                <name>Line Softness</name>
                <valuemin>0</valuemin>
                <valuemax>100</valuemax>
                <value>5</value>
              </parameter>
              <parameter>
                <parameterid>textopacity</parameterid>
                <name>Text Opacity</name>
                <valuemin>0</valuemin>
                <valuemax>100</valuemax>
                <value>100</value>
              </parameter>
              <parameter>
                <parameterid>center</parameterid>
                <name>Center</name>
                <value>
                  <horiz>0</horiz>
                  <vert>0.42592592592592593</vert>
                </value>
              </parameter>
              <parameter>
                <parameterid>textcolor</parameterid>
                <name>Text Color</name>
                <value>
                  <alpha>255</alpha>
                  <red>255</red>
                  <green>255</green>
                  <blue>255</blue>
                </value>
              </parameter>
              <parameter>
                <parameterid>supertext</parameterid>
                <name>Text Graphic</name>
              </parameter>
              <parameter>
                <parameterid>linecolor</parameterid>
                <name>Line Color</name>
                <value>
                  <alpha>255</alpha>
                  <red>0</red>
                  <green>0</green>
                  <blue>0</blue>
                </value>
              </parameter>
              <parameter>
                <parameterid>superline</parameterid>
                <name>Line Graphic</name>
              </parameter>
              <parameter>
                <parameterid>part2</parameterid>
                <name>Background Settings</name>
                <value/>
              </parameter>
              <parameter>
                <parameterid>xscale</parameterid>
                <name>Horizontal Size</name>
                <valuemin>0</valuemin>
                <valuemax>200</valuemax>
                <value>0</value>
              </parameter>
              <parameter>
                <parameterid>yscale</parameterid>
                <name>Vertical Size</name>
                <valuemin>0</valuemin>
                <valuemax>200</valuemax>
                <value>0</value>
              </parameter>
              <parameter>
                <parameterid>xoffset</parameterid>
                <name>Horizontal Offset</name>
                <valuemin>-100</valuemin>
                <valuemax>100</valuemax>
                <value>0</value>
              </parameter>
              <parameter>
                <parameterid>yoffset</parameterid>
                <name>Vertical Offset</name>
                <valuemin>-100</valuemin>
                <valuemax>100</valuemax>
                <value>0</value>
              </parameter>
              <parameter>
                <parameterid>backsoft</parameterid>
                <name>Back Soft</name>
                <valuemin>0</valuemin>
                <valuemax>100</valuemax>
                <value>0</value>
              </parameter>
              <parameter>
                <parameterid>backopacity</parameterid>
                <name>Back Opacity</name>
                <valuemin>0</valuemin>
                <valuemax>100</valuemax>
                <value>50</value>
              </parameter>
              <parameter>
                <parameterid>backcolor</parameterid>
                <name>Back Color</name>
                <value>
                  <alpha>255</alpha>
                  <red>255</red>
                  <green>255</green>
                  <blue>255</blue>
                </value>
              </parameter>
              <parameter>
                <parameterid>superback</parameterid>
                <name>Back Graphic</name>
              </parameter>
              <parameter>
                <parameterid>crop</parameterid>
                <name>Crop</name>
                <value>false</value>
              </parameter>
              <parameter>
                <parameterid>autokern</parameterid>
                <name>Auto Kerning</name>
                <value>true</value>
              </parameter>
            </effect>
            <sourcetrack>
              <mediatype>video</mediatype>
            </sourcetrack>
          </generatoritem>
          <generatoritem id="Outline Text1">
            <name>Outline Text</name>
            <duration>3801.3</duration>
            <rate>
              <timebase>30</timebase>
              <ntsc>false</ntsc>
            </rate>
            <start>3122.3999999999987</start>
            <end>3227.0999999999985</end>
            <in>3122.3999999999987</in>
            <out>3227.0999999999985</out>
            <enabled>true</enabled>
            <anamorphic>false</anamorphic>
            <alphatype>black</alphatype>
            <masterclipid>Outline Text1</masterclipid>
            <effect>
              <name>Outline Text</name>
              <effectid>Outline Text</effectid>
              <effectcategory>Text</effectcategory>
              <effecttype>generator</effecttype>
              <mediatype>video</mediatype>
              <parameter>
                <parameterid>part1</parameterid>
                <name>Text Settings</name>
                <value/>
              </parameter>
              <parameter>
                <parameterid>str</parameterid>
                <name>Text</name>
                <value>뵙고 싶어서 신중하게 작품을 고르고 있는 중이고요</value>
              </parameter>
              <parameter>
                <parameterid>font</parameterid>
                <name>Font</name>
                <value>MalgunGothicBold</value>
              </parameter>
              <parameter>
                <parameterid>style</parameterid>
                <name>Style</name>
                <valuemin>1</valuemin>
                <valuemax>1</valuemax>
                <valuelist>
                  <valueentry>
                    <name>Regular</name>
                    <value>1</value>
                  </valueentry>
                </valuelist>
                <value>1</value>
              </parameter>
              <parameter>
                <parameterid>align</parameterid>
                <name>Alignment</name>
                <valuemin>1</valuemin>
                <valuemax>3</valuemax>
                <valuelist>
                  <valueentry>
                    <name>Left</name>
                    <value>1</value>
                  </valueentry>
                  <valueentry>
                    <name>Center</name>
                    <value>2</value>
                  </valueentry>
                  <valueentry>
                    <name>Right</name>
                    <value>3</value>
                  </valueentry>
                </valuelist>
                <value>2</value>
              </parameter>
              <parameter>
                <parameterid>size</parameterid>
                <name>Size</name>
                <valuemin>0</valuemin>
                <valuemax>200</valuemax>
                <value>24</value>
              </parameter>
              <parameter>
                <parameterid>track</parameterid>
                <name>Tracking</name>
                <valuemin>0</valuemin>
                <valuemax>100</valuemax>
                <value>1</value>
              </parameter>
              <parameter>
                <parameterid>lead</parameterid>
                <name>Leading</name>
                <valuemin>-100</valuemin>
                <valuemax>100</valuemax>
                <value>0</value>
              </parameter>
              <parameter>
                <parameterid>aspect</parameterid>
                <name>Aspect</name>
                <valuemin>0</valuemin>
                <valuemax>4</valuemax>
                <value>1</value>
              </parameter>
              <parameter>
                <parameterid>linewidth</parameterid>
                <name>Line Width</name>
                <valuemin>0</valuemin>
                <valuemax>200</valuemax>
                <value>2</value>
              </parameter>
              <parameter>
                <parameterid>linesoft</parameterid>
                <name>Line Softness</name>
                <valuemin>0</valuemin>
                <valuemax>100</valuemax>
                <value>5</value>
              </parameter>
              <parameter>
                <parameterid>textopacity</parameterid>
                <name>Text Opacity</name>
                <valuemin>0</valuemin>
                <valuemax>100</valuemax>
                <value>100</value>
              </parameter>
              <parameter>
                <parameterid>center</parameterid>
                <name>Center</name>
                <value>
                  <horiz>0</horiz>
                  <vert>0.42592592592592593</vert>
                </value>
              </parameter>
              <parameter>
                <parameterid>textcolor</parameterid>
                <name>Text Color</name>
                <value>
                  <alpha>255</alpha>
                  <red>255</red>
                  <green>255</green>
                  <blue>255</blue>
                </value>
              </parameter>
              <parameter>
                <parameterid>supertext</parameterid>
                <name>Text Graphic</name>
              </parameter>
              <parameter>
                <parameterid>linecolor</parameterid>
                <name>Line Color</name>
                <value>
                  <alpha>255</alpha>
                  <red>0</red>
                  <green>0</green>
                  <blue>0</blue>
                </value>
              </parameter>
              <parameter>
                <parameterid>superline</parameterid>
                <name>Line Graphic</name>
              </parameter>
              <parameter>
                <parameterid>part2</parameterid>
                <name>Background Settings</name>
                <value/>
              </parameter>
              <parameter>
                <parameterid>xscale</parameterid>
                <name>Horizontal Size</name>
                <valuemin>0</valuemin>
                <valuemax>200</valuemax>
                <value>0</value>
              </parameter>
              <parameter>
                <parameterid>yscale</parameterid>
                <name>Vertical Size</name>
                <valuemin>0</valuemin>
                <valuemax>200</valuemax>
                <value>0</value>
              </parameter>
              <parameter>
                <parameterid>xoffset</parameterid>
                <name>Horizontal Offset</name>
                <valuemin>-100</valuemin>
                <valuemax>100</valuemax>
                <value>0</value>
              </parameter>
              <parameter>
                <parameterid>yoffset</parameterid>
                <name>Vertical Offset</name>
                <valuemin>-100</valuemin>
                <valuemax>100</valuemax>
                <value>0</value>
              </parameter>
              <parameter>
                <parameterid>backsoft</parameterid>
                <name>Back Soft</name>
                <valuemin>0</valuemin>
                <valuemax>100</valuemax>
                <value>0</value>
              </parameter>
              <parameter>
                <parameterid>backopacity</parameterid>
                <name>Back Opacity</name>
                <valuemin>0</valuemin>
                <valuemax>100</valuemax>
                <value>50</value>
              </parameter>
              <parameter>
                <parameterid>backcolor</parameterid>
                <name>Back Color</name>
                <value>
                  <alpha>255</alpha>
                  <red>255</red>
                  <green>255</green>
                  <blue>255</blue>
                </value>
              </parameter>
              <parameter>
                <parameterid>superback</parameterid>
                <name>Back Graphic</name>
              </parameter>
              <parameter>
                <parameterid>crop</parameterid>
                <name>Crop</name>
                <value>false</value>
              </parameter>
              <parameter>
                <parameterid>autokern</parameterid>
                <name>Auto Kerning</name>
                <value>true</value>
              </parameter>
            </effect>
            <sourcetrack>
              <mediatype>video</mediatype>
            </sourcetrack>
          </generatoritem>
          <generatoritem id="Outline Text1">
            <name>Outline Text</name>
            <duration>3801.3</duration>
            <rate>
              <timebase>30</timebase>
              <ntsc>false</ntsc>
            </rate>
            <start>3227.0999999999985</start>
            <end>3298.4999999999986</end>
            <in>3227.0999999999985</in>
            <out>3298.4999999999986</out>
            <enabled>true</enabled>
            <anamorphic>false</anamorphic>
            <alphatype>black</alphatype>
            <masterclipid>Outline Text1</masterclipid>
            <effect>
              <name>Outline Text</name>
              <effectid>Outline Text</effectid>
              <effectcategory>Text</effectcategory>
              <effecttype>generator</effecttype>
              <mediatype>video</mediatype>
              <parameter>
                <parameterid>part1</parameterid>
                <name>Text Settings</name>
                <value/>
              </parameter>
              <parameter>
                <parameterid>str</parameterid>
                <name>Text</name>
                <value>조금만 기다려 주시면 건강하고</value>
              </parameter>
              <parameter>
                <parameterid>font</parameterid>
                <name>Font</name>
                <value>MalgunGothicBold</value>
              </parameter>
              <parameter>
                <parameterid>style</parameterid>
                <name>Style</name>
                <valuemin>1</valuemin>
                <valuemax>1</valuemax>
                <valuelist>
                  <valueentry>
                    <name>Regular</name>
                    <value>1</value>
                  </valueentry>
                </valuelist>
                <value>1</value>
              </parameter>
              <parameter>
                <parameterid>align</parameterid>
                <name>Alignment</name>
                <valuemin>1</valuemin>
                <valuemax>3</valuemax>
                <valuelist>
                  <valueentry>
                    <name>Left</name>
                    <value>1</value>
                  </valueentry>
                  <valueentry>
                    <name>Center</name>
                    <value>2</value>
                  </valueentry>
                  <valueentry>
                    <name>Right</name>
                    <value>3</value>
                  </valueentry>
                </valuelist>
                <value>2</value>
              </parameter>
              <parameter>
                <parameterid>size</parameterid>
                <name>Size</name>
                <valuemin>0</valuemin>
                <valuemax>200</valuemax>
                <value>24</value>
              </parameter>
              <parameter>
                <parameterid>track</parameterid>
                <name>Tracking</name>
                <valuemin>0</valuemin>
                <valuemax>100</valuemax>
                <value>1</value>
              </parameter>
              <parameter>
                <parameterid>lead</parameterid>
                <name>Leading</name>
                <valuemin>-100</valuemin>
                <valuemax>100</valuemax>
                <value>0</value>
              </parameter>
              <parameter>
                <parameterid>aspect</parameterid>
                <name>Aspect</name>
                <valuemin>0</valuemin>
                <valuemax>4</valuemax>
                <value>1</value>
              </parameter>
              <parameter>
                <parameterid>linewidth</parameterid>
                <name>Line Width</name>
                <valuemin>0</valuemin>
                <valuemax>200</valuemax>
                <value>2</value>
              </parameter>
              <parameter>
                <parameterid>linesoft</parameterid>
                <name>Line Softness</name>
                <valuemin>0</valuemin>
                <valuemax>100</valuemax>
                <value>5</value>
              </parameter>
              <parameter>
                <parameterid>textopacity</parameterid>
                <name>Text Opacity</name>
                <valuemin>0</valuemin>
                <valuemax>100</valuemax>
                <value>100</value>
              </parameter>
              <parameter>
                <parameterid>center</parameterid>
                <name>Center</name>
                <value>
                  <horiz>0</horiz>
                  <vert>0.42592592592592593</vert>
                </value>
              </parameter>
              <parameter>
                <parameterid>textcolor</parameterid>
                <name>Text Color</name>
                <value>
                  <alpha>255</alpha>
                  <red>255</red>
                  <green>255</green>
                  <blue>255</blue>
                </value>
              </parameter>
              <parameter>
                <parameterid>supertext</parameterid>
                <name>Text Graphic</name>
              </parameter>
              <parameter>
                <parameterid>linecolor</parameterid>
                <name>Line Color</name>
                <value>
                  <alpha>255</alpha>
                  <red>0</red>
                  <green>0</green>
                  <blue>0</blue>
                </value>
              </parameter>
              <parameter>
                <parameterid>superline</parameterid>
                <name>Line Graphic</name>
              </parameter>
              <parameter>
                <parameterid>part2</parameterid>
                <name>Background Settings</name>
                <value/>
              </parameter>
              <parameter>
                <parameterid>xscale</parameterid>
                <name>Horizontal Size</name>
                <valuemin>0</valuemin>
                <valuemax>200</valuemax>
                <value>0</value>
              </parameter>
              <parameter>
                <parameterid>yscale</parameterid>
                <name>Vertical Size</name>
                <valuemin>0</valuemin>
                <valuemax>200</valuemax>
                <value>0</value>
              </parameter>
              <parameter>
                <parameterid>xoffset</parameterid>
                <name>Horizontal Offset</name>
                <valuemin>-100</valuemin>
                <valuemax>100</valuemax>
                <value>0</value>
              </parameter>
              <parameter>
                <parameterid>yoffset</parameterid>
                <name>Vertical Offset</name>
                <valuemin>-100</valuemin>
                <valuemax>100</valuemax>
                <value>0</value>
              </parameter>
              <parameter>
                <parameterid>backsoft</parameterid>
                <name>Back Soft</name>
                <valuemin>0</valuemin>
                <valuemax>100</valuemax>
                <value>0</value>
              </parameter>
              <parameter>
                <parameterid>backopacity</parameterid>
                <name>Back Opacity</name>
                <valuemin>0</valuemin>
                <valuemax>100</valuemax>
                <value>50</value>
              </parameter>
              <parameter>
                <parameterid>backcolor</parameterid>
                <name>Back Color</name>
                <value>
                  <alpha>255</alpha>
                  <red>255</red>
                  <green>255</green>
                  <blue>255</blue>
                </value>
              </parameter>
              <parameter>
                <parameterid>superback</parameterid>
                <name>Back Graphic</name>
              </parameter>
              <parameter>
                <parameterid>crop</parameterid>
                <name>Crop</name>
                <value>false</value>
              </parameter>
              <parameter>
                <parameterid>autokern</parameterid>
                <name>Auto Kerning</name>
                <value>true</value>
              </parameter>
            </effect>
            <sourcetrack>
              <mediatype>video</mediatype>
            </sourcetrack>
          </generatoritem>
          <generatoritem id="Outline Text1">
            <name>Outline Text</name>
            <duration>3801.3</duration>
            <rate>
              <timebase>30</timebase>
              <ntsc>false</ntsc>
            </rate>
            <start>3298.4999999999986</start>
            <end>3411.2999999999984</end>
            <in>3298.4999999999986</in>
            <out>3411.2999999999984</out>
            <enabled>true</enabled>
            <anamorphic>false</anamorphic>
            <alphatype>black</alphatype>
            <masterclipid>Outline Text1</masterclipid>
            <effect>
              <name>Outline Text</name>
              <effectid>Outline Text</effectid>
              <effectcategory>Text</effectcategory>
              <effecttype>generator</effecttype>
              <mediatype>video</mediatype>
              <parameter>
                <parameterid>part1</parameterid>
                <name>Text Settings</name>
                <value/>
              </parameter>
              <parameter>
                <parameterid>str</parameterid>
                <name>Text</name>
                <value>좋은 모습으로 다시 정했습니다</value>
              </parameter>
              <parameter>
                <parameterid>font</parameterid>
                <name>Font</name>
                <value>MalgunGothicBold</value>
              </parameter>
              <parameter>
                <parameterid>style</parameterid>
                <name>Style</name>
                <valuemin>1</valuemin>
                <valuemax>1</valuemax>
                <valuelist>
                  <valueentry>
                    <name>Regular</name>
                    <value>1</value>
                  </valueentry>
                </valuelist>
                <value>1</value>
              </parameter>
              <parameter>
                <parameterid>align</parameterid>
                <name>Alignment</name>
                <valuemin>1</valuemin>
                <valuemax>3</valuemax>
                <valuelist>
                  <valueentry>
                    <name>Left</name>
                    <value>1</value>
                  </valueentry>
                  <valueentry>
                    <name>Center</name>
                    <value>2</value>
                  </valueentry>
                  <valueentry>
                    <name>Right</name>
                    <value>3</value>
                  </valueentry>
                </valuelist>
                <value>2</value>
              </parameter>
              <parameter>
                <parameterid>size</parameterid>
                <name>Size</name>
                <valuemin>0</valuemin>
                <valuemax>200</valuemax>
                <value>24</value>
              </parameter>
              <parameter>
                <parameterid>track</parameterid>
                <name>Tracking</name>
                <valuemin>0</valuemin>
                <valuemax>100</valuemax>
                <value>1</value>
              </parameter>
              <parameter>
                <parameterid>lead</parameterid>
                <name>Leading</name>
                <valuemin>-100</valuemin>
                <valuemax>100</valuemax>
                <value>0</value>
              </parameter>
              <parameter>
                <parameterid>aspect</parameterid>
                <name>Aspect</name>
                <valuemin>0</valuemin>
                <valuemax>4</valuemax>
                <value>1</value>
              </parameter>
              <parameter>
                <parameterid>linewidth</parameterid>
                <name>Line Width</name>
                <valuemin>0</valuemin>
                <valuemax>200</valuemax>
                <value>2</value>
              </parameter>
              <parameter>
                <parameterid>linesoft</parameterid>
                <name>Line Softness</name>
                <valuemin>0</valuemin>
                <valuemax>100</valuemax>
                <value>5</value>
              </parameter>
              <parameter>
                <parameterid>textopacity</parameterid>
                <name>Text Opacity</name>
                <valuemin>0</valuemin>
                <valuemax>100</valuemax>
                <value>100</value>
              </parameter>
              <parameter>
                <parameterid>center</parameterid>
                <name>Center</name>
                <value>
                  <horiz>0</horiz>
                  <vert>0.42592592592592593</vert>
                </value>
              </parameter>
              <parameter>
                <parameterid>textcolor</parameterid>
                <name>Text Color</name>
                <value>
                  <alpha>255</alpha>
                  <red>255</red>
                  <green>255</green>
                  <blue>255</blue>
                </value>
              </parameter>
              <parameter>
                <parameterid>supertext</parameterid>
                <name>Text Graphic</name>
              </parameter>
              <parameter>
                <parameterid>linecolor</parameterid>
                <name>Line Color</name>
                <value>
                  <alpha>255</alpha>
                  <red>0</red>
                  <green>0</green>
                  <blue>0</blue>
                </value>
              </parameter>
              <parameter>
                <parameterid>superline</parameterid>
                <name>Line Graphic</name>
              </parameter>
              <parameter>
                <parameterid>part2</parameterid>
                <name>Background Settings</name>
                <value/>
              </parameter>
              <parameter>
                <parameterid>xscale</parameterid>
                <name>Horizontal Size</name>
                <valuemin>0</valuemin>
                <valuemax>200</valuemax>
                <value>0</value>
              </parameter>
              <parameter>
                <parameterid>yscale</parameterid>
                <name>Vertical Size</name>
                <valuemin>0</valuemin>
                <valuemax>200</valuemax>
                <value>0</value>
              </parameter>
              <parameter>
                <parameterid>xoffset</parameterid>
                <name>Horizontal Offset</name>
                <valuemin>-100</valuemin>
                <valuemax>100</valuemax>
                <value>0</value>
              </parameter>
              <parameter>
                <parameterid>yoffset</parameterid>
                <name>Vertical Offset</name>
                <valuemin>-100</valuemin>
                <valuemax>100</valuemax>
                <value>0</value>
              </parameter>
              <parameter>
                <parameterid>backsoft</parameterid>
                <name>Back Soft</name>
                <valuemin>0</valuemin>
                <valuemax>100</valuemax>
                <value>0</value>
              </parameter>
              <parameter>
                <parameterid>backopacity</parameterid>
                <name>Back Opacity</name>
                <valuemin>0</valuemin>
                <valuemax>100</valuemax>
                <value>50</value>
              </parameter>
              <parameter>
                <parameterid>backcolor</parameterid>
                <name>Back Color</name>
                <value>
                  <alpha>255</alpha>
                  <red>255</red>
                  <green>255</green>
                  <blue>255</blue>
                </value>
              </parameter>
              <parameter>
                <parameterid>superback</parameterid>
                <name>Back Graphic</name>
              </parameter>
              <parameter>
                <parameterid>crop</parameterid>
                <name>Crop</name>
                <value>false</value>
              </parameter>
              <parameter>
                <parameterid>autokern</parameterid>
                <name>Auto Kerning</name>
                <value>true</value>
              </parameter>
            </effect>
            <sourcetrack>
              <mediatype>video</mediatype>
            </sourcetrack>
          </generatoritem>
          <generatoritem id="Outline Text1">
            <name>Outline Text</name>
            <duration>3801.3</duration>
            <rate>
              <timebase>30</timebase>
              <ntsc>false</ntsc>
            </rate>
            <start>3411.2999999999984</start>
            <end>3455.3999999999987</end>
            <in>3411.2999999999984</in>
            <out>3455.3999999999987</out>
            <enabled>true</enabled>
            <anamorphic>false</anamorphic>
            <alphatype>black</alphatype>
            <masterclipid>Outline Text1</masterclipid>
            <effect>
              <name>Outline Text</name>
              <effectid>Outline Text</effectid>
              <effectcategory>Text</effectcategory>
              <effecttype>generator</effecttype>
              <mediatype>video</mediatype>
              <parameter>
                <parameterid>part1</parameterid>
                <name>Text Settings</name>
                <value/>
              </parameter>
              <parameter>
                <parameterid>str</parameterid>
                <name>Text</name>
                <value>앞으로도 이름과 배우</value>
              </parameter>
              <parameter>
                <parameterid>font</parameterid>
                <name>Font</name>
                <value>MalgunGothicBold</value>
              </parameter>
              <parameter>
                <parameterid>style</parameterid>
                <name>Style</name>
                <valuemin>1</valuemin>
                <valuemax>1</valuemax>
                <valuelist>
                  <valueentry>
                    <name>Regular</name>
                    <value>1</value>
                  </valueentry>
                </valuelist>
                <value>1</value>
              </parameter>
              <parameter>
                <parameterid>align</parameterid>
                <name>Alignment</name>
                <valuemin>1</valuemin>
                <valuemax>3</valuemax>
                <valuelist>
                  <valueentry>
                    <name>Left</name>
                    <value>1</value>
                  </valueentry>
                  <valueentry>
                    <name>Center</name>
                    <value>2</value>
                  </valueentry>
                  <valueentry>
                    <name>Right</name>
                    <value>3</value>
                  </valueentry>
                </valuelist>
                <value>2</value>
              </parameter>
              <parameter>
                <parameterid>size</parameterid>
                <name>Size</name>
                <valuemin>0</valuemin>
                <valuemax>200</valuemax>
                <value>24</value>
              </parameter>
              <parameter>
                <parameterid>track</parameterid>
                <name>Tracking</name>
                <valuemin>0</valuemin>
                <valuemax>100</valuemax>
                <value>1</value>
              </parameter>
              <parameter>
                <parameterid>lead</parameterid>
                <name>Leading</name>
                <valuemin>-100</valuemin>
                <valuemax>100</valuemax>
                <value>0</value>
              </parameter>
              <parameter>
                <parameterid>aspect</parameterid>
                <name>Aspect</name>
                <valuemin>0</valuemin>
                <valuemax>4</valuemax>
                <value>1</value>
              </parameter>
              <parameter>
                <parameterid>linewidth</parameterid>
                <name>Line Width</name>
                <valuemin>0</valuemin>
                <valuemax>200</valuemax>
                <value>2</value>
              </parameter>
              <parameter>
                <parameterid>linesoft</parameterid>
                <name>Line Softness</name>
                <valuemin>0</valuemin>
                <valuemax>100</valuemax>
                <value>5</value>
              </parameter>
              <parameter>
                <parameterid>textopacity</parameterid>
                <name>Text Opacity</name>
                <valuemin>0</valuemin>
                <valuemax>100</valuemax>
                <value>100</value>
              </parameter>
              <parameter>
                <parameterid>center</parameterid>
                <name>Center</name>
                <value>
                  <horiz>0</horiz>
                  <vert>0.42592592592592593</vert>
                </value>
              </parameter>
              <parameter>
                <parameterid>textcolor</parameterid>
                <name>Text Color</name>
                <value>
                  <alpha>255</alpha>
                  <red>255</red>
                  <green>255</green>
                  <blue>255</blue>
                </value>
              </parameter>
              <parameter>
                <parameterid>supertext</parameterid>
                <name>Text Graphic</name>
              </parameter>
              <parameter>
                <parameterid>linecolor</parameterid>
                <name>Line Color</name>
                <value>
                  <alpha>255</alpha>
                  <red>0</red>
                  <green>0</green>
                  <blue>0</blue>
                </value>
              </parameter>
              <parameter>
                <parameterid>superline</parameterid>
                <name>Line Graphic</name>
              </parameter>
              <parameter>
                <parameterid>part2</parameterid>
                <name>Background Settings</name>
                <value/>
              </parameter>
              <parameter>
                <parameterid>xscale</parameterid>
                <name>Horizontal Size</name>
                <valuemin>0</valuemin>
                <valuemax>200</valuemax>
                <value>0</value>
              </parameter>
              <parameter>
                <parameterid>yscale</parameterid>
                <name>Vertical Size</name>
                <valuemin>0</valuemin>
                <valuemax>200</valuemax>
                <value>0</value>
              </parameter>
              <parameter>
                <parameterid>xoffset</parameterid>
                <name>Horizontal Offset</name>
                <valuemin>-100</valuemin>
                <valuemax>100</valuemax>
                <value>0</value>
              </parameter>
              <parameter>
                <parameterid>yoffset</parameterid>
                <name>Vertical Offset</name>
                <valuemin>-100</valuemin>
                <valuemax>100</valuemax>
                <value>0</value>
              </parameter>
              <parameter>
                <parameterid>backsoft</parameterid>
                <name>Back Soft</name>
                <valuemin>0</valuemin>
                <valuemax>100</valuemax>
                <value>0</value>
              </parameter>
              <parameter>
                <parameterid>backopacity</parameterid>
                <name>Back Opacity</name>
                <valuemin>0</valuemin>
                <valuemax>100</valuemax>
                <value>50</value>
              </parameter>
              <parameter>
                <parameterid>backcolor</parameterid>
                <name>Back Color</name>
                <value>
                  <alpha>255</alpha>
                  <red>255</red>
                  <green>255</green>
                  <blue>255</blue>
                </value>
              </parameter>
              <parameter>
                <parameterid>superback</parameterid>
                <name>Back Graphic</name>
              </parameter>
              <parameter>
                <parameterid>crop</parameterid>
                <name>Crop</name>
                <value>false</value>
              </parameter>
              <parameter>
                <parameterid>autokern</parameterid>
                <name>Auto Kerning</name>
                <value>true</value>
              </parameter>
            </effect>
            <sourcetrack>
              <mediatype>video</mediatype>
            </sourcetrack>
          </generatoritem>
          <generatoritem id="Outline Text1">
            <name>Outline Text</name>
            <duration>3801.3</duration>
            <rate>
              <timebase>30</timebase>
              <ntsc>false</ntsc>
            </rate>
            <start>3455.3999999999987</start>
            <end>3801.299999999998</end>
            <in>3455.3999999999987</in>
            <out>3801.299999999998</out>
            <enabled>true</enabled>
            <anamorphic>false</anamorphic>
            <alphatype>black</alphatype>
            <masterclipid>Outline Text1</masterclipid>
            <effect>
              <name>Outline Text</name>
              <effectid>Outline Text</effectid>
              <effectcategory>Text</effectcategory>
              <effecttype>generator</effecttype>
              <mediatype>video</mediatype>
              <parameter>
                <parameterid>part1</parameterid>
                <name>Text Settings</name>
                <value/>
              </parameter>
              <parameter>
                <parameterid>str</parameterid>
                <name>Text</name>
                <value>공유 많이 주십시오 감사합니다 늘 행복하세요</value>
              </parameter>
              <parameter>
                <parameterid>font</parameterid>
                <name>Font</name>
                <value>MalgunGothicBold</value>
              </parameter>
              <parameter>
                <parameterid>style</parameterid>
                <name>Style</name>
                <valuemin>1</valuemin>
                <valuemax>1</valuemax>
                <valuelist>
                  <valueentry>
                    <name>Regular</name>
                    <value>1</value>
                  </valueentry>
                </valuelist>
                <value>1</value>
              </parameter>
              <parameter>
                <parameterid>align</parameterid>
                <name>Alignment</name>
                <valuemin>1</valuemin>
                <valuemax>3</valuemax>
                <valuelist>
                  <valueentry>
                    <name>Left</name>
                    <value>1</value>
                  </valueentry>
                  <valueentry>
                    <name>Center</name>
                    <value>2</value>
                  </valueentry>
                  <valueentry>
                    <name>Right</name>
                    <value>3</value>
                  </valueentry>
                </valuelist>
                <value>2</value>
              </parameter>
              <parameter>
                <parameterid>size</parameterid>
                <name>Size</name>
                <valuemin>0</valuemin>
                <valuemax>200</valuemax>
                <value>24</value>
              </parameter>
              <parameter>
                <parameterid>track</parameterid>
                <name>Tracking</name>
                <valuemin>0</valuemin>
                <valuemax>100</valuemax>
                <value>1</value>
              </parameter>
              <parameter>
                <parameterid>lead</parameterid>
                <name>Leading</name>
                <valuemin>-100</valuemin>
                <valuemax>100</valuemax>
                <value>0</value>
              </parameter>
              <parameter>
                <parameterid>aspect</parameterid>
                <name>Aspect</name>
                <valuemin>0</valuemin>
                <valuemax>4</valuemax>
                <value>1</value>
              </parameter>
              <parameter>
                <parameterid>linewidth</parameterid>
                <name>Line Width</name>
                <valuemin>0</valuemin>
                <valuemax>200</valuemax>
                <value>2</value>
              </parameter>
              <parameter>
                <parameterid>linesoft</parameterid>
                <name>Line Softness</name>
                <valuemin>0</valuemin>
                <valuemax>100</valuemax>
                <value>5</value>
              </parameter>
              <parameter>
                <parameterid>textopacity</parameterid>
                <name>Text Opacity</name>
                <valuemin>0</valuemin>
                <valuemax>100</valuemax>
                <value>100</value>
              </parameter>
              <parameter>
                <parameterid>center</parameterid>
                <name>Center</name>
                <value>
                  <horiz>0</horiz>
                  <vert>0.42592592592592593</vert>
                </value>
              </parameter>
              <parameter>
                <parameterid>textcolor</parameterid>
                <name>Text Color</name>
                <value>
                  <alpha>255</alpha>
                  <red>255</red>
                  <green>255</green>
                  <blue>255</blue>
                </value>
              </parameter>
              <parameter>
                <parameterid>supertext</parameterid>
                <name>Text Graphic</name>
              </parameter>
              <parameter>
                <parameterid>linecolor</parameterid>
                <name>Line Color</name>
                <value>
                  <alpha>255</alpha>
                  <red>0</red>
                  <green>0</green>
                  <blue>0</blue>
                </value>
              </parameter>
              <parameter>
                <parameterid>superline</parameterid>
                <name>Line Graphic</name>
              </parameter>
              <parameter>
                <parameterid>part2</parameterid>
                <name>Background Settings</name>
                <value/>
              </parameter>
              <parameter>
                <parameterid>xscale</parameterid>
                <name>Horizontal Size</name>
                <valuemin>0</valuemin>
                <valuemax>200</valuemax>
                <value>0</value>
              </parameter>
              <parameter>
                <parameterid>yscale</parameterid>
                <name>Vertical Size</name>
                <valuemin>0</valuemin>
                <valuemax>200</valuemax>
                <value>0</value>
              </parameter>
              <parameter>
                <parameterid>xoffset</parameterid>
                <name>Horizontal Offset</name>
                <valuemin>-100</valuemin>
                <valuemax>100</valuemax>
                <value>0</value>
              </parameter>
              <parameter>
                <parameterid>yoffset</parameterid>
                <name>Vertical Offset</name>
                <valuemin>-100</valuemin>
                <valuemax>100</valuemax>
                <value>0</value>
              </parameter>
              <parameter>
                <parameterid>backsoft</parameterid>
                <name>Back Soft</name>
                <valuemin>0</valuemin>
                <valuemax>100</valuemax>
                <value>0</value>
              </parameter>
              <parameter>
                <parameterid>backopacity</parameterid>
                <name>Back Opacity</name>
                <valuemin>0</valuemin>
                <valuemax>100</valuemax>
                <value>50</value>
              </parameter>
              <parameter>
                <parameterid>backcolor</parameterid>
                <name>Back Color</name>
                <value>
                  <alpha>255</alpha>
                  <red>255</red>
                  <green>255</green>
                  <blue>255</blue>
                </value>
              </parameter>
              <parameter>
                <parameterid>superback</parameterid>
                <name>Back Graphic</name>
              </parameter>
              <parameter>
                <parameterid>crop</parameterid>
                <name>Crop</name>
                <value>false</value>
              </parameter>
              <parameter>
                <parameterid>autokern</parameterid>
                <name>Auto Kerning</name>
                <value>true</value>
              </parameter>
            </effect>
            <sourcetrack>
              <mediatype>video</mediatype>
            </sourcetrack>
          </generatoritem>
        </track>
      </video>
      <audio>
        <in>0</in>
        <out>3801.3</out>
        <channelcount>2</channelcount>
        <duration>3801.3</duration>
        <track>
          <clipitem>
            <name>[일룸] 일룸모델 공유의 인터뷰영상.mp4</name>
            <enabled>true</enabled>
            <in>0</in>
            <out>191.70000000000002</out>
            <start>0</start>
            <end>191.70000000000002</end>
            <file id="[일룸] 일룸모델 공유의 인터뷰영상.mp4"/>
            <sourcetrack>
              <mediatype>audio</mediatype>
              <trackindex>1</trackindex>
            </sourcetrack>
          </clipitem>
          <clipitem>
            <name>[일룸] 일룸모델 공유의 인터뷰영상.mp4</name>
            <enabled>true</enabled>
            <in>191.7</in>
            <out>401.4</out>
            <start>191.70000000000002</start>
            <end>401.4</end>
            <file id="[일룸] 일룸모델 공유의 인터뷰영상.mp4"/>
            <sourcetrack>
              <mediatype>audio</mediatype>
              <trackindex>1</trackindex>
            </sourcetrack>
          </clipitem>
          <clipitem>
            <name>[일룸] 일룸모델 공유의 인터뷰영상.mp4</name>
            <enabled>true</enabled>
            <in>401.40000000000003</in>
            <out>452.4</out>
            <start>401.4</start>
            <end>452.4</end>
            <file id="[일룸] 일룸모델 공유의 인터뷰영상.mp4"/>
            <sourcetrack>
              <mediatype>audio</mediatype>
              <trackindex>1</trackindex>
            </sourcetrack>
          </clipitem>
          <clipitem>
            <name>[일룸] 일룸모델 공유의 인터뷰영상.mp4</name>
            <enabled>true</enabled>
            <in>452.4</in>
            <out>564.3</out>
            <start>452.4</start>
            <end>564.2999999999998</end>
            <file id="[일룸] 일룸모델 공유의 인터뷰영상.mp4"/>
            <sourcetrack>
              <mediatype>audio</mediatype>
              <trackindex>1</trackindex>
            </sourcetrack>
          </clipitem>
          <clipitem>
            <name>[일룸] 일룸모델 공유의 인터뷰영상.mp4</name>
            <enabled>true</enabled>
            <in>564.3</in>
            <out>733.2</out>
            <start>564.2999999999998</start>
            <end>733.1999999999999</end>
            <file id="[일룸] 일룸모델 공유의 인터뷰영상.mp4"/>
            <sourcetrack>
              <mediatype>audio</mediatype>
              <trackindex>1</trackindex>
            </sourcetrack>
          </clipitem>
          <clipitem>
            <name>[일룸] 일룸모델 공유의 인터뷰영상.mp4</name>
            <enabled>true</enabled>
            <in>733.2</in>
            <out>811.4999999999999</out>
            <start>733.1999999999999</start>
            <end>811.4999999999998</end>
            <file id="[일룸] 일룸모델 공유의 인터뷰영상.mp4"/>
            <sourcetrack>
              <mediatype>audio</mediatype>
              <trackindex>1</trackindex>
            </sourcetrack>
          </clipitem>
          <clipitem>
            <name>[일룸] 일룸모델 공유의 인터뷰영상.mp4</name>
            <enabled>true</enabled>
            <in>811.5</in>
            <out>940.2</out>
            <start>811.4999999999998</start>
            <end>940.1999999999998</end>
            <file id="[일룸] 일룸모델 공유의 인터뷰영상.mp4"/>
            <sourcetrack>
              <mediatype>audio</mediatype>
              <trackindex>1</trackindex>
            </sourcetrack>
          </clipitem>
          <clipitem>
            <name>[일룸] 일룸모델 공유의 인터뷰영상.mp4</name>
            <enabled>true</enabled>
            <in>940.2</in>
            <out>996.3000000000001</out>
            <start>940.1999999999998</start>
            <end>996.2999999999998</end>
            <file id="[일룸] 일룸모델 공유의 인터뷰영상.mp4"/>
            <sourcetrack>
              <mediatype>audio</mediatype>
              <trackindex>1</trackindex>
            </sourcetrack>
          </clipitem>
          <clipitem>
            <name>[일룸] 일룸모델 공유의 인터뷰영상.mp4</name>
            <enabled>true</enabled>
            <in>996.3000000000001</in>
            <out>1072.8</out>
            <start>996.2999999999998</start>
            <end>1072.7999999999997</end>
            <file id="[일룸] 일룸모델 공유의 인터뷰영상.mp4"/>
            <sourcetrack>
              <mediatype>audio</mediatype>
              <trackindex>1</trackindex>
            </sourcetrack>
          </clipitem>
          <clipitem>
            <name>[일룸] 일룸모델 공유의 인터뷰영상.mp4</name>
            <enabled>true</enabled>
            <in>1072.8</in>
            <out>1250.7</out>
            <start>1072.7999999999997</start>
            <end>1250.6999999999998</end>
            <file id="[일룸] 일룸모델 공유의 인터뷰영상.mp4"/>
            <sourcetrack>
              <mediatype>audio</mediatype>
              <trackindex>1</trackindex>
            </sourcetrack>
          </clipitem>
          <clipitem>
            <name>[일룸] 일룸모델 공유의 인터뷰영상.mp4</name>
            <enabled>true</enabled>
            <in>1250.6999999999998</in>
            <out>1308.9</out>
            <start>1250.6999999999998</start>
            <end>1308.9</end>
            <file id="[일룸] 일룸모델 공유의 인터뷰영상.mp4"/>
            <sourcetrack>
              <mediatype>audio</mediatype>
              <trackindex>1</trackindex>
            </sourcetrack>
          </clipitem>
          <clipitem>
            <name>[일룸] 일룸모델 공유의 인터뷰영상.mp4</name>
            <enabled>true</enabled>
            <in>1308.9</in>
            <out>1472.3999999999999</out>
            <start>1308.9</start>
            <end>1472.3999999999999</end>
            <file id="[일룸] 일룸모델 공유의 인터뷰영상.mp4"/>
            <sourcetrack>
              <mediatype>audio</mediatype>
              <trackindex>1</trackindex>
            </sourcetrack>
          </clipitem>
          <clipitem>
            <name>[일룸] 일룸모델 공유의 인터뷰영상.mp4</name>
            <enabled>true</enabled>
            <in>1472.3999999999999</in>
            <out>1562.1</out>
            <start>1472.3999999999999</start>
            <end>1562.1</end>
            <file id="[일룸] 일룸모델 공유의 인터뷰영상.mp4"/>
            <sourcetrack>
              <mediatype>audio</mediatype>
              <trackindex>1</trackindex>
            </sourcetrack>
          </clipitem>
          <clipitem>
            <name>[일룸] 일룸모델 공유의 인터뷰영상.mp4</name>
            <enabled>true</enabled>
            <in>1562.1</in>
            <out>1629.6</out>
            <start>1562.1</start>
            <end>1629.6</end>
            <file id="[일룸] 일룸모델 공유의 인터뷰영상.mp4"/>
            <sourcetrack>
              <mediatype>audio</mediatype>
              <trackindex>1</trackindex>
            </sourcetrack>
          </clipitem>
          <clipitem>
            <name>[일룸] 일룸모델 공유의 인터뷰영상.mp4</name>
            <enabled>true</enabled>
            <in>1629.6</in>
            <out>1686.6</out>
            <start>1629.6</start>
            <end>1686.6</end>
            <file id="[일룸] 일룸모델 공유의 인터뷰영상.mp4"/>
            <sourcetrack>
              <mediatype>audio</mediatype>
              <trackindex>1</trackindex>
            </sourcetrack>
          </clipitem>
          <clipitem>
            <name>[일룸] 일룸모델 공유의 인터뷰영상.mp4</name>
            <enabled>true</enabled>
            <in>1686.6</in>
            <out>1817.1</out>
            <start>1686.6</start>
            <end>1817.1</end>
            <file id="[일룸] 일룸모델 공유의 인터뷰영상.mp4"/>
            <sourcetrack>
              <mediatype>audio</mediatype>
              <trackindex>1</trackindex>
            </sourcetrack>
          </clipitem>
          <clipitem>
            <name>[일룸] 일룸모델 공유의 인터뷰영상.mp4</name>
            <enabled>true</enabled>
            <in>1817.1</in>
            <out>1888.1999999999998</out>
            <start>1817.1</start>
            <end>1888.1999999999998</end>
            <file id="[일룸] 일룸모델 공유의 인터뷰영상.mp4"/>
            <sourcetrack>
              <mediatype>audio</mediatype>
              <trackindex>1</trackindex>
            </sourcetrack>
          </clipitem>
          <clipitem>
            <name>[일룸] 일룸모델 공유의 인터뷰영상.mp4</name>
            <enabled>true</enabled>
            <in>1888.1999999999998</in>
            <out>1962.0000000000002</out>
            <start>1888.1999999999998</start>
            <end>1962.0000000000002</end>
            <file id="[일룸] 일룸모델 공유의 인터뷰영상.mp4"/>
            <sourcetrack>
              <mediatype>audio</mediatype>
              <trackindex>1</trackindex>
            </sourcetrack>
          </clipitem>
          <clipitem>
            <name>[일룸] 일룸모델 공유의 인터뷰영상.mp4</name>
            <enabled>true</enabled>
            <in>1962.0000000000002</in>
            <out>2074.5</out>
            <start>1962.0000000000002</start>
            <end>2074.5</end>
            <file id="[일룸] 일룸모델 공유의 인터뷰영상.mp4"/>
            <sourcetrack>
              <mediatype>audio</mediatype>
              <trackindex>1</trackindex>
            </sourcetrack>
          </clipitem>
          <clipitem>
            <name>[일룸] 일룸모델 공유의 인터뷰영상.mp4</name>
            <enabled>true</enabled>
            <in>2074.5</in>
            <out>2196.8999999999996</out>
            <start>2074.5</start>
            <end>2196.8999999999996</end>
            <file id="[일룸] 일룸모델 공유의 인터뷰영상.mp4"/>
            <sourcetrack>
              <mediatype>audio</mediatype>
              <trackindex>1</trackindex>
            </sourcetrack>
          </clipitem>
          <clipitem>
            <name>[일룸] 일룸모델 공유의 인터뷰영상.mp4</name>
            <enabled>true</enabled>
            <in>2196.9</in>
            <out>2496.8999999999996</out>
            <start>2196.8999999999996</start>
            <end>2496.899999999999</end>
            <file id="[일룸] 일룸모델 공유의 인터뷰영상.mp4"/>
            <sourcetrack>
              <mediatype>audio</mediatype>
              <trackindex>1</trackindex>
            </sourcetrack>
          </clipitem>
          <clipitem>
            <name>[일룸] 일룸모델 공유의 인터뷰영상.mp4</name>
            <enabled>true</enabled>
            <in>2496.9</in>
            <out>2613</out>
            <start>2496.899999999999</start>
            <end>2612.999999999999</end>
            <file id="[일룸] 일룸모델 공유의 인터뷰영상.mp4"/>
            <sourcetrack>
              <mediatype>audio</mediatype>
              <trackindex>1</trackindex>
            </sourcetrack>
          </clipitem>
          <clipitem>
            <name>[일룸] 일룸모델 공유의 인터뷰영상.mp4</name>
            <enabled>true</enabled>
            <in>2613</in>
            <out>2697.8999999999996</out>
            <start>2612.999999999999</start>
            <end>2697.8999999999987</end>
            <file id="[일룸] 일룸모델 공유의 인터뷰영상.mp4"/>
            <sourcetrack>
              <mediatype>audio</mediatype>
              <trackindex>1</trackindex>
            </sourcetrack>
          </clipitem>
          <clipitem>
            <name>[일룸] 일룸모델 공유의 인터뷰영상.mp4</name>
            <enabled>true</enabled>
            <in>2697.9</in>
            <out>2790</out>
            <start>2697.8999999999987</start>
            <end>2789.9999999999986</end>
            <file id="[일룸] 일룸모델 공유의 인터뷰영상.mp4"/>
            <sourcetrack>
              <mediatype>audio</mediatype>
              <trackindex>1</trackindex>
            </sourcetrack>
          </clipitem>
          <clipitem>
            <name>[일룸] 일룸모델 공유의 인터뷰영상.mp4</name>
            <enabled>true</enabled>
            <in>2790</in>
            <out>3024.9</out>
            <start>2789.9999999999986</start>
            <end>3024.8999999999987</end>
            <file id="[일룸] 일룸모델 공유의 인터뷰영상.mp4"/>
            <sourcetrack>
              <mediatype>audio</mediatype>
              <trackindex>1</trackindex>
            </sourcetrack>
          </clipitem>
          <clipitem>
            <name>[일룸] 일룸모델 공유의 인터뷰영상.mp4</name>
            <enabled>true</enabled>
            <in>3024.9</in>
            <out>3122.4</out>
            <start>3024.8999999999987</start>
            <end>3122.3999999999987</end>
            <file id="[일룸] 일룸모델 공유의 인터뷰영상.mp4"/>
            <sourcetrack>
              <mediatype>audio</mediatype>
              <trackindex>1</trackindex>
            </sourcetrack>
          </clipitem>
          <clipitem>
            <name>[일룸] 일룸모델 공유의 인터뷰영상.mp4</name>
            <enabled>true</enabled>
            <in>3122.4</in>
            <out>3227.1</out>
            <start>3122.3999999999987</start>
            <end>3227.0999999999985</end>
            <file id="[일룸] 일룸모델 공유의 인터뷰영상.mp4"/>
            <sourcetrack>
              <mediatype>audio</mediatype>
              <trackindex>1</trackindex>
            </sourcetrack>
          </clipitem>
          <clipitem>
            <name>[일룸] 일룸모델 공유의 인터뷰영상.mp4</name>
            <enabled>true</enabled>
            <in>3227.1</in>
            <out>3298.5</out>
            <start>3227.0999999999985</start>
            <end>3298.4999999999986</end>
            <file id="[일룸] 일룸모델 공유의 인터뷰영상.mp4"/>
            <sourcetrack>
              <mediatype>audio</mediatype>
              <trackindex>1</trackindex>
            </sourcetrack>
          </clipitem>
          <clipitem>
            <name>[일룸] 일룸모델 공유의 인터뷰영상.mp4</name>
            <enabled>true</enabled>
            <in>3298.5</in>
            <out>3411.2999999999997</out>
            <start>3298.4999999999986</start>
            <end>3411.2999999999984</end>
            <file id="[일룸] 일룸모델 공유의 인터뷰영상.mp4"/>
            <sourcetrack>
              <mediatype>audio</mediatype>
              <trackindex>1</trackindex>
            </sourcetrack>
          </clipitem>
          <clipitem>
            <name>[일룸] 일룸모델 공유의 인터뷰영상.mp4</name>
            <enabled>true</enabled>
            <in>3411.2999999999997</in>
            <out>3455.3999999999996</out>
            <start>3411.2999999999984</start>
            <end>3455.3999999999987</end>
            <file id="[일룸] 일룸모델 공유의 인터뷰영상.mp4"/>
            <sourcetrack>
              <mediatype>audio</mediatype>
              <trackindex>1</trackindex>
            </sourcetrack>
          </clipitem>
          <clipitem>
            <name>[일룸] 일룸모델 공유의 인터뷰영상.mp4</name>
            <enabled>true</enabled>
            <in>3455.4</in>
            <out>3801.2999999999997</out>
            <start>3455.3999999999987</start>
            <end>3801.299999999998</end>
            <file id="[일룸] 일룸모델 공유의 인터뷰영상.mp4"/>
            <sourcetrack>
              <mediatype>audio</mediatype>
              <trackindex>1</trackindex>
            </sourcetrack>
          </clipitem>
        </track>
        <track>
          <clipitem>
            <name>[일룸] 일룸모델 공유의 인터뷰영상.mp4</name>
            <enabled>true</enabled>
            <in>0</in>
            <out>191.70000000000002</out>
            <start>0</start>
            <end>191.70000000000002</end>
            <file id="[일룸] 일룸모델 공유의 인터뷰영상.mp4"/>
            <sourcetrack>
              <mediatype>audio</mediatype>
              <trackindex>2</trackindex>
            </sourcetrack>
          </clipitem>
          <clipitem>
            <name>[일룸] 일룸모델 공유의 인터뷰영상.mp4</name>
            <enabled>true</enabled>
            <in>191.7</in>
            <out>401.4</out>
            <start>191.70000000000002</start>
            <end>401.4</end>
            <file id="[일룸] 일룸모델 공유의 인터뷰영상.mp4"/>
            <sourcetrack>
              <mediatype>audio</mediatype>
              <trackindex>2</trackindex>
            </sourcetrack>
          </clipitem>
          <clipitem>
            <name>[일룸] 일룸모델 공유의 인터뷰영상.mp4</name>
            <enabled>true</enabled>
            <in>401.40000000000003</in>
            <out>452.4</out>
            <start>401.4</start>
            <end>452.4</end>
            <file id="[일룸] 일룸모델 공유의 인터뷰영상.mp4"/>
            <sourcetrack>
              <mediatype>audio</mediatype>
              <trackindex>2</trackindex>
            </sourcetrack>
          </clipitem>
          <clipitem>
            <name>[일룸] 일룸모델 공유의 인터뷰영상.mp4</name>
            <enabled>true</enabled>
            <in>452.4</in>
            <out>564.3</out>
            <start>452.4</start>
            <end>564.2999999999998</end>
            <file id="[일룸] 일룸모델 공유의 인터뷰영상.mp4"/>
            <sourcetrack>
              <mediatype>audio</mediatype>
              <trackindex>2</trackindex>
            </sourcetrack>
          </clipitem>
          <clipitem>
            <name>[일룸] 일룸모델 공유의 인터뷰영상.mp4</name>
            <enabled>true</enabled>
            <in>564.3</in>
            <out>733.2</out>
            <start>564.2999999999998</start>
            <end>733.1999999999999</end>
            <file id="[일룸] 일룸모델 공유의 인터뷰영상.mp4"/>
            <sourcetrack>
              <mediatype>audio</mediatype>
              <trackindex>2</trackindex>
            </sourcetrack>
          </clipitem>
          <clipitem>
            <name>[일룸] 일룸모델 공유의 인터뷰영상.mp4</name>
            <enabled>true</enabled>
            <in>733.2</in>
            <out>811.4999999999999</out>
            <start>733.1999999999999</start>
            <end>811.4999999999998</end>
            <file id="[일룸] 일룸모델 공유의 인터뷰영상.mp4"/>
            <sourcetrack>
              <mediatype>audio</mediatype>
              <trackindex>2</trackindex>
            </sourcetrack>
          </clipitem>
          <clipitem>
            <name>[일룸] 일룸모델 공유의 인터뷰영상.mp4</name>
            <enabled>true</enabled>
            <in>811.5</in>
            <out>940.2</out>
            <start>811.4999999999998</start>
            <end>940.1999999999998</end>
            <file id="[일룸] 일룸모델 공유의 인터뷰영상.mp4"/>
            <sourcetrack>
              <mediatype>audio</mediatype>
              <trackindex>2</trackindex>
            </sourcetrack>
          </clipitem>
          <clipitem>
            <name>[일룸] 일룸모델 공유의 인터뷰영상.mp4</name>
            <enabled>true</enabled>
            <in>940.2</in>
            <out>996.3000000000001</out>
            <start>940.1999999999998</start>
            <end>996.2999999999998</end>
            <file id="[일룸] 일룸모델 공유의 인터뷰영상.mp4"/>
            <sourcetrack>
              <mediatype>audio</mediatype>
              <trackindex>2</trackindex>
            </sourcetrack>
          </clipitem>
          <clipitem>
            <name>[일룸] 일룸모델 공유의 인터뷰영상.mp4</name>
            <enabled>true</enabled>
            <in>996.3000000000001</in>
            <out>1072.8</out>
            <start>996.2999999999998</start>
            <end>1072.7999999999997</end>
            <file id="[일룸] 일룸모델 공유의 인터뷰영상.mp4"/>
            <sourcetrack>
              <mediatype>audio</mediatype>
              <trackindex>2</trackindex>
            </sourcetrack>
          </clipitem>
          <clipitem>
            <name>[일룸] 일룸모델 공유의 인터뷰영상.mp4</name>
            <enabled>true</enabled>
            <in>1072.8</in>
            <out>1250.7</out>
            <start>1072.7999999999997</start>
            <end>1250.6999999999998</end>
            <file id="[일룸] 일룸모델 공유의 인터뷰영상.mp4"/>
            <sourcetrack>
              <mediatype>audio</mediatype>
              <trackindex>2</trackindex>
            </sourcetrack>
          </clipitem>
          <clipitem>
            <name>[일룸] 일룸모델 공유의 인터뷰영상.mp4</name>
            <enabled>true</enabled>
            <in>1250.6999999999998</in>
            <out>1308.9</out>
            <start>1250.6999999999998</start>
            <end>1308.9</end>
            <file id="[일룸] 일룸모델 공유의 인터뷰영상.mp4"/>
            <sourcetrack>
              <mediatype>audio</mediatype>
              <trackindex>2</trackindex>
            </sourcetrack>
          </clipitem>
          <clipitem>
            <name>[일룸] 일룸모델 공유의 인터뷰영상.mp4</name>
            <enabled>true</enabled>
            <in>1308.9</in>
            <out>1472.3999999999999</out>
            <start>1308.9</start>
            <end>1472.3999999999999</end>
            <file id="[일룸] 일룸모델 공유의 인터뷰영상.mp4"/>
            <sourcetrack>
              <mediatype>audio</mediatype>
              <trackindex>2</trackindex>
            </sourcetrack>
          </clipitem>
          <clipitem>
            <name>[일룸] 일룸모델 공유의 인터뷰영상.mp4</name>
            <enabled>true</enabled>
            <in>1472.3999999999999</in>
            <out>1562.1</out>
            <start>1472.3999999999999</start>
            <end>1562.1</end>
            <file id="[일룸] 일룸모델 공유의 인터뷰영상.mp4"/>
            <sourcetrack>
              <mediatype>audio</mediatype>
              <trackindex>2</trackindex>
            </sourcetrack>
          </clipitem>
          <clipitem>
            <name>[일룸] 일룸모델 공유의 인터뷰영상.mp4</name>
            <enabled>true</enabled>
            <in>1562.1</in>
            <out>1629.6</out>
            <start>1562.1</start>
            <end>1629.6</end>
            <file id="[일룸] 일룸모델 공유의 인터뷰영상.mp4"/>
            <sourcetrack>
              <mediatype>audio</mediatype>
              <trackindex>2</trackindex>
            </sourcetrack>
          </clipitem>
          <clipitem>
            <name>[일룸] 일룸모델 공유의 인터뷰영상.mp4</name>
            <enabled>true</enabled>
            <in>1629.6</in>
            <out>1686.6</out>
            <start>1629.6</start>
            <end>1686.6</end>
            <file id="[일룸] 일룸모델 공유의 인터뷰영상.mp4"/>
            <sourcetrack>
              <mediatype>audio</mediatype>
              <trackindex>2</trackindex>
            </sourcetrack>
          </clipitem>
          <clipitem>
            <name>[일룸] 일룸모델 공유의 인터뷰영상.mp4</name>
            <enabled>true</enabled>
            <in>1686.6</in>
            <out>1817.1</out>
            <start>1686.6</start>
            <end>1817.1</end>
            <file id="[일룸] 일룸모델 공유의 인터뷰영상.mp4"/>
            <sourcetrack>
              <mediatype>audio</mediatype>
              <trackindex>2</trackindex>
            </sourcetrack>
          </clipitem>
          <clipitem>
            <name>[일룸] 일룸모델 공유의 인터뷰영상.mp4</name>
            <enabled>true</enabled>
            <in>1817.1</in>
            <out>1888.1999999999998</out>
            <start>1817.1</start>
            <end>1888.1999999999998</end>
            <file id="[일룸] 일룸모델 공유의 인터뷰영상.mp4"/>
            <sourcetrack>
              <mediatype>audio</mediatype>
              <trackindex>2</trackindex>
            </sourcetrack>
          </clipitem>
          <clipitem>
            <name>[일룸] 일룸모델 공유의 인터뷰영상.mp4</name>
            <enabled>true</enabled>
            <in>1888.1999999999998</in>
            <out>1962.0000000000002</out>
            <start>1888.1999999999998</start>
            <end>1962.0000000000002</end>
            <file id="[일룸] 일룸모델 공유의 인터뷰영상.mp4"/>
            <sourcetrack>
              <mediatype>audio</mediatype>
              <trackindex>2</trackindex>
            </sourcetrack>
          </clipitem>
          <clipitem>
            <name>[일룸] 일룸모델 공유의 인터뷰영상.mp4</name>
            <enabled>true</enabled>
            <in>1962.0000000000002</in>
            <out>2074.5</out>
            <start>1962.0000000000002</start>
            <end>2074.5</end>
            <file id="[일룸] 일룸모델 공유의 인터뷰영상.mp4"/>
            <sourcetrack>
              <mediatype>audio</mediatype>
              <trackindex>2</trackindex>
            </sourcetrack>
          </clipitem>
          <clipitem>
            <name>[일룸] 일룸모델 공유의 인터뷰영상.mp4</name>
            <enabled>true</enabled>
            <in>2074.5</in>
            <out>2196.8999999999996</out>
            <start>2074.5</start>
            <end>2196.8999999999996</end>
            <file id="[일룸] 일룸모델 공유의 인터뷰영상.mp4"/>
            <sourcetrack>
              <mediatype>audio</mediatype>
              <trackindex>2</trackindex>
            </sourcetrack>
          </clipitem>
          <clipitem>
            <name>[일룸] 일룸모델 공유의 인터뷰영상.mp4</name>
            <enabled>true</enabled>
            <in>2196.9</in>
            <out>2496.8999999999996</out>
            <start>2196.8999999999996</start>
            <end>2496.899999999999</end>
            <file id="[일룸] 일룸모델 공유의 인터뷰영상.mp4"/>
            <sourcetrack>
              <mediatype>audio</mediatype>
              <trackindex>2</trackindex>
            </sourcetrack>
          </clipitem>
          <clipitem>
            <name>[일룸] 일룸모델 공유의 인터뷰영상.mp4</name>
            <enabled>true</enabled>
            <in>2496.9</in>
            <out>2613</out>
            <start>2496.899999999999</start>
            <end>2612.999999999999</end>
            <file id="[일룸] 일룸모델 공유의 인터뷰영상.mp4"/>
            <sourcetrack>
              <mediatype>audio</mediatype>
              <trackindex>2</trackindex>
            </sourcetrack>
          </clipitem>
          <clipitem>
            <name>[일룸] 일룸모델 공유의 인터뷰영상.mp4</name>
            <enabled>true</enabled>
            <in>2613</in>
            <out>2697.8999999999996</out>
            <start>2612.999999999999</start>
            <end>2697.8999999999987</end>
            <file id="[일룸] 일룸모델 공유의 인터뷰영상.mp4"/>
            <sourcetrack>
              <mediatype>audio</mediatype>
              <trackindex>2</trackindex>
            </sourcetrack>
          </clipitem>
          <clipitem>
            <name>[일룸] 일룸모델 공유의 인터뷰영상.mp4</name>
            <enabled>true</enabled>
            <in>2697.9</in>
            <out>2790</out>
            <start>2697.8999999999987</start>
            <end>2789.9999999999986</end>
            <file id="[일룸] 일룸모델 공유의 인터뷰영상.mp4"/>
            <sourcetrack>
              <mediatype>audio</mediatype>
              <trackindex>2</trackindex>
            </sourcetrack>
          </clipitem>
          <clipitem>
            <name>[일룸] 일룸모델 공유의 인터뷰영상.mp4</name>
            <enabled>true</enabled>
            <in>2790</in>
            <out>3024.9</out>
            <start>2789.9999999999986</start>
            <end>3024.8999999999987</end>
            <file id="[일룸] 일룸모델 공유의 인터뷰영상.mp4"/>
            <sourcetrack>
              <mediatype>audio</mediatype>
              <trackindex>2</trackindex>
            </sourcetrack>
          </clipitem>
          <clipitem>
            <name>[일룸] 일룸모델 공유의 인터뷰영상.mp4</name>
            <enabled>true</enabled>
            <in>3024.9</in>
            <out>3122.4</out>
            <start>3024.8999999999987</start>
            <end>3122.3999999999987</end>
            <file id="[일룸] 일룸모델 공유의 인터뷰영상.mp4"/>
            <sourcetrack>
              <mediatype>audio</mediatype>
              <trackindex>2</trackindex>
            </sourcetrack>
          </clipitem>
          <clipitem>
            <name>[일룸] 일룸모델 공유의 인터뷰영상.mp4</name>
            <enabled>true</enabled>
            <in>3122.4</in>
            <out>3227.1</out>
            <start>3122.3999999999987</start>
            <end>3227.0999999999985</end>
            <file id="[일룸] 일룸모델 공유의 인터뷰영상.mp4"/>
            <sourcetrack>
              <mediatype>audio</mediatype>
              <trackindex>2</trackindex>
            </sourcetrack>
          </clipitem>
          <clipitem>
            <name>[일룸] 일룸모델 공유의 인터뷰영상.mp4</name>
            <enabled>true</enabled>
            <in>3227.1</in>
            <out>3298.5</out>
            <start>3227.0999999999985</start>
            <end>3298.4999999999986</end>
            <file id="[일룸] 일룸모델 공유의 인터뷰영상.mp4"/>
            <sourcetrack>
              <mediatype>audio</mediatype>
              <trackindex>2</trackindex>
            </sourcetrack>
          </clipitem>
          <clipitem>
            <name>[일룸] 일룸모델 공유의 인터뷰영상.mp4</name>
            <enabled>true</enabled>
            <in>3298.5</in>
            <out>3411.2999999999997</out>
            <start>3298.4999999999986</start>
            <end>3411.2999999999984</end>
            <file id="[일룸] 일룸모델 공유의 인터뷰영상.mp4"/>
            <sourcetrack>
              <mediatype>audio</mediatype>
              <trackindex>2</trackindex>
            </sourcetrack>
          </clipitem>
          <clipitem>
            <name>[일룸] 일룸모델 공유의 인터뷰영상.mp4</name>
            <enabled>true</enabled>
            <in>3411.2999999999997</in>
            <out>3455.3999999999996</out>
            <start>3411.2999999999984</start>
            <end>3455.3999999999987</end>
            <file id="[일룸] 일룸모델 공유의 인터뷰영상.mp4"/>
            <sourcetrack>
              <mediatype>audio</mediatype>
              <trackindex>2</trackindex>
            </sourcetrack>
          </clipitem>
          <clipitem>
            <name>[일룸] 일룸모델 공유의 인터뷰영상.mp4</name>
            <enabled>true</enabled>
            <in>3455.4</in>
            <out>3801.2999999999997</out>
            <start>3455.3999999999987</start>
            <end>3801.299999999998</end>
            <file id="[일룸] 일룸모델 공유의 인터뷰영상.mp4"/>
            <sourcetrack>
              <mediatype>audio</mediatype>
              <trackindex>2</trackindex>
            </sourcetrack>
          </clipitem>
        </track>
      </audio>
    </media>
  </sequence>
</xmeml>